<svg width="64" height="64" viewBox="0 0 64 64" fill="none" xmlns="http://www.w3.org/2000/svg">
<g clip-path="url(#clip0_1126_2020)">
<path d="M49 0H15C6.71573 0 0 6.71573 0 15V49C0 57.2843 6.71573 64 15 64H49C57.2843 64 64 57.2843 64 49V15C64 6.71573 57.2843 0 49 0Z" fill="#F4F2ED"/>
<path d="M26.757 12.2046H15.197C12.895 12.2046 11.0027 14.1701 11.0027 16.6038C10.9202 18.9528 12.7295 20.9176 14.9925 21.0028H26.8805L26.757 12.2046Z" fill="#073042"/>
<path d="M52.9589 51.3258H15.1974C12.8539 51.3258 11.0029 49.3613 11.0029 46.9268V16.5618C11.0029 18.9955 12.8952 20.9603 15.1974 21.0028H46.8302C46.8302 21.0028 53.0002 20.4483 53.0002 25.2743V51.3258H52.9589Z" fill="#4285F4"/>
<path d="M35.353 35.78C37.0395 34.4562 37.3685 31.9792 36.0945 30.2705C35.3945 29.331 34.325 28.7332 33.1727 28.6902H33.2962C33.5139 28.6477 33.7378 28.6477 33.9555 28.6902V26.256C33.9555 25.957 33.8315 25.7007 33.5847 25.573C33.2142 25.3592 32.762 25.4875 32.5565 25.8717C32.474 26 32.433 26.128 32.474 26.2987V28.7755C30.4175 29.1172 28.9777 31.1247 29.306 33.3032V33.3457C29.4712 34.3707 30.0065 35.3105 30.8287 35.9082L23.877 51.3685H28.402L31.61 44.279C31.981 43.4245 32.9677 43.0405 33.8315 43.4675C34.1612 43.6385 34.4485 43.9372 34.613 44.279L37.9455 51.3685H42.552L35.353 35.78ZM33.0087 35.0967C31.6922 35.0967 30.664 33.9862 30.664 32.62C30.664 31.2527 31.7335 30.1852 33.0495 30.2277C33.6665 30.2277 34.2022 30.4842 34.654 30.9117C35.6 31.8507 35.6 33.3885 34.695 34.3707C34.284 34.798 33.6665 35.0967 33.0087 35.0967Z" fill="#3870B2"/>
<path d="M24.248 14.3408H40.4545V17.4156H24.248V14.3408Z" fill="white"/>
<path d="M31.7746 30.1853C33.0494 30.1853 34.1196 31.2958 34.0786 32.6623C34.0786 33.9863 33.0086 35.0968 31.6921 35.0541C30.4174 35.0541 29.3886 33.9438 29.3886 32.6201C29.3886 31.9793 29.6351 31.3811 30.0889 30.9118C30.5406 30.4416 31.1571 30.1853 31.7746 30.1853ZM32.6796 28.7756V26.2133C32.6796 25.9143 32.5564 25.6583 32.3096 25.5298C31.9396 25.3163 31.4869 25.4446 31.2804 25.8291C31.1979 25.9571 31.1571 26.0853 31.1979 26.2561V28.7333C29.1414 29.0746 27.7016 31.0826 28.0319 33.2606V33.3033C28.1966 34.3276 28.7306 35.2676 29.5534 35.8651L20.7919 55.3831C20.4631 56.0671 20.5041 56.9206 20.9566 57.5613C21.6139 58.5433 22.8901 58.7996 23.8351 58.1166C24.1651 57.9028 24.4119 57.5613 24.5761 57.2196L30.4174 44.2361C30.7874 43.3821 31.7746 42.9976 32.6386 43.4246C32.9676 43.5956 33.2551 43.8948 33.4199 44.2361L39.3844 57.0916C39.8786 58.1591 41.1119 58.5861 42.1411 58.0733C43.1686 57.5613 43.5804 56.2798 43.0864 55.2121L34.0786 35.7801C35.7236 34.4131 36.0119 31.8938 34.6949 30.1853C34.2021 29.5018 33.5024 29.0321 32.6796 28.7756Z" fill="#073042"/>
<path d="M38.0693 17.074C37.4516 17.074 36.9581 16.6038 36.9581 15.9635C36.9581 15.6645 37.0811 15.323 37.2868 15.1093C37.7396 14.6825 38.3981 14.6825 38.8506 15.1093C39.0592 15.3282 39.1767 15.6183 39.1793 15.9207C39.1383 16.5615 38.6858 17.0312 38.0693 17.074ZM25.8933 17.0312C25.2753 17.0312 24.7826 16.5187 24.7826 15.9207C24.7826 15.6217 24.9063 15.323 25.1111 15.1093C25.4816 14.6398 26.1818 14.554 26.6336 14.939H26.6748C27.1268 15.3658 27.1678 16.0915 26.7573 16.5615L26.6336 16.7318C26.4283 16.9455 26.1408 17.074 25.8518 17.074L25.8933 17.0312ZM38.3981 10.155L40.5781 6.226C40.7013 6.0125 40.6191 5.75625 40.4548 5.5855C40.2491 5.5 40.0438 5.54275 39.9206 5.71375L37.6576 9.77075C34.0381 8.10525 29.9248 8.10525 26.3461 9.77075L24.1248 5.75625C24.0423 5.62825 23.8773 5.5 23.7123 5.5C23.5483 5.5 23.3836 5.5855 23.3008 5.75625C23.2188 5.8845 23.2188 6.09775 23.3008 6.226L25.5228 10.155C21.6553 12.3325 19.1466 16.4335 18.7773 20.9603H45.1846C44.8563 16.391 42.3056 12.3325 38.4391 10.155" fill="#3DDC84"/>
<path d="M49.3427 29.4598H47.6149C47.5322 29.5018 47.4502 29.5873 47.4502 29.7153V58.1166C47.4502 58.2443 47.5322 58.3298 47.6564 58.3298H49.4659C51.5637 58.3298 53.2502 56.5358 53.2502 54.4008V25.4875C53.2502 27.6655 51.5637 29.4168 49.4659 29.4168H49.3427V29.4598Z" fill="#073042"/>
</g>
<defs>
<clipPath id="clip0_1126_2020">
<rect width="64" height="64" fill="white"/>
</clipPath>
</defs>
</svg>
