<svg width="64" height="64" viewBox="0 0 64 64" fill="none" xmlns="http://www.w3.org/2000/svg">
<g clip-path="url(#clip0_1126_2237)">
<path d="M49 0H15C6.71573 0 0 6.71573 0 15V49C0 57.2843 6.71573 64 15 64H49C57.2843 64 64 57.2843 64 49V15C64 6.71573 57.2843 0 49 0Z" fill="#F4F2ED"/>
<g clip-path="url(#clip1_1126_2237)">
<path d="M43.7605 24.0146L47.7545 17.2234C47.8644 17.036 47.8941 16.8134 47.8371 16.6045C47.7801 16.3956 47.641 16.2174 47.4502 16.1089C47.2593 16.001 47.0325 15.9719 46.8196 16.0279C46.6068 16.084 46.4253 16.2206 46.3151 16.4078L42.2715 23.285C39.1784 21.8995 35.7054 21.1276 31.9996 21.1276C28.2938 21.1276 24.8202 21.8995 21.7279 23.285L17.6841 16.4076C17.5738 16.2204 17.3923 16.0838 17.1794 16.0278C16.9666 15.9719 16.7398 16.001 16.5488 16.1089C16.358 16.2173 16.2188 16.3955 16.1618 16.6045C16.1048 16.8134 16.1346 17.036 16.2447 17.2234L20.2387 24.0146C13.3806 27.6769 8.69003 34.4937 8.00391 42.547H55.9953C55.3086 34.4937 50.6178 27.6769 43.7605 24.0146ZM43.0254 31.9134C44.118 31.9134 45.0066 32.8015 45.0066 33.893C45.0066 34.9849 44.118 35.8735 43.0254 35.8735C41.9333 35.8735 41.0447 34.9849 41.0447 33.893C41.0447 32.8015 41.9333 31.9134 43.0254 31.9134ZM20.9736 31.9134C22.0658 31.9134 22.9545 32.8015 22.9545 33.893C22.9545 34.9849 22.0658 35.8735 20.9736 35.8735C19.881 35.8735 18.9926 34.9849 18.9926 33.893C18.9926 32.8015 19.8812 31.9134 20.9736 31.9134Z" fill="#3DDC84"/>
</g>
</g>
<defs>
<clipPath id="clip0_1126_2237">
<rect width="64" height="64" fill="white"/>
</clipPath>
<clipPath id="clip1_1126_2237">
<rect width="48" height="26.6667" fill="white" transform="translate(8 16)"/>
</clipPath>
</defs>
</svg>
