<svg width="64" height="64" viewBox="0 0 64 64" fill="none" xmlns="http://www.w3.org/2000/svg">
<g clip-path="url(#clip0_1126_2232)">
<path d="M49 0H15C6.71573 0 0 6.71573 0 15V49C0 57.2843 6.71573 64 15 64H49C57.2843 64 64 57.2843 64 49V15C64 6.71573 57.2843 0 49 0Z" fill="#242938"/>
<g clip-path="url(#clip1_1126_2232)">
<path d="M31.8332 9.33325C32.6638 9.34762 33.4776 9.57243 34.2009 9.98726L49.2865 18.6377C49.8939 18.9864 50.4314 19.4478 50.8712 19.9978L50.8862 19.9888L51.111 20.3236L51.1374 20.3619L51.4181 20.782L51.3981 20.7942C51.7706 21.4832 51.9756 22.2352 51.9831 23.0001V40.585C51.9913 41.4733 51.769 42.3482 51.3387 43.1217C50.9084 43.8951 50.2852 44.54 49.5317 44.9916L34.6096 53.9306C33.9907 54.3016 33.3 54.5317 32.585 54.6052L32.5848 54.6277L31.6304 54.6357L31.6309 54.6116C30.9257 54.5472 30.242 54.3312 29.6254 53.9779L13.7751 44.8881C12.6982 44.2726 12.0281 43.1189 12.0156 41.8585V23.2355C12.0245 22.5787 12.1372 21.9448 12.3507 21.3618L12.3329 21.3515L12.7413 20.4849L12.7644 20.4979C13.144 19.8704 13.6694 19.3468 14.2944 18.9731L29.2166 10.0359C29.9701 9.58402 30.8275 9.34166 31.7026 9.33325H31.8332ZM13.1865 21.8367L13.1531 21.9445C13.0204 22.3907 12.9547 22.8727 12.9597 23.3752V41.8537C12.9638 42.3021 13.0842 42.7415 13.3087 43.1276C13.5333 43.5138 13.8541 43.833 14.2388 44.0532L30.0897 53.1433C30.5593 53.4124 31.0771 53.5834 31.6128 53.6463L31.6457 53.6494L31.6495 52.8677L31.6526 49.5888L31.6476 45.8667L31.6262 45.8646C31.2983 45.8207 30.979 45.7255 30.6798 45.5823L30.5683 45.5264L30.4698 45.472L20.8672 39.9654C20.5182 39.7656 20.2272 39.476 20.0236 39.1256C19.8194 38.774 19.7101 38.3739 19.7067 37.9657L19.7069 26.7726C19.7034 26.4165 19.7475 26.0693 19.838 25.742L19.8688 25.6374L13.1865 21.8365V21.8367ZM50.587 21.2862L43.9987 25.2811L44.0132 25.3117C44.1759 25.668 44.2709 26.0473 44.289 26.4347L44.292 26.5406L44.2917 37.1923C44.2972 37.7637 44.1543 38.3264 43.8776 38.8239C43.6008 39.3214 43.1999 39.7362 42.7152 40.0265L33.6753 45.4414C33.3643 45.6279 33.0241 45.7593 32.6696 45.8298L32.592 45.8439L32.5936 46.6012L32.5967 50.9884L32.5904 53.5651L32.5895 53.6396L32.7306 53.6193C33.1828 53.5447 33.619 53.3922 34.0205 53.1684L34.1298 53.1053L49.052 44.1664C49.6628 43.8003 50.1679 43.2775 50.5166 42.6506C50.8659 42.0221 51.046 41.3112 51.0387 40.5896L51.039 23.0047C51.0337 22.4614 50.8988 21.9185 50.6493 21.4082L50.587 21.2862ZM31.3749 23.0577C31.2322 23.1005 31.0948 23.161 30.9666 23.2377L24.907 26.8669C24.7309 26.9723 24.5761 27.1107 24.451 27.2748C24.3777 27.3709 24.3147 27.4748 24.2632 27.5845L24.2305 27.6669C24.1535 27.8524 24.1046 28.0486 24.0853 28.249C24.0783 28.3273 24.0747 28.4065 24.0755 28.4867V35.9931C24.0778 36.2093 24.1359 36.4211 24.244 36.6074C24.3521 36.7936 24.5068 36.9475 24.6923 37.0535L31.1293 40.745C31.4085 40.9051 31.7243 40.988 32.045 40.9853L32.1136 40.9826L32.1141 43.0036L32.1185 44.9316L32.1138 40.9823C32.4128 40.9693 32.7041 40.8818 32.962 40.7275L39.0216 37.0977C39.2986 36.9317 39.5277 36.6947 39.6859 36.4104C39.7114 36.3648 39.7338 36.3178 39.7554 36.27C39.8677 36.0214 39.9249 35.7509 39.9228 35.4774L39.9229 28.335C39.9215 28.2063 39.9048 28.0781 39.8734 27.9534C39.8528 27.8706 39.8262 27.7895 39.7936 27.7108C39.7582 27.6249 39.7164 27.5418 39.6686 27.4623L39.641 27.4173L39.6124 27.3729C39.5684 27.3073 39.5206 27.2443 39.4694 27.1843C39.3145 27.0035 39.1305 26.8507 38.9251 26.7325L32.799 23.22C32.5847 23.0967 32.3481 23.0188 32.1033 22.9909C31.8585 22.963 31.6107 22.9857 31.3749 23.0577ZM31.7116 10.2914C31.0023 10.2983 30.3073 10.4949 29.6965 10.8613L14.7743 19.7983C14.3272 20.0654 13.9444 20.4303 13.6537 20.8665L13.5887 20.9671L20.2864 24.7745L20.3559 24.6783C20.5596 24.4081 20.8084 24.1763 21.0909 23.9934L21.1789 23.9385L30.2189 18.5239C30.7034 18.2331 31.2548 18.0771 31.8176 18.0716C32.3804 18.0661 32.9347 18.2112 33.4246 18.4923L42.5639 23.7336C42.8795 23.9148 43.166 24.144 43.4135 24.4131L43.475 24.482L50.0503 20.4949L49.978 20.4114C49.6726 20.0689 49.3193 19.7738 48.9295 19.5356L48.8222 19.4719L33.7367 10.8218C33.1193 10.4675 32.4209 10.2846 31.7118 10.2916L31.7116 10.2914Z" fill="#4285F4"/>
</g>
</g>
<defs>
<clipPath id="clip0_1126_2232">
<rect width="64" height="64" fill="white"/>
</clipPath>
<clipPath id="clip1_1126_2232">
<rect width="40" height="45.3333" fill="white" transform="translate(12 9.33325)"/>
</clipPath>
</defs>
</svg>
