<svg width="64" height="64" viewBox="0 0 64 64" fill="none" xmlns="http://www.w3.org/2000/svg">
<g clip-path="url(#clip0_1126_1847)">
<path d="M49 0H15C6.71573 0 0 6.71573 0 15V49C0 57.2843 6.71573 64 15 64H49C57.2843 64 64 57.2843 64 49V15C64 6.71573 57.2843 0 49 0Z" fill="#0277BD"/>
<path d="M13.4382 25.6628L14.1538 33.6483H32.024V25.6628H13.4382ZM32.0238 9.5H12L12.726 17.4855H32.0238V9.5ZM32.0238 54.7103V46.402L31.9888 46.4113L23.0952 44.01L22.5268 37.641H14.5105L15.6292 50.1795L31.987 54.7205L32.0238 54.7103Z" fill="#EBEBEB"/>
<path d="M41.8293 33.6483L40.9023 44.0047L31.9961 46.4087V54.7165L48.3668 50.1795L48.4868 48.8302L50.3633 27.8072L50.5581 25.6628L51.9998 9.5H31.9961V17.4855H43.2483L42.5218 25.6628H31.9961V33.6483H41.8293Z" fill="white"/>
</g>
<defs>
<clipPath id="clip0_1126_1847">
<rect width="64" height="64" fill="white"/>
</clipPath>
</defs>
</svg>
