<svg width="64" height="64" viewBox="0 0 64 64" fill="none" xmlns="http://www.w3.org/2000/svg">
<g clip-path="url(#clip0_1126_1948)">
<path d="M49 0H15C6.71573 0 0 6.71573 0 15V49C0 57.2843 6.71573 64 15 64H49C57.2843 64 64 57.2843 64 49V15C64 6.71573 57.2843 0 49 0Z" fill="#2396ED"/>
<path d="M35.2967 30.5308H40.476V25.8447H35.2967V30.5308ZM29.1312 30.5308H34.3102V25.8447H29.1312V30.5308ZM23.0887 30.5308H28.268V25.8447H23.0887V30.5308ZM17.0462 30.5308H22.1025V25.8447H17.0465L17.0462 30.5308ZM10.8807 30.5308H16.06V25.8447H10.8807V30.5308ZM17.0465 24.8582H22.1022V20.1725H17.0465V24.8582ZM23.089 24.8582H28.268V20.1725H23.0887L23.089 24.8582ZM29.1312 24.8582H34.3102V20.1725H29.1312V24.8582ZM29.1312 19.1857H34.3102V14.5H29.1312V19.186V19.1857ZM57 28.4347C57 28.4347 54.7802 26.3383 50.2177 27.0783C49.7245 23.502 45.9017 21.4058 45.9017 21.4058C45.9017 21.4058 42.3257 25.7218 44.9152 30.531C44.1755 30.901 42.9422 31.3943 41.0925 31.3943H7.1815C6.56475 33.7373 6.56475 49.2745 23.582 49.2745C35.79 49.2745 44.9152 43.6023 49.2312 33.2438C55.6435 33.737 57 28.4347 57 28.4347Z" fill="white"/>
</g>
<defs>
<clipPath id="clip0_1126_1948">
<rect width="64" height="64" fill="white"/>
</clipPath>
</defs>
</svg>
