<svg width="48" height="48" viewBox="0 0 48 48" fill="none" xmlns="http://www.w3.org/2000/svg">
<g clip-path="url(#clip0_1129_2309)">
<path d="M36.75 0H11.25C5.0368 0 0 5.0368 0 11.25V36.75C0 42.9632 5.0368 48 11.25 48H36.75C42.9632 48 48 42.9632 48 36.75V11.25C48 5.0368 42.9632 0 36.75 0Z" fill="#F4F2ED"/>
<g clip-path="url(#clip1_1129_2309)">
<path d="M24 9.99609C31.7344 9.99609 37.9922 16.2539 37.9922 23.9766C37.9922 31.6992 31.7344 37.9687 24 37.9687C16.2656 37.9687 10.0078 31.7109 10.0078 23.9883C10.0078 16.2656 16.2656 9.99609 24 9.99609Z" fill="#E74D89"/>
<path d="M24 38.9648C15.7266 38.9648 9 32.25 9 23.9883C9 15.7148 15.7266 9 24 9C32.2734 9 39 15.7148 39 23.9766C39 32.2383 32.2734 38.9648 24 38.9648ZM36.6445 26.0273C36.2109 25.8867 32.6836 24.8438 28.6641 25.4766C30.3398 30.0703 31.0195 33.8203 31.1484 34.5937C34.0313 32.6602 36.082 29.5898 36.6445 26.0273ZM29.0039 35.7773C28.8164 34.6523 28.0664 30.7383 26.2734 26.0742C26.25 26.0859 26.2148 26.0977 26.1914 26.0977C18.9609 28.6172 16.3711 33.6211 16.1367 34.0898C18.3047 35.7773 21.0352 36.7852 24 36.7852C25.7695 36.7969 27.4687 36.4336 29.0039 35.7773ZM14.4844 32.5547C14.7773 32.0625 18.293 26.25 24.9023 24.1055C25.0664 24.0469 25.2422 24 25.4062 23.9531C25.0898 23.2266 24.7383 22.5 24.3633 21.7852C17.9648 23.6953 11.7539 23.6133 11.1914 23.6016C11.1914 23.7305 11.1797 23.8594 11.1797 23.9883C11.1914 27.2813 12.4336 30.2813 14.4844 32.5547ZM11.4609 21.375C12.0352 21.3867 17.3086 21.4102 23.3086 19.8164C21.1875 16.043 18.8906 12.8789 18.5625 12.4219C14.9648 14.1094 12.293 17.4141 11.4609 21.375ZM21 11.5547C21.3516 12.0234 23.6836 15.1875 25.7812 19.043C30.3398 17.332 32.2617 14.7539 32.4961 14.4258C30.2344 12.4219 27.2578 11.2031 24 11.2031C22.9687 11.2031 21.9609 11.332 21 11.5547ZM33.9141 15.9023C33.6445 16.2656 31.5 19.0195 26.7656 20.9531C27.0586 21.5625 27.3516 22.1836 27.6211 22.8047C27.7148 23.0273 27.8086 23.25 27.9023 23.4609C32.168 22.9219 36.3984 23.7891 36.8203 23.8711C36.7852 20.8594 35.707 18.082 33.9141 15.9023Z" fill="#B2215A"/>
</g>
</g>
<defs>
<clipPath id="clip0_1129_2309">
<rect width="48" height="48" fill="white"/>
</clipPath>
<clipPath id="clip1_1129_2309">
<rect width="30" height="30" fill="white" transform="translate(9 9)"/>
</clipPath>
</defs>
</svg>
