<svg width="64" height="64" viewBox="0 0 64 64" fill="none" xmlns="http://www.w3.org/2000/svg">
<g clip-path="url(#clip0_1126_2109)">
<path d="M49 0H15C6.71573 0 0 6.71573 0 15V49C0 57.2843 6.71573 64 15 64H49C57.2843 64 64 57.2843 64 49V15C64 6.71573 57.2843 0 49 0Z" fill="#F4F2ED"/>
<mask id="mask0_1126_2109" style="mask-type:luminance" maskUnits="userSpaceOnUse" x="15" y="7" width="34" height="50">
<path d="M15.25 7H48.59V57H15.25V7Z" fill="white"/>
</mask>
<g mask="url(#mask0_1126_2109)">
<path d="M23.5864 57C28.1864 57 31.9197 53.2668 31.9197 48.6668V40.3333H23.5864C18.9864 40.3333 15.2529 44.0668 15.2529 48.6668C15.2529 53.2668 18.9864 57 23.5864 57Z" fill="#0ACF83"/>
<path d="M15.2529 32C15.2529 27.4 18.9864 23.6667 23.5864 23.6667H31.9197V40.3332H23.5864C18.9864 40.3332 15.2529 36.6 15.2529 32Z" fill="#A259FF"/>
<path d="M15.2529 15.3333C15.2529 10.7333 18.9864 7 23.5864 7H31.9197V23.6667H23.5864C18.9864 23.6667 15.2529 19.9332 15.2529 15.3333Z" fill="#F24E1E"/>
<path d="M31.9199 7H40.2532C44.8532 7 48.5867 10.7333 48.5867 15.3333C48.5867 19.9332 44.8532 23.6667 40.2532 23.6667H31.9199V7Z" fill="#FF7262"/>
<path d="M48.5867 32C48.5867 36.6 44.8532 40.3332 40.2532 40.3332C35.6532 40.3332 31.9199 36.6 31.9199 32C31.9199 27.4 35.6532 23.6667 40.2532 23.6667C44.8532 23.6667 48.5867 27.4 48.5867 32Z" fill="#1ABCFE"/>
</g>
</g>
<defs>
<clipPath id="clip0_1126_2109">
<rect width="64" height="64" fill="white"/>
</clipPath>
</defs>
</svg>
