<svg width="64" height="64" viewBox="0 0 64 64" fill="none" xmlns="http://www.w3.org/2000/svg">
<g clip-path="url(#clip0_1126_1928)">
<path d="M49 0H15C6.71573 0 0 6.71573 0 15V49C0 57.2843 6.71573 64 15 64H49C57.2843 64 64 57.2843 64 49V15C64 6.71573 57.2843 0 49 0Z" fill="#F4F2ED"/>
<path d="M22.4445 48.4815C20.635 47.0583 18.7045 45.6938 17.3858 43.7723C14.6103 40.3838 12.4733 36.4606 11.0123 32.3381C10.1293 29.6571 9.82702 26.783 8.68852 24.2055C7.49777 22.3338 8.89277 20.2878 10.943 19.6928C11.8558 19.5176 13.461 18.6565 11.5235 19.2718C9.78652 20.5463 9.61852 18.115 11.3995 17.961C12.615 17.7995 13.0625 16.8043 12.647 15.9085C11.342 15.0575 15.811 14.1223 13.5625 12.8528C11.22 10.3253 16.839 9.83905 15.4525 12.709C15.1208 14.9163 19.379 12.3045 18.391 14.8533C19.3953 16.0773 22.1515 15.1318 22.083 16.8491C23.546 16.9496 24.048 18.1803 25.4213 18.2748C26.8445 18.9175 29.4245 19.424 29.9088 21.0278C28.4968 22.1458 25.2273 18.7188 25.07 21.813C25.4965 26.3843 25.388 31.0933 27.0605 35.4463C27.8515 38.0821 29.7693 40.1571 31.501 42.2098C33.1583 44.2203 35.4028 45.6358 37.6905 46.8275C39.6975 47.774 41.861 48.4018 44.0483 48.7956C44.9353 48.1171 46.5015 45.5945 47.8855 46.6583C47.951 47.8535 45.1388 49.1568 47.753 49.0246C49.2883 48.5616 50.353 50.2121 51.6173 48.7233C52.782 50.1028 56.4583 47.8418 55.6295 50.6618C54.509 51.3848 52.8745 50.9478 51.7523 51.9423C49.9015 51.018 48.4283 52.7695 46.3795 52.548C44.1043 52.9555 41.7895 53.1201 39.4828 53.1236C35.6985 52.8246 31.834 52.6986 28.234 51.3811C26.206 50.7918 24.2268 49.6368 22.4445 48.4815ZM25.6405 49.8663C27.6208 50.7228 29.5573 51.6253 31.7275 51.8975C35.1708 52.3765 38.7265 53.113 42.182 52.4413C40.618 51.735 39.0013 52.7163 37.443 51.9363C35.5745 52.3383 33.569 51.8338 31.6695 51.5853C29.509 50.6231 27.1778 49.9615 25.1548 48.7123C22.6268 47.789 26.462 49.8966 27.1448 50.0671C28.725 50.9641 25.407 49.6073 24.9393 49.2346C23.6158 48.4921 23.447 48.6473 24.8083 49.4013C25.0823 49.5615 25.3533 49.7298 25.6405 49.8663ZM21.8723 47.2033C23.7913 47.9143 21.8638 45.854 20.9845 45.9735C20.5948 45.2978 19.496 44.8708 20.2713 44.5075C18.8768 44.9918 18.8105 42.6668 18.155 42.9991C16.68 42.5333 17.581 40.8831 15.8238 39.8698C15.6633 38.8021 14.078 37.876 13.5723 36.2655C13.349 35.441 11.7813 33.073 12.7443 35.2768C13.5643 37.3983 15.007 39.215 16.2078 41.0295C17.1403 42.7573 18.241 44.563 19.939 45.641C20.5115 46.19 21.064 47.0313 21.8723 47.2033ZM16.344 41.1338C16.695 41.7611 16.411 40.8441 16.344 41.1338ZM24.1705 48.0555C24.5955 47.8653 23.5593 47.8158 24.1705 48.0555ZM25.2123 48.4356C25.1043 47.9108 24.7365 48.7288 25.2123 48.4356ZM26.516 48.9793C27.1368 48.3883 25.5593 48.6068 26.516 48.9793ZM28.751 50.225C29.1283 49.6673 27.5435 50.0145 28.751 50.225ZM24.4595 47.2333C25.4235 46.6095 23.214 47.2248 24.4595 47.2333ZM25.4375 47.7211C25.4103 47.3913 25.089 47.8688 25.4375 47.7211ZM30.3265 50.7725C31.1123 51.2685 34.9158 51.8595 32.5343 50.9758C32.1358 51.0598 28.118 49.8395 30.3265 50.7725ZM22.5653 44.7278C22.4888 44.397 21.3453 44.3628 22.5653 44.7278ZM24.8413 46.0543C25.4335 45.6413 23.6118 45.7355 24.8413 46.0543ZM26.7555 47.2281C27.6055 46.9076 25.3768 46.9061 26.7555 47.2281ZM21.639 43.7193C22.5615 44.4265 25.3583 43.8098 23.0515 43.2971C22.0015 42.7373 19.635 42.3543 21.248 43.6345L21.639 43.7193ZM28.0523 47.6333C28.4363 46.9788 26.4413 47.2596 28.0523 47.6333ZM26.1035 46.0845C28.3585 46.7225 24.2073 44.6586 25.547 45.8498L25.844 45.9843L26.1035 46.0845ZM30.0105 48.3428C32.1463 48.3633 28.0815 48.0483 30.0105 48.3428ZM20.8173 42.4836C20.734 42.0858 20.2903 42.5171 20.8173 42.4836ZM33.623 50.3693C33.68 49.6508 32.9263 50.9038 33.623 50.3693ZM24.462 44.7155C24.3328 44.3373 23.7945 44.7 24.462 44.7155ZM21.02 42.2341C22.246 42.1603 19.3413 41.6938 21.02 42.2341ZM16.9425 39.5983C16.79 39.0106 15.6083 38.5418 16.9425 39.5983ZM27.647 46.3918C27.5413 46.4478 27.4223 46.1355 27.647 46.3918ZM34.3098 50.4805C34.2885 50.089 33.947 50.6285 34.3098 50.4805ZM27.0573 45.7828C27.1773 45.2785 26.0118 45.63 27.0573 45.7828ZM22.0935 42.6371C23.0058 42.5393 20.6323 42.0203 22.0935 42.6371ZM30.49 47.8545C31.9115 47.2913 29.1048 47.5795 30.49 47.8545ZM26.1225 44.8898C27.7608 45.1011 24.1733 43.7755 25.763 44.771L26.1225 44.8898ZM31.816 48.3905C33.3455 47.476 32.8413 50.5315 34.411 48.6485C35.9593 47.518 33.0738 50.0463 34.982 48.8503C36.362 47.9273 38.4003 49.2878 39.688 49.7315C40.614 49.686 41.514 50.5323 42.4635 50.0176C44.2908 49.5253 38.89 49.2875 40.3058 48.4143C38.6335 48.9008 37.3983 47.8341 36.5755 46.7631C34.6998 46.3298 32.5313 45.371 31.5953 43.7113C31.2135 43.088 32.1465 43.7991 31.2658 42.7803C30.1355 41.7751 29.5713 40.634 28.8125 39.412C27.906 38.9285 27.8005 37.5053 27.709 39.3643C27.716 38.191 26.6145 37.4013 26.3458 37.7295C26.341 36.5998 27.5245 37.1661 26.696 36.3301C26.5178 35.1591 25.9305 33.9385 25.754 32.6163C25.4798 31.979 25.7153 30.6141 24.818 32.0568C24.491 33.5818 24.7095 30.183 25.2178 31.3038C25.8853 30.16 24.9783 30.2946 24.9413 30.4533C25.3758 29.4886 25.2163 28.1198 24.8278 28.6418C25.0593 27.619 25.1938 24.8781 24.481 25.3638C24.913 24.2943 25.3003 20.47 23.425 21.928C22.665 21.9388 21.3493 22.204 20.727 22.5133C22.6775 23.5883 20.531 22.9015 19.737 22.7308C19.6335 23.7258 18.847 23.2953 17.8645 23.305C19.4338 23.4993 17.1005 24.91 16.2003 24.362C15.031 24.9208 17.2093 26.3155 16.2235 26.7468C16.3448 27.397 14.4325 26.512 14.5828 28.0135C13.4478 27.536 14.4265 29.7945 14.9943 29.0308C16.9248 29.5533 16.3533 30.7443 16.4025 31.8758C16.0878 32.5353 14.8495 30.326 16.1265 30.4285C15.119 28.7918 15.012 29.8368 14.1748 30.5973C13.98 30.6523 16.3105 31.679 14.848 32.1868C16.1345 32.3853 16.1713 33.511 16.433 34.2235C17.2065 35.029 17.048 33.3343 17.9735 34.302C17.388 33.4398 14.872 31.8723 16.8978 32.375C16.887 31.507 16.5313 30.8073 17.152 30.8243C17.7665 29.7113 16.5083 33.5685 17.8935 32.154C18.277 31.9865 18.372 31.0396 19.0615 32.2433C20.0625 33.2283 19.423 33.9421 18.0108 33.0401C18.2633 33.8973 19.9 34.2035 19.5925 35.544C19.9185 36.7228 20.3748 36.2888 20.7723 36.2206C21.0843 37.3661 21.2613 36.5238 21.276 35.9785C22.7043 36.2843 22.3698 37.1285 22.8165 37.7183C23.8005 38.1625 21.408 34.7073 23.0975 36.6793C24.875 38.2843 23.764 38.9543 22.169 38.697C23.1785 38.6155 23.504 40.062 24.767 40.0113C25.9185 40.559 26.6983 42.6633 24.7133 41.7873C24.0248 41.1666 21.5883 40.4008 23.5783 41.5816C25.4163 42.4326 26.876 42.9418 28.6488 44.01C29.9173 44.9158 30.4653 45.953 30.9463 46.1583C29.88 46.6675 27.733 45.7518 29.3273 45.4711C28.333 45.2901 27.2145 44.7871 28.167 46.0261C28.9768 46.7023 31.0363 46.6306 31.4055 46.7071C31.0925 47.3968 30.5555 47.4516 31.4183 47.5051C30.4558 48.0181 31.7268 48.0973 31.816 48.3905ZM29.8478 42.8321C29.262 42.2196 29.1108 41.0723 29.7438 42.0705C30.0683 42.2008 30.7838 43.9451 29.8478 42.8321ZM36.258 46.9038C36.6233 46.8801 36.2685 47.1813 36.258 46.9038ZM28.923 41.3303C29.1348 42.0443 28.9005 40.4043 28.923 41.3303ZM28.286 40.473C29.2145 40.876 27.5493 39.0498 28.286 40.473ZM20.5653 35.1443C20.998 35.0288 20.7783 35.8845 20.5653 35.1443ZM26.71 38.4748C27.0223 39.3123 26.9758 37.4768 26.71 38.4748ZM22.369 35.4566C23.009 35.9731 22.063 34.9058 22.369 35.4566ZM26.0945 36.6508C25.3965 35.087 26.5885 35.7966 26.2488 36.9071L26.0945 36.6508ZM19.6698 32.3661C19.3578 31.8533 18.8418 30.348 19.0078 29.8885C19.1583 30.6368 20.5993 33.1088 19.7148 30.9125C18.7373 29.0716 20.883 31.5103 21.1038 31.9693C21.2065 32.4263 20.5008 31.8445 20.9788 32.9158C20.1068 31.6963 20.464 33.5893 19.6698 32.3661ZM17.6843 30.998C18.1388 31.8158 17.766 29.8053 17.6843 30.998ZM18.5775 31.3053C19.3 32.5603 19.0035 30.4053 18.5775 31.3053ZM16.429 29.6433C15.6898 28.9088 15.1548 28.2318 16.4635 29.1875C16.9678 29.2073 15.3433 27.6475 16.585 28.6923C17.8908 28.9303 17.23 30.8333 16.429 29.6433ZM17.5575 29.6138C17.9868 29.1886 17.7855 30.0328 17.5575 29.6138ZM18.252 29.8365C19.042 30.348 17.601 28.6165 18.252 29.8365ZM16.8715 28.5173C14.7225 26.6048 19.5718 29.5173 17.2225 28.8718L16.8715 28.5173ZM23.0288 32.0948C22.0988 31.5373 22.7823 28.1693 23.0993 30.4728C24.0035 30.1803 23.0493 31.6623 23.7238 31.6486C23.6175 32.5836 23.3158 32.9198 23.0288 32.0948ZM25.306 33.4408C25.498 34.1348 25.3973 32.4258 25.306 33.4408ZM24.9105 33.0498C25.013 32.6163 24.921 33.5606 24.9105 33.0498ZM17.293 27.8888C15.9125 25.984 21.3055 29.8155 18.1773 28.372C17.8505 28.2865 17.4573 28.256 17.293 27.8888ZM21.6785 30.2141C21.9703 30.4798 21.548 28.6103 21.6785 30.2141ZM25.0083 32.35C25.2658 31.4363 25.0275 32.9543 25.0083 32.35ZM17.5045 27.1618C18.325 26.9863 20.905 28.6031 18.5358 27.6236C18.2725 27.3323 17.7113 27.4646 17.5045 27.1618ZM24.5508 30.6738C24.6383 29.0338 25.0405 29.6941 24.5538 30.9086L24.5508 30.6738ZM18.1153 26.5913C18.4498 26.1008 17.2278 24.3738 18.2915 25.9718C18.751 26.337 19.622 26.5835 18.853 26.7373C20.0625 27.8043 18.5578 27.0263 18.1153 26.5913ZM24.2023 30.1616C24.4333 28.2933 24.406 31.2561 24.2023 30.1616ZM17.4173 24.8658C17.6723 24.7565 17.552 25.206 17.4173 24.8658ZM19.0048 25.8108C19.7585 26.767 19.4135 24.9533 19.0048 25.8108ZM23.4833 28.302C23.5678 28.781 23.479 27.9728 23.4833 28.302ZM23.224 27.7278C23.8023 28.5398 22.6023 26.1943 23.224 27.7278ZM22.8423 26.7223C23.1968 27.5183 22.738 26.0885 22.8423 26.7223ZM23.4635 25.7125C23.0368 24.9608 24.002 22.4001 24.1098 23.9883C23.6598 25.2258 23.9798 25.918 24.294 24.2583C24.874 22.9518 24.1688 26.836 23.4635 25.7125ZM24.1018 21.904C24.2878 21.6758 24.143 22.179 24.1018 21.904ZM23.0358 42.9095C23.0675 43.05 22.783 42.6888 23.0358 42.9095ZM25.2318 44.0205C26.4533 44.3338 26.447 43.8303 25.343 43.6808C24.7493 43.1283 22.8755 42.5426 24.5525 43.6123C24.6638 43.8936 25.0145 43.887 25.2318 44.0205ZM20.8948 41.1398C21.5678 41.6416 23.4298 42.562 21.8535 41.3308C22.3848 40.7133 20.8363 40.3848 21.35 39.9718C20.0433 39.1723 20.3193 39.2433 21.2345 39.2686C19.6645 38.5666 21.4613 38.619 21.3768 38.2595C20.7713 38.1398 18.3693 37.1918 19.7823 38.3373C18.3458 37.605 19.4398 38.6103 19.0058 38.5041C17.537 38.1033 20.314 39.6225 18.7725 39.2455C19.615 39.9133 21.0408 40.9561 19.1288 39.9523C18.8768 40.3148 20.497 40.8646 20.8948 41.1398ZM23.1915 42.4593C25.9843 43.3591 21.8223 41.3598 23.1915 42.4593ZM34.9488 49.5818C34.9848 49.0278 34.5673 50.0545 34.9488 49.5818ZM36.1573 50.0905C36.8015 49.466 36.1835 51.085 37.225 49.9375C37.2363 49.1163 37.1928 48.631 36.0283 49.6288C35.7073 49.8068 35.564 50.5638 36.1573 50.0905ZM16.9748 38.0435C16.7768 37.2655 15.5878 37.2695 16.9748 38.0435ZM18.265 38.889C17.786 38.0945 16.5553 38.1698 18.265 38.889ZM25.606 43.3163C26.3228 43.9528 28.898 43.7833 26.4768 43.3946C26.118 42.8643 24.1995 42.992 25.606 43.3163ZM35.6978 49.5485C36.8008 48.623 34.6288 49.9615 35.6978 49.5485ZM37.9918 51.125C37.9988 50.828 37.5165 51.2553 37.9918 51.125ZM37.9955 50.7093C39.217 49.4151 36.8118 50.7858 37.9955 50.7093ZM13.801 35.3863C12.7598 33.9008 13.1535 33.233 12.1498 32.0203C11.9598 31.0928 10.4273 28.9878 11.3573 31.2178C12.2088 32.5218 12.462 34.541 13.801 35.3863ZM37.6123 50.2978C39.8595 48.8453 36.6898 49.665 37.6123 50.2978ZM39.3278 50.9701C40.4533 50.0036 38.616 50.7678 39.3278 50.9701ZM16.5923 36.4016C16.9143 35.9223 15.7603 36.3401 16.5923 36.4016ZM38.9695 50.5111C40.0593 49.8086 38.7185 49.9163 38.772 50.5758L38.9695 50.5111ZM24.1813 41.19C24.1438 40.7155 23.606 41.2303 24.1813 41.19ZM25.0953 41.7158C24.8048 41.1286 24.6488 41.8081 25.0953 41.7158ZM40.718 50.9858C42.114 49.9788 39.8718 50.793 40.425 51.1765L40.718 50.9858ZM40.1835 50.7276C41.3208 49.7746 38.9828 51.1498 40.1835 50.7276ZM42.9148 52.5463C43.6783 52.035 41.987 52.3808 42.9148 52.5463ZM17.2923 36.0558C18.316 36.2853 21.3825 38.5765 19.5735 36.2143C18.6468 35.94 19.2025 33.675 18.2575 34.076C18.8918 35.1358 18.7793 35.5868 17.4475 34.9188C15.7735 34.1016 16.5068 35.3235 16.8338 35.6605C16.388 35.7618 17.4235 36.0473 17.2923 36.0558ZM12.6295 32.3733C12.8128 31.6155 10.9423 28.204 11.7463 30.664C12.0363 31.1793 12.007 32.1558 12.6295 32.3733ZM21.188 37.6498C21.163 37.5875 20.661 37.209 21.188 37.6498ZM22.486 37.952C22.4853 37.149 21.0513 37.626 22.486 37.952ZM33.7328 45.042C33.5183 44.4935 32.8848 45.0293 33.7328 45.042ZM34.2728 45.4366C34.193 45.1296 33.9613 45.4958 34.2728 45.4366ZM38.7305 48.2443C39.1593 47.9276 38.1955 48.2041 38.7305 48.2443ZM14.9588 32.968C16.185 32.493 13.6448 32.6293 14.9588 32.968ZM32.7425 44.1721C32.729 43.3781 31.9608 44.3688 32.7425 44.1721ZM14.4743 31.8388C15.2618 31.5728 13.7455 31.6636 14.4743 31.8388ZM16.7605 32.9465C16.7463 32.6855 16.5188 33.0453 16.7605 32.9465ZM44.6483 50.0476C45.6613 49.8423 47.9695 50.563 48.3428 49.779C47.1125 49.749 44.0868 48.911 43.9435 49.979L44.213 50.0213L44.6483 50.0476ZM17.4873 33.1296C17.5048 32.3251 16.8598 33.0996 17.4873 33.1296ZM11.4758 28.9595C11.2025 27.4265 10.4373 28.7275 11.4758 28.9595ZM12.9093 29.3198C12.9268 28.8275 11.597 28.8768 12.9093 29.3198ZM13.7285 29.722C13.543 29.9645 13.4915 29.5303 13.7285 29.722ZM18.8833 33.0288C19.1258 32.8061 18.3085 32.8638 18.8833 33.0288ZM13.1825 28.8148C13.044 27.6571 11.5223 28.6413 13.1825 28.8148ZM10.2435 26.9078C10.2018 26.3733 9.95702 27.1093 10.2435 26.9078ZM10.6808 26.5775C10.6093 25.944 10.3053 26.658 10.6808 26.5775ZM13.0963 28.0193C14.1175 27.6181 11.2358 27.1896 12.8875 27.9436L13.0963 28.0193ZM45.4233 47.9873C46.077 47.3881 44.5925 47.8021 45.4233 47.9873ZM49.3288 50.0118C49.5908 49.2368 48.669 50.1138 49.3288 50.0118ZM13.3433 26.7533C13.4508 26.0038 12.5333 26.902 13.3433 26.7533ZM9.90677 24.4508C9.72202 23.3925 9.74727 21.5348 11.513 22.1625C9.15602 22.6305 13.1445 25.0923 12.6408 23.1488C13.632 23.1973 14.5798 22.563 14.0595 23.5255C16.0123 23.3098 17.3663 21.6165 19.2525 21.8538C20.7218 21.6593 22.3283 21.5118 23.9115 20.9205C25.2133 20.8265 26.4665 19.425 25.753 18.5943C23.9778 18.4443 22.1193 18.6663 20.157 19.0563C17.9828 19.5083 16.0078 20.367 13.8138 20.7358C11.6753 21.023 14.2438 21.527 13.6313 21.6395C12.5155 22.0265 14.962 22.2878 13.4868 22.6958C12.5755 22.5225 11.627 22.2096 12.0163 21.2493C9.96777 21.515 8.16802 22.3653 9.78627 24.4498L9.90677 24.4508ZM14.8425 21.937C15.3228 20.1675 17.4158 23.3928 15.63 22.1721C15.4165 22.0123 15.0658 21.882 14.8425 21.937ZM14.936 21.0791C15.6293 20.5628 15.3045 21.3686 14.936 21.0791ZM15.816 21.0931C15.8788 20.279 17.831 21.524 16.138 21.3863L15.816 21.0931ZM17.0203 20.609C17.46 20.0953 17.1465 21.066 17.0203 20.609ZM17.3283 20.4028C18.0603 19.523 21.4743 19.8413 18.9755 20.317C18.3055 19.8128 17.7923 20.6143 17.328 20.4028H17.3283ZM21.7835 19.716C23.997 20.5698 21.6723 17.313 21.7835 19.716ZM23.0478 19.709C23.51 18.498 24.8413 19.223 23.2615 19.4658C23.296 19.5945 23.2153 20.0908 23.0478 19.709ZM12.8448 26.1318C14.2258 25.286 11.3788 25.398 12.8448 26.1318ZM13.8658 26.4153C14.35 25.9006 12.8138 26.2066 13.8658 26.4153ZM10.8573 24.2803C11.6463 23.6741 9.92352 24.0498 10.8573 24.2803ZM51.634 49.7903C51.657 49.087 51.031 50.107 51.634 49.7903ZM47.4908 46.9626C47.6085 46.1531 46.9583 47.0333 47.4908 46.9626ZM52.7735 50.0628C53.8768 50.0666 56.1163 49.7203 53.7158 49.7213C53.339 49.78 51.521 49.7676 52.7735 50.0628ZM14.764 25.9191C15.6568 25.8578 16.161 24.934 14.5915 24.9873C12.1588 24.7355 16.7375 25.8203 14.279 25.51C13.949 25.7288 14.7448 25.9796 14.764 25.9191ZM15.5503 26.317C15.457 25.7438 15.2743 26.6218 15.5503 26.317ZM16.483 23.8298C16.8705 23.3493 15.947 23.7013 16.483 23.8298ZM13.5138 18.8663C15.1073 18.3243 17.2863 17.715 18.0388 19.1333C17.273 18.2115 17.7298 17.3043 18.4528 18.6518C19.4755 20.0153 19.9875 18.0318 19.3223 17.5743C20.0803 18.5163 20.9423 18.9613 19.8298 17.634C21.039 16.1795 17.409 17.8243 16.584 17.8078C16.187 17.986 12.4855 18.7518 13.5138 18.8663ZM14.4475 17.0778C15.3563 16.3918 17.5908 17.4858 16.157 16.396C16.0168 16.2723 13.017 17.2223 14.4475 17.0778ZM17.7608 17.2145C18.8243 17.2418 17.302 15.7858 18.5693 16.4455C18.3613 15.7655 17.0938 15.638 16.4743 15.3665C16.1235 15.988 17.1875 17.2228 17.7608 17.2145ZM15.0285 14.207C15.3965 13.7083 14.3835 14.4598 15.0285 14.207ZM16.3828 14.531C18.0968 14.3038 15.9458 13.793 16.0373 14.5128L16.3828 14.531ZM13.8543 12.5528C12.6473 10.9773 16.1238 12.8175 14.8978 11.1678C13.8658 10.3463 12.874 12.0928 13.8543 12.5528ZM29.3423 20.8951C29.8958 19.9138 27.057 19.5726 28.9693 20.5473C29.1455 20.6061 29.1055 20.9631 29.3423 20.8951Z" fill="black"/>
</g>
<defs>
<clipPath id="clip0_1126_1928">
<rect width="64" height="64" fill="white"/>
</clipPath>
</defs>
</svg>
