<svg width="64" height="64" viewBox="0 0 64 64" fill="none" xmlns="http://www.w3.org/2000/svg">
<g clip-path="url(#clip0_1126_2048)">
<path d="M49 0H15C6.71573 0 0 6.71573 0 15V49C0 57.2843 6.71573 64 15 64H49C57.2843 64 64 57.2843 64 49V15C64 6.71573 57.2843 0 49 0Z" fill="#F03C2E"/>
<mask id="mask0_1126_2048" style="mask-type:luminance" maskUnits="userSpaceOnUse" x="7" y="7" width="50" height="50">
<path d="M7 7H57V57H7V7Z" fill="white"/>
</mask>
<g mask="url(#mask0_1126_2048)">
<path d="M56.0559 29.7734L34.2262 7.94367C33.7761 7.49307 33.2024 7.18618 32.5778 7.06187C31.9532 6.93757 31.3057 7.00145 30.7174 7.24542C30.3269 7.4073 29.972 7.64457 29.6732 7.94367L25.1419 12.4749L30.8919 18.2249C32.2294 17.7562 33.7607 18.0764 34.8262 19.1422C35.3334 19.6504 35.6875 20.2909 35.848 20.9908C36.0085 21.6906 35.969 22.4215 35.7339 23.0999L41.2762 28.6422C42.6169 28.1797 44.1637 28.4779 45.2339 29.5514C45.77 30.0873 46.1351 30.7702 46.2829 31.5137C46.4307 32.2571 46.3546 33.0277 46.0642 33.7279C45.6749 34.6667 44.9287 35.4124 43.9898 35.8012C43.0508 36.1899 41.9959 36.1899 41.0569 35.8012C40.5919 35.6084 40.1694 35.3262 39.8137 34.9702C38.6887 33.8452 38.4107 32.1889 38.9794 30.8029L33.8107 25.6342V39.2359C34.1859 39.4215 34.5288 39.6663 34.8262 39.9609C35.5448 40.6795 35.9485 41.6541 35.9485 42.6703C35.9485 43.6865 35.5448 44.6611 34.8262 45.3797C34.1076 46.0982 33.133 46.5019 32.1168 46.5019C31.1006 46.5019 30.126 46.0982 29.4074 45.3797C28.8711 44.844 28.5058 44.1613 28.3578 43.4179C28.2098 42.6745 28.2857 41.9039 28.5759 41.2037C28.7686 40.7387 29.0512 40.3164 29.4074 39.9609C29.7777 39.5922 30.1887 39.3124 30.6622 39.1249V25.3967C30.1924 25.2046 29.7657 24.9204 29.4074 24.5609C28.8695 24.0235 28.5037 23.3381 28.3568 22.592C28.2098 21.8459 28.2884 21.0729 28.5824 20.3717L22.9107 14.7032L7.94195 29.6562C7.49132 30.1065 7.1844 30.6804 7.06002 31.3052C6.93564 31.93 6.99938 32.5776 7.2432 33.1662C7.40522 33.5569 7.64266 33.912 7.94195 34.2109L29.7732 56.0389C30.0721 56.338 30.4269 56.5752 30.8174 56.7372C31.6065 57.0638 32.4929 57.0638 33.2819 56.7372C33.6725 56.5752 34.0273 56.338 34.3262 56.0389L56.0559 34.3437C56.3551 34.0447 56.5925 33.6897 56.7545 33.2989C56.9164 32.9082 56.9999 32.4894 56.9999 32.0664C57 31.6434 56.9166 31.2245 56.7546 30.8337C56.5926 30.4429 56.3552 30.0879 56.0559 29.7889" fill="white"/>
</g>
</g>
<defs>
<clipPath id="clip0_1126_2048">
<rect width="64" height="64" fill="white"/>
</clipPath>
</defs>
</svg>
