<svg width="64" height="64" viewBox="0 0 64 64" fill="none" xmlns="http://www.w3.org/2000/svg">
<g clip-path="url(#clip0_1126_1936)">
<path d="M49 0H15C6.71573 0 0 6.71573 0 15V49C0 57.2843 6.71573 64 15 64H49C57.2843 64 64 57.2843 64 49V15C64 6.71573 57.2843 0 49 0Z" fill="#F4F2ED"/>
<path d="M32.0003 7.5C18.1948 7.5 7 18.6925 7 32.5003C7 43.546 14.1632 52.917 24.0968 56.2228C25.346 56.4543 25.8048 55.6805 25.8048 55.0202C25.8048 54.424 25.7815 52.4547 25.7708 50.3657C18.8158 51.878 17.3482 47.416 17.3482 47.416C16.2107 44.5263 14.5723 43.758 14.5723 43.758C12.304 42.2062 14.7432 42.2383 14.7432 42.2383C17.2537 42.4145 18.5758 44.8145 18.5758 44.8145C20.8055 48.6365 24.4243 47.5315 25.8507 46.8927C26.0752 45.2767 26.723 44.174 27.438 43.5498C21.885 42.9175 16.048 40.7738 16.048 31.1945C16.048 28.465 17.0245 26.2347 18.6238 24.484C18.364 23.8542 17.5082 21.3115 18.8657 17.868C18.8657 17.868 20.9653 17.196 25.7428 20.4305C27.737 19.8768 29.8755 19.599 32.0003 19.5895C34.1248 19.599 36.2653 19.8767 38.263 20.4307C43.0348 17.196 45.1312 17.8682 45.1312 17.8682C46.492 21.3115 45.636 23.8545 45.3763 24.484C46.9793 26.2347 47.9492 28.465 47.9492 31.1945C47.9492 40.7968 42.1007 42.911 36.5337 43.5298C37.4305 44.3058 38.2295 45.827 38.2295 48.1595C38.2295 51.5045 38.2005 54.1967 38.2005 55.0202C38.2005 55.6855 38.6505 56.465 39.9178 56.2195C49.8458 52.91 57 43.5423 57 32.5003C57 18.6928 45.8068 7.5 32.0003 7.5ZM16.3635 43.1133C16.3085 43.2375 16.113 43.2747 15.935 43.1895C15.7535 43.108 15.6517 42.9385 15.7105 42.814C15.7642 42.686 15.9603 42.6505 16.141 42.7363C16.3228 42.8178 16.4263 42.9888 16.3635 43.1133ZM17.5933 44.2105C17.474 44.3212 17.2408 44.2698 17.0828 44.095C16.9193 43.9208 16.8885 43.6878 17.0095 43.5755C17.1323 43.465 17.3585 43.5168 17.5222 43.691C17.6857 43.8675 17.7178 44.0987 17.5933 44.2105ZM18.4368 45.6145C18.2835 45.721 18.033 45.6213 17.8783 45.3988C17.725 45.1765 17.725 44.91 17.8815 44.803C18.0368 44.6963 18.2835 44.7923 18.4405 45.013C18.5933 45.239 18.5933 45.5057 18.4368 45.6145ZM19.8635 47.2405C19.7265 47.3915 19.4348 47.351 19.221 47.1447C19.0025 46.9432 18.9415 46.6573 19.079 46.506C19.2178 46.3545 19.5112 46.3972 19.7265 46.6017C19.9435 46.8027 20.0098 47.091 19.8635 47.2405ZM21.7075 47.7892C21.647 47.9852 21.366 48.0743 21.0828 47.991C20.8003 47.9053 20.615 47.676 20.6723 47.478C20.731 47.281 21.0133 47.1882 21.2985 47.2772C21.581 47.3625 21.7663 47.5902 21.7075 47.7892ZM23.806 48.0223C23.813 48.2283 23.573 48.3992 23.2757 48.403C22.9767 48.4097 22.735 48.2428 22.7318 48.04C22.7318 47.8318 22.9665 47.6625 23.2652 47.6575C23.5627 47.6518 23.806 47.8173 23.806 48.0223ZM25.8675 47.9432C25.9033 48.1442 25.6968 48.351 25.4015 48.406C25.1113 48.459 24.8425 48.3348 24.8057 48.1353C24.7697 47.929 24.98 47.7225 25.2698 47.669C25.5655 47.6177 25.83 47.7387 25.8675 47.9432Z" fill="#161614"/>
</g>
<defs>
<clipPath id="clip0_1126_1936">
<rect width="64" height="64" fill="white"/>
</clipPath>
</defs>
</svg>
