<svg width="64" height="64" viewBox="0 0 64 64" fill="none" xmlns="http://www.w3.org/2000/svg">
<g clip-path="url(#clip0_1126_2179)">
<path d="M49 0H15C6.71573 0 0 6.71573 0 15V49C0 57.2843 6.71573 64 15 64H49C57.2843 64 64 57.2843 64 49V15C64 6.71573 57.2843 0 49 0Z" fill="#242938"/>
<g opacity="0.783">
<path d="M28.455 13.5277L13.6112 28.7028C8.01169 34.3023 17.2559 33.8384 20.6024 35.959C22.1596 36.953 15.6324 38.2452 16.9577 39.6036C18.2499 40.929 24.7772 42.1549 26.0694 43.4471C27.3616 44.7724 23.4518 46.164 24.744 47.5225C26.0031 48.8478 29.0182 47.5888 29.5484 50.6039C29.946 52.8238 35.0816 51.7304 37.401 49.8087C38.8257 48.5828 34.916 48.5828 36.2082 47.2574C39.4552 43.9772 42.3378 45.7664 43.4975 42.7513C44.1602 41.1278 38.5938 39.9681 40.0848 38.941C43.63 36.456 56.552 35.1969 50.588 29.2329L35.2473 13.5277C33.3256 11.7385 30.211 11.7385 28.455 13.5277ZM45.4524 42.7513C45.4524 43.5134 51.317 43.9441 50.9856 42.5856C50.5218 40.2663 46.0819 40.4651 45.4524 42.7513ZM20.4698 46.7604C21.7952 47.9201 23.8163 46.4954 24.4458 44.905C23.1536 43.182 18.3824 44.9712 20.4698 46.7604ZM44.7234 44.3417C43.0668 45.8658 45.0216 47.4231 46.6452 46.396C47.0759 46.0978 46.612 44.7062 44.7234 44.3417Z" fill="white"/>
<path opacity="0.576" d="M28.455 13.859L13.6112 29.0341C8.01169 34.6667 17.2559 34.2029 20.6024 36.3234C22.1596 37.3174 15.6324 38.6096 16.9577 39.9681C18.2499 41.2934 24.7772 42.5193 26.0694 43.8115C27.3616 45.1369 23.4518 46.5285 24.744 47.8869C26.0031 49.2123 29.0182 47.9532 29.5484 50.9683C29.946 53.1883 35.0816 52.0949 37.401 50.1731C38.8257 48.9472 34.916 48.9472 36.2082 47.6219C39.4552 44.3417 42.3378 46.1309 43.4975 43.1157C44.1602 41.4922 38.5938 40.3325 40.0848 39.3054C43.5969 36.8204 56.552 35.5613 50.588 29.5973L35.2473 13.859C33.3256 12.0698 30.211 12.0698 28.455 13.859ZM45.4524 43.1157C45.4524 43.8778 51.317 44.3085 50.9856 42.9501C50.5218 40.6307 46.0819 40.7964 45.4524 43.1157ZM20.4698 47.0917C21.7952 48.2514 23.8163 46.8267 24.4458 45.2363C23.1536 43.5465 18.3824 45.3357 20.4698 47.0917ZM44.7234 44.7061C43.0668 46.2303 45.0216 47.7875 46.6452 46.7604C47.0759 46.4622 46.612 45.0375 44.7234 44.7061Z" fill="white"/>
</g>
<path d="M28.455 13.1671L13.6112 28.3422C8.01169 33.9417 17.2559 33.4778 20.6024 35.5984C22.1596 36.5924 15.6324 37.8846 16.9577 39.243C18.2499 40.5684 24.7772 41.7943 26.0694 43.0865C27.3616 44.4118 23.4518 45.8034 24.744 47.1619C26.0031 48.4872 29.0182 47.2282 29.5484 50.2433C29.946 52.4632 35.0816 51.3698 37.401 49.4481C38.8257 48.2222 34.916 48.2222 36.2082 46.8968C39.4552 43.6166 42.3378 45.4058 43.4975 42.3907C44.1602 40.7672 38.5938 39.6075 40.0848 38.5804C43.5969 36.0954 56.552 34.8363 50.588 28.8723L35.2473 13.1671C33.3256 11.3779 30.211 11.3779 28.455 13.1671ZM45.4524 42.3907C45.4524 43.1528 51.317 43.5835 50.9856 42.225C50.5218 39.9388 46.0819 40.1045 45.4524 42.3907ZM20.4698 46.3998C21.7952 47.5595 23.8163 46.1348 24.4458 44.5444C23.1536 42.8214 18.3824 44.6438 20.4698 46.3998ZM44.7234 43.9811C43.0668 45.5052 45.0216 47.0625 46.6452 46.0354C47.0759 45.7372 46.612 44.3456 44.7234 43.9811Z" fill="white"/>
<mask id="mask0_1126_2179" style="mask-type:luminance" maskUnits="userSpaceOnUse" x="12" y="12" width="40" height="40">
<path d="M28.5294 13.5047L13.9834 28.4118C8.46714 33.9281 17.5296 33.4684 20.8131 35.537C22.3236 36.5221 15.9535 37.8027 17.2341 39.1161C18.5147 40.4295 24.8847 41.6115 26.1653 42.8921C27.4458 44.2055 23.6041 45.5846 24.8519 46.8652C26.0996 48.1786 29.0548 46.9308 29.5801 49.886C29.9741 52.0859 35.0308 50.9695 37.2635 49.0979L36.1143 46.6025C39.2993 43.3846 42.1231 45.1577 43.2724 42.2026C43.8962 40.6265 38.4784 39.4772 39.9232 38.4594C43.3709 36.0296 56.0781 34.7818 50.2334 28.9372L35.1621 13.5047C33.3233 11.7644 30.2368 11.7644 28.5294 13.5047V13.5047ZM25.016 36.3579C25.3444 36.3579 35.8845 37.7698 31.8129 38.8534C30.2697 39.2802 23.1444 36.3579 25.016 36.3579ZM45.2097 42.2026C45.2097 42.9578 50.9558 43.3518 50.6603 42.0384C50.2006 39.7728 45.8335 39.9698 45.2097 42.2026V42.2026ZM20.6818 46.1428C21.9952 47.2592 23.9653 45.8801 24.5892 44.304C23.3415 42.6294 18.646 44.4025 20.6818 46.1428ZM44.5201 43.7786C42.9112 45.2562 44.8156 46.7995 46.3917 45.7816C46.7857 45.4861 46.326 44.107 44.5201 43.7786Z" fill="white"/>
</mask>
<g mask="url(#mask0_1126_2179)">
<path d="M28.5294 13.5047L13.9834 28.4118C8.46714 33.9281 17.5296 33.4684 20.8131 35.537C22.3236 36.5221 15.9535 37.8027 17.2341 39.1161C18.5147 40.4295 24.8847 41.6115 26.1653 42.8921C27.4458 44.2055 23.6041 45.5846 24.8519 46.8652C26.0996 48.1786 29.0548 46.9308 29.5801 49.886C29.9741 52.0859 35.0308 50.9695 37.2635 49.0979L36.1143 46.6025C39.2993 43.3846 42.1231 45.1577 43.2724 42.2026C43.8962 40.6265 38.4784 39.4772 39.9232 38.4594C43.3709 36.0296 56.0781 34.7818 50.2334 28.9372L35.1621 13.5047C33.3233 11.7644 30.2368 11.7644 28.5294 13.5047ZM25.016 36.3579C25.3444 36.3579 35.8845 37.7698 31.8129 38.8534C30.2697 39.2802 23.1444 36.3579 25.016 36.3579ZM45.2097 42.2026C45.2097 42.9578 50.9558 43.3518 50.6603 42.0384C50.2006 39.7728 45.8335 39.9698 45.2097 42.2026ZM20.6818 46.1428C21.9952 47.2592 23.9653 45.8801 24.5892 44.304C23.3415 42.6294 18.646 44.4025 20.6818 46.1428ZM44.5201 43.7786C42.9112 45.2562 44.8156 46.7995 46.3917 45.7816C46.7857 45.4861 46.326 44.107 44.5201 43.7786Z" fill="url(#paint0_linear_1126_2179)"/>
</g>
<path opacity="0.505" d="M14.9368 29.1706C10.8945 33.1466 17.985 32.0532 23.4189 34.1737L34.6842 14.3931C32.9944 12.6371 30.8076 12.8027 29.2504 14.3931L14.9368 29.1706Z" fill="url(#paint1_linear_1126_2179)"/>
<path d="M34.3524 14.2605L40.217 20.2245C40.7471 20.7546 40.7471 21.8811 40.4489 22.2125L37.5332 19.8269L36.9699 23.3059L34.5512 22.0137L30.6415 24.4987L29.3493 19.2967L27.2619 23.836L21.9937 23.7697C20.9997 23.7697 21.1322 22.7426 22.1593 21.6823C24.2136 19.4293 28.1896 15.5527 29.4487 14.2273C30.774 12.902 33.0271 12.9683 34.3524 14.2605Z" fill="url(#paint2_linear_1126_2179)"/>
<path opacity="0.217" d="M26.3008 42.457C26.3008 42.457 26.9303 43.4179 26.8641 43.8818C26.7315 44.7764 24.8098 45.2402 25.2405 46.0354C25.6713 46.8306 27.1954 46.3668 28.4545 47.1951C29.7135 48.0234 29.3822 49.6801 30.3099 50.1108C32.0991 50.9392 36.8703 48.6861 36.6053 48.7524C36.3733 48.7855 31.9335 49.7132 30.9395 48.918C29.8129 47.9903 29.4816 47.3608 28.6201 46.7975C27.8249 46.3005 26.7315 46.0686 26.4665 45.671C26.2014 45.2402 26.9966 44.7101 27.0297 43.9149C27.096 43.3848 26.3008 42.457 26.3008 42.457Z" fill="url(#paint3_radial_1126_2179)"/>
<g opacity="0.276">
<path d="M26.3008 42.457C26.3008 42.457 26.9303 43.4179 26.8641 43.8818C26.7315 44.7764 24.8098 45.2402 25.2405 46.0354C25.6713 46.8306 27.1954 46.3668 28.4545 47.1951C29.7135 48.0234 29.3822 49.6801 30.3099 50.1108C32.0991 50.9392 36.8703 48.6861 36.6053 48.7524C28.7195 48.7855 30.2105 46.7644 27.1623 45.4059C26.7315 45.2071 26.9635 44.677 27.0297 43.8818C27.096 43.3848 26.3008 42.457 26.3008 42.457Z" fill="url(#paint4_radial_1126_2179)"/>
</g>
<path opacity="0.453" d="M39.6865 38.3152C46.7439 35.7308 49.0301 35.3664 51.3495 33.0139C48.6325 35.3001 42.9336 36.526 38.2949 38.5472L39.6865 38.3152Z" fill="url(#paint5_radial_1126_2179)"/>
<g opacity="0.512">
<path d="M39.6865 37.984C51.3163 33.8754 49.3615 33.8754 51.3495 32.6826C47.6385 34.1074 40.7468 34.2399 38.2949 38.2159L39.6865 37.984Z" fill="url(#paint6_radial_1126_2179)"/>
</g>
<path opacity="0.286" d="M49.8256 41.2642C49.8256 41.5292 49.1629 41.728 48.3015 41.728C47.4731 41.728 46.7773 41.5292 46.7773 41.2642C46.7773 40.9991 47.44 40.8003 48.3015 40.8003C49.1629 40.8003 49.8256 40.9991 49.8256 41.2642Z" fill="url(#paint7_linear_1126_2179)"/>
<g opacity="0.621">
<path d="M50.3567 41.7943C50.3567 42.3576 49.429 42.7883 48.3356 42.7883C47.2091 42.7883 46.3145 42.3244 46.3145 41.7943C46.3145 41.231 47.2422 40.8003 48.3356 40.8003C49.4621 40.8003 50.3567 41.2642 50.3567 41.7943Z" fill="url(#paint8_linear_1126_2179)"/>
</g>
<path d="M45.5527 42.3575C46.2817 43.0202 50.2577 43.3515 50.9203 42.1587C49.6281 43.0864 46.7787 42.7551 45.5527 42.3575Z" fill="url(#paint9_radial_1126_2179)"/>
<path opacity="0.286" d="M45.5526 44.5775C45.6851 44.8757 45.6189 45.207 45.3538 45.3395C45.0887 45.4721 44.7574 45.3395 44.6249 45.0745C44.4923 44.7763 44.5586 44.4449 44.8237 44.3124C45.0887 44.1467 45.4201 44.2793 45.5526 44.5775Z" fill="url(#paint10_linear_1126_2179)"/>
<g opacity="0.621">
<path d="M45.8495 44.71C46.0814 45.1407 45.9489 45.6377 45.5513 45.8365C45.1537 46.0353 44.6898 45.8365 44.4579 45.4058C44.2259 44.9751 44.3585 44.4781 44.7561 44.2793C45.1537 44.0805 45.6175 44.2793 45.8495 44.71Z" fill="url(#paint11_linear_1126_2179)"/>
</g>
<path d="M44.5586 45.9029C45.1219 46.3667 47.3087 46.3999 46.4803 45.1077C46.7123 46.1348 45.2213 46.0354 44.5586 45.9029Z" fill="url(#paint12_radial_1126_2179)"/>
<path d="M17.752 39.1105C17.752 39.0111 25.1738 41.3635 26.4329 42.6557C25.4058 41.6286 20.1044 39.3093 19.3092 39.2761C18.514 39.243 17.8514 39.1767 17.752 39.1105Z" fill="url(#paint13_radial_1126_2179)"/>
<path opacity="0.286" d="M23.3098 44.1831C23.3828 44.3541 22.8634 44.6205 22.117 44.8001C21.3706 44.9797 20.7418 44.9897 20.6688 44.8187C20.5958 44.6478 21.1152 44.3813 21.8615 44.2017C22.6079 44.0221 23.2368 44.0121 23.3098 44.1831Z" fill="url(#paint14_linear_1126_2179)"/>
<g opacity="0.621">
<path d="M23.8443 44.4051C24.0193 44.7585 23.3726 45.2391 22.4527 45.487C21.5328 45.7349 20.6082 45.6542 20.4435 45.3216C20.2686 44.9682 20.9153 44.4876 21.8352 44.2397C22.7551 43.9918 23.6694 44.0517 23.8443 44.4051Z" fill="url(#paint15_linear_1126_2179)"/>
</g>
<g opacity="0.616">
<path d="M20.1387 45.4058C20.1387 45.4058 20.5363 46.466 21.6297 46.5323C22.7562 46.5986 24.0153 45.207 24.1147 44.71C23.9159 45.1407 22.8556 46.4329 21.4971 46.3998C20.7019 46.3998 20.1387 45.4058 20.1387 45.4058Z" fill="url(#paint16_radial_1126_2179)"/>
</g>
<path d="M31.8017 12.3389C30.6752 12.3389 29.5818 12.7365 28.8197 13.5317L14.0091 28.7067C12.6507 30.0652 12.3193 30.9598 12.4187 31.4568C12.4519 31.7219 12.5844 31.9207 12.8495 32.1526C13.1145 32.3845 13.5121 32.6165 13.976 32.8153C14.9369 33.2129 16.1959 33.5442 17.455 33.8755C18.7141 34.2069 19.94 34.5713 20.8677 35.1677C21.0003 35.2671 21.1328 35.3665 21.2322 35.5322C21.3316 35.6979 21.3647 35.8967 21.3316 36.0955C21.2653 36.4599 21.0334 36.6587 20.8015 36.8244C20.3376 37.1889 19.7081 37.4539 19.0785 37.7521C18.449 38.0503 17.8195 38.3817 17.4881 38.6136C17.3225 38.7461 17.2562 38.8455 17.2893 38.8455C17.2893 38.8455 17.2562 38.7461 17.3225 38.8124C17.5213 39.0112 18.1508 39.3757 18.946 39.6739C19.7412 39.9721 20.7021 40.3034 21.6629 40.6016C22.6238 40.9329 23.6178 41.2311 24.4461 41.5625C25.2745 41.8938 25.9703 42.192 26.401 42.6559C26.6329 42.8878 26.7986 43.186 26.8317 43.4511C26.8649 43.7493 26.7986 44.0143 26.6661 44.2463C26.4341 44.7101 26.0697 45.0746 25.7715 45.4059C25.4401 45.7373 25.1419 46.0686 25.0425 46.3005C24.9763 46.3999 24.9763 46.4662 24.9763 46.5325C24.9763 46.5656 24.9763 46.6319 25.0757 46.7313C25.5064 47.1951 26.4341 47.2614 27.4944 47.4933C28.0245 47.6259 28.5878 47.7915 29.0517 48.2223C29.5155 48.653 29.88 49.2494 30.0457 50.1109C30.1119 50.4753 30.3107 50.641 30.7415 50.7735C31.2053 50.9061 31.9011 50.9392 32.6632 50.8398C34.1873 50.6079 36.0097 49.8789 37.0368 49.0175L37.1031 48.9512C37.0368 48.8849 36.8711 48.7855 36.6061 48.653C36.2747 48.4873 35.9103 48.3548 35.6121 47.9903C35.4795 47.7915 35.3801 47.5265 35.4133 47.2283C35.4464 46.9301 35.6121 46.6981 35.8109 46.4993C37.5338 44.7764 39.1905 44.3457 40.4495 44.0143C41.0791 43.8487 41.6092 43.683 42.0068 43.4511C42.4044 43.186 42.7357 42.8547 43.0008 42.192C43.0339 42.1257 43.0339 42.0926 43.0008 42.0263C42.9677 41.9269 42.8683 41.7944 42.7026 41.6619C42.3713 41.3637 41.808 41.0655 41.2447 40.7341C40.6815 40.4359 40.1513 40.1377 39.7537 39.7733C39.5549 39.5745 39.3561 39.3757 39.323 39.0112C39.2899 38.6467 39.5218 38.3485 39.7869 38.1497C40.7809 37.4539 42.2719 36.9238 43.8954 36.3605C45.5189 35.7973 47.275 35.2009 48.6666 34.5382C50.0913 33.8755 51.1185 33.1135 51.4498 32.3514C51.6155 31.9538 51.6486 31.5893 51.4829 31.0592C51.3173 30.5291 50.9197 29.9327 50.1907 29.2369L34.8831 13.5648C34.0217 12.7365 32.8951 12.3389 31.8017 12.3389ZM48.3021 41.1317C47.3413 41.1649 46.4798 41.5956 46.1153 42.2914C46.2147 42.3245 46.3141 42.3908 46.4798 42.4239C46.9768 42.5233 47.6726 42.6227 48.3353 42.6227C48.9979 42.6227 49.6937 42.5896 50.1245 42.4571C50.2901 42.3908 50.3895 42.3577 50.4558 42.3245C50.3564 41.9269 50.1576 41.6619 49.76 41.4631C49.3955 41.198 48.8323 41.0986 48.3021 41.1317ZM22.9551 44.3788C22.1931 44.3125 21.2653 44.6107 20.8015 45.0083C20.5695 45.2071 20.4701 45.3728 20.4701 45.4722C20.4701 45.5716 20.5033 45.7373 20.8015 46.0023C21.2985 46.4331 21.8286 46.3668 22.4581 46.0355C22.9883 45.7373 23.4521 45.2071 23.7503 44.6439C23.5515 44.5113 23.2865 44.4119 22.9551 44.3788ZM44.8894 44.6107C44.7237 44.8095 44.6575 45.0083 44.6243 45.1409C44.6243 45.3397 44.6575 45.4722 44.79 45.6047C45.0551 45.8698 45.6183 45.9692 46.2147 45.6379C46.2147 45.5716 46.1816 45.4722 46.0822 45.3397C45.9497 45.0746 45.5189 44.7764 44.8894 44.6107Z" stroke="url(#paint17_radial_1126_2179)" stroke-width="0.0454755"/>
<g opacity="0.325">
<path d="M23.6514 36.0955C22.7568 36.3605 19.8742 37.4539 20.2718 38.2823C20.6694 39.0775 27.3955 39.4088 28.4226 41.7944C28.8865 42.8215 27.3955 43.6167 27.7599 44.677C28.0581 45.5053 30.2781 47.5596 31.7028 48.5536C32.8293 49.3157 34.2872 47.9241 33.6908 46.7975C32.7631 44.9752 36.971 42.7553 38.8596 41.7281C39.953 41.1317 36.5734 38.216 36.5734 38.216L23.6514 36.0955Z" fill="url(#paint18_linear_1126_2179)"/>
</g>
<path d="M23.9813 36.9237C24.7765 37.5201 26.3669 37.1557 27.3278 37.5864C29.614 38.6135 32.4303 39.7732 31.9002 37.7189L31.3369 38.2159V37.2882L29.9785 37.6195C29.9785 37.6195 28.9182 36.7912 28.4543 36.493C28.3549 36.4267 27.8248 36.9569 27.8248 36.9569L27.7254 36.3936C27.0627 36.3273 26.4001 36.2942 25.8037 36.2942C24.4121 36.3273 23.4843 36.5261 23.9813 36.9237Z" fill="url(#paint19_linear_1126_2179)"/>
<g opacity="0.478">
<path d="M38.991 38.7791C38.6928 39.9056 42.8013 41.4629 42.47 42.2581C41.8073 43.981 38.0964 42.8213 35.2469 46.4329C34.8493 46.963 35.8102 48.8185 35.6777 48.5865C35.5451 48.3546 34.5511 46.8305 34.8162 46.0684C35.6114 43.7159 43.4309 42.8213 42.0061 41.6948C41.1778 41.0653 38.2289 39.2761 38.991 38.7791Z" fill="url(#paint20_radial_1126_2179)"/>
</g>
<path opacity="0.586" d="M48.2346 41.1317C48.2346 41.2311 48.0358 41.3305 47.7708 41.3305C47.5057 41.3305 47.3069 41.2311 47.3069 41.1317C47.3069 41.0323 47.5057 40.9329 47.7708 40.9329C48.0358 40.9329 48.2346 41.0323 48.2346 41.1317ZM45.2195 44.5775C45.2195 44.6769 45.087 44.7763 44.9213 44.7763C44.7556 44.7763 44.6231 44.6769 44.6231 44.5775C44.6231 44.4781 44.7556 44.3787 44.9213 44.3787C45.087 44.3787 45.2195 44.4781 45.2195 44.5775ZM22.4569 44.4119C22.4569 44.5113 22.225 44.6107 21.9599 44.6107C21.6948 44.6107 21.4629 44.5113 21.4629 44.4119C21.4629 44.3125 21.6948 44.2131 21.9599 44.2131C22.225 44.2131 22.4569 44.3125 22.4569 44.4119Z" fill="white"/>
<path opacity="0.251" d="M22.1593 36.1948C19.5749 37.7852 15.5989 38.3485 19.9725 39.4088C19.4424 38.2491 21.099 38.3816 22.1593 36.1948Z" fill="url(#paint21_linear_1126_2179)"/>
<g opacity="0.363">
<path d="M31.3049 50.6741C31.3049 50.6741 35.2809 50.3096 36.1755 49.15C36.7057 48.4873 34.055 47.6921 34.6183 47.0294C36.7719 44.5776 38.5943 44.677 41.1124 43.6167C43.6305 42.5896 42.7028 42.0926 41.8745 41.6287C40.4829 40.8666 37.3683 40.0383 38.3955 38.1828C39.4226 36.3274 48.468 33.743 48.468 33.743C51.2181 32.8152 50.8536 31.1254 49.5283 29.7007L41.4769 21.7156C41.4769 21.7156 41.8745 29.3362 40.2509 32.6164C38.2298 36.6256 27.5277 41.1317 32.0007 41.6287C33.5911 41.7944 34.3532 42.3576 34.9827 43.5504C36.3081 46.0686 31.3049 50.6741 31.3049 50.6741Z" fill="url(#paint22_linear_1126_2179)"/>
</g>
</g>
<defs>
<linearGradient id="paint0_linear_1126_2179" x1="44.7981" y1="23.1806" x2="37.0336" y2="30.2013" gradientUnits="userSpaceOnUse">
<stop stop-color="#C0CDF9"/>
<stop offset="1" stop-color="#07092D" stop-opacity="0.288"/>
</linearGradient>
<linearGradient id="paint1_linear_1126_2179" x1="21.6826" y1="20.3819" x2="30.7003" y2="29.3996" gradientUnits="userSpaceOnUse">
<stop stop-color="white"/>
<stop offset="1" stop-color="white" stop-opacity="0"/>
</linearGradient>
<linearGradient id="paint2_linear_1126_2179" x1="27.7023" y1="18.7212" x2="38.4261" y2="29.445" gradientUnits="userSpaceOnUse">
<stop stop-color="white"/>
<stop offset="1" stop-color="white" stop-opacity="0"/>
</linearGradient>
<radialGradient id="paint3_radial_1126_2179" cx="0" cy="0" r="1" gradientUnits="userSpaceOnUse" gradientTransform="translate(25.1784 49.7035) scale(9.10051 6.08535)">
<stop stop-color="white"/>
<stop offset="1" stop-color="white" stop-opacity="0"/>
</radialGradient>
<radialGradient id="paint4_radial_1126_2179" cx="0" cy="0" r="1" gradientUnits="userSpaceOnUse" gradientTransform="translate(30.0157 49.9216) scale(11.6095 7.769)">
<stop stop-color="white"/>
<stop offset="1" stop-color="white" stop-opacity="0"/>
</radialGradient>
<radialGradient id="paint5_radial_1126_2179" cx="0" cy="0" r="1" gradientUnits="userSpaceOnUse" gradientTransform="translate(44.8233 35.7785) scale(6.47873 2.74669)">
<stop stop-color="white"/>
<stop offset="1" stop-color="white" stop-opacity="0"/>
</radialGradient>
<radialGradient id="paint6_radial_1126_2179" cx="0" cy="0" r="1" gradientUnits="userSpaceOnUse" gradientTransform="translate(46.2031 36.541) scale(6.47873 2.74669)">
<stop stop-color="white"/>
<stop offset="1" stop-color="white" stop-opacity="0"/>
</radialGradient>
<linearGradient id="paint7_linear_1126_2179" x1="48.3175" y1="40.5498" x2="48.3412" y2="41.7438" gradientUnits="userSpaceOnUse">
<stop stop-color="white"/>
<stop offset="1" stop-color="white" stop-opacity="0"/>
</linearGradient>
<linearGradient id="paint8_linear_1126_2179" x1="48.3348" y1="40.3915" x2="48.3348" y2="42.2063" gradientUnits="userSpaceOnUse">
<stop stop-color="white"/>
<stop offset="1" stop-color="white" stop-opacity="0"/>
</linearGradient>
<radialGradient id="paint9_radial_1126_2179" cx="0" cy="0" r="1" gradientUnits="userSpaceOnUse" gradientTransform="translate(48.2447 42.5672) scale(2.66598 0.395336)">
<stop stop-color="white"/>
<stop offset="1" stop-color="white" stop-opacity="0"/>
</radialGradient>
<linearGradient id="paint10_linear_1126_2179" x1="44.7646" y1="44.2424" x2="45.3524" y2="45.2809" gradientUnits="userSpaceOnUse">
<stop stop-color="white"/>
<stop offset="1" stop-color="white" stop-opacity="0"/>
</linearGradient>
<linearGradient id="paint11_linear_1126_2179" x1="44.5387" y1="43.866" x2="45.3619" y2="45.4828" gradientUnits="userSpaceOnUse">
<stop stop-color="white"/>
<stop offset="1" stop-color="white" stop-opacity="0"/>
</linearGradient>
<radialGradient id="paint12_radial_1126_2179" cx="0" cy="0" r="1" gradientUnits="userSpaceOnUse" gradientTransform="translate(45.7459 46.2227) rotate(-26.9028) scale(1.15375 0.392139)">
<stop stop-color="white"/>
<stop offset="1" stop-color="white" stop-opacity="0"/>
</radialGradient>
<radialGradient id="paint13_radial_1126_2179" cx="0" cy="0" r="1" gradientUnits="userSpaceOnUse" gradientTransform="translate(21.9137 40.3111) scale(4.30336 1.75079)">
<stop stop-color="white" stop-opacity="0.33"/>
<stop offset="1" stop-color="white" stop-opacity="0"/>
</radialGradient>
<linearGradient id="paint14_linear_1126_2179" x1="21.7747" y1="44.0369" x2="21.824" y2="44.6261" gradientUnits="userSpaceOnUse">
<stop stop-color="white"/>
<stop offset="1" stop-color="white" stop-opacity="0"/>
</linearGradient>
<linearGradient id="paint15_linear_1126_2179" x1="21.7059" y1="43.9838" x2="21.7115" y2="44.8373" gradientUnits="userSpaceOnUse">
<stop stop-color="white"/>
<stop offset="1" stop-color="white" stop-opacity="0"/>
</linearGradient>
<radialGradient id="paint16_radial_1126_2179" cx="0" cy="0" r="1" gradientUnits="userSpaceOnUse" gradientTransform="translate(21.9599 46.5144) rotate(-15.4957) scale(2.43794 0.910726)">
<stop stop-color="white"/>
<stop offset="1" stop-color="white" stop-opacity="0"/>
</radialGradient>
<radialGradient id="paint17_radial_1126_2179" cx="0" cy="0" r="1" gradientUnits="userSpaceOnUse" gradientTransform="translate(33.6001 16.5331) scale(33.7084 33.1768)">
<stop stop-color="white"/>
<stop offset="1" stop-color="white" stop-opacity="0"/>
</radialGradient>
<linearGradient id="paint18_linear_1126_2179" x1="24.1346" y1="40.7915" x2="34.2508" y2="43.4663" gradientUnits="userSpaceOnUse">
<stop stop-color="white"/>
<stop offset="1" stop-color="white" stop-opacity="0"/>
</linearGradient>
<linearGradient id="paint19_linear_1126_2179" x1="28.5569" y1="36.0381" x2="27.4198" y2="38.6436" gradientUnits="userSpaceOnUse">
<stop stop-color="#EEEEEC"/>
<stop offset="1" stop-color="#EEEEEC" stop-opacity="0"/>
</linearGradient>
<radialGradient id="paint20_radial_1126_2179" cx="0" cy="0" r="1" gradientUnits="userSpaceOnUse" gradientTransform="translate(38.7195 43.5724) scale(5.30019 6.73836)">
<stop stop-color="white"/>
<stop offset="1" stop-color="white" stop-opacity="0"/>
</radialGradient>
<linearGradient id="paint21_linear_1126_2179" x1="19.83" y1="37.2101" x2="21.4233" y2="38.4759" gradientUnits="userSpaceOnUse">
<stop stop-color="white"/>
<stop offset="1" stop-color="white" stop-opacity="0"/>
</linearGradient>
<linearGradient id="paint22_linear_1126_2179" x1="41.6729" y1="42.9848" x2="36.9441" y2="30.2523" gradientUnits="userSpaceOnUse">
<stop stop-color="#729FCF"/>
<stop offset="1" stop-color="#729FCF" stop-opacity="0"/>
</linearGradient>
<clipPath id="clip0_1126_2179">
<rect width="64" height="64" fill="white"/>
</clipPath>
</defs>
</svg>
