<svg width="25" height="24" viewBox="0 0 25 24" fill="none" xmlns="http://www.w3.org/2000/svg">
<g clip-path="url(#clip0_915_16)">
<path d="M18.6562 0H5.90625C2.79965 0 0.28125 2.5184 0.28125 5.625V18.375C0.28125 21.4816 2.79965 24 5.90625 24H18.6562C21.7629 24 24.2812 21.4816 24.2812 18.375V5.625C24.2812 2.5184 21.7629 0 18.6562 0Z" fill="url(#paint0_radial_915_16)"/>
<path d="M18.6562 0H5.90625C2.79965 0 0.28125 2.5184 0.28125 5.625V18.375C0.28125 21.4816 2.79965 24 5.90625 24H18.6562C21.7629 24 24.2812 21.4816 24.2812 18.375V5.625C24.2812 2.5184 21.7629 0 18.6562 0Z" fill="url(#paint1_radial_915_16)"/>
<path d="M12.2821 2.625C9.73603 2.625 9.41644 2.63616 8.4165 2.68163C7.41844 2.72738 6.73716 2.88534 6.14109 3.11719C5.52441 3.35662 5.00138 3.67697 4.48031 4.19822C3.95878 4.71937 3.63844 5.24241 3.39825 5.85881C3.16575 6.45506 3.00759 7.13662 2.96269 8.13422C2.91797 9.13425 2.90625 9.45394 2.90625 12.0001C2.90625 14.5463 2.9175 14.8648 2.96288 15.8647C3.00881 16.8628 3.16678 17.5441 3.39844 18.1402C3.63806 18.7568 3.95841 19.2799 4.47966 19.8009C5.00063 20.3225 5.52366 20.6436 6.13988 20.883C6.73641 21.1148 7.41778 21.2728 8.41566 21.3186C9.41569 21.364 9.735 21.3752 12.281 21.3752C14.8273 21.3752 15.1459 21.364 16.1458 21.3186C17.1439 21.2728 17.8259 21.1148 18.4224 20.883C19.0388 20.6436 19.5611 20.3225 20.082 19.8009C20.6035 19.2799 20.9238 18.7568 21.1641 18.1404C21.3945 17.5441 21.5527 16.8626 21.5996 15.8649C21.6445 14.865 21.6562 14.5463 21.6562 12.0001C21.6562 9.45394 21.6445 9.13444 21.5996 8.13441C21.5527 7.13634 21.3945 6.45516 21.1641 5.85909C20.9238 5.24241 20.6035 4.71937 20.082 4.19822C19.5606 3.67678 19.039 3.35644 18.4219 3.11728C17.8242 2.88534 17.1426 2.72728 16.1445 2.68163C15.1445 2.63616 14.8261 2.625 12.2792 2.625H12.2821ZM11.4411 4.31447C11.6907 4.31409 11.9693 4.31447 12.2821 4.31447C14.7853 4.31447 15.0819 4.32347 16.0704 4.36838C16.9845 4.41019 17.4806 4.56291 17.8111 4.69125C18.2486 4.86113 18.5605 5.06428 18.8885 5.3925C19.2166 5.72063 19.4197 6.03309 19.59 6.47062C19.7183 6.80062 19.8713 7.29675 19.9129 8.21081C19.9578 9.19913 19.9675 9.49594 19.9675 11.9979C19.9675 14.4999 19.9578 14.7968 19.9129 15.7851C19.8711 16.6991 19.7183 17.1952 19.59 17.5253C19.4201 17.9629 19.2166 18.2744 18.8885 18.6023C18.5603 18.9305 18.2488 19.1335 17.8111 19.3035C17.481 19.4324 16.9845 19.5848 16.0704 19.6266C15.0821 19.6715 14.7853 19.6812 12.2821 19.6812C9.77878 19.6812 9.48206 19.6715 8.49384 19.6266C7.57978 19.5844 7.08366 19.4317 6.75291 19.3033C6.31547 19.1333 6.00291 18.9303 5.67478 18.6022C5.34666 18.274 5.14359 17.9623 4.97325 17.5246C4.84491 17.1945 4.692 16.6984 4.65038 15.7843C4.60547 14.796 4.59647 14.4992 4.59647 11.9956C4.59647 9.49209 4.60547 9.19678 4.65038 8.20847C4.69219 7.29441 4.84491 6.79828 4.97325 6.46781C5.14322 6.03028 5.34666 5.71781 5.67488 5.38969C6.003 5.06156 6.31547 4.85841 6.753 4.68816C7.08347 4.55925 7.57978 4.40691 8.49384 4.36491C9.35869 4.32581 9.69384 4.31409 11.4411 4.31212V4.31447ZM17.2865 5.87109C16.6654 5.87109 16.1615 6.37453 16.1615 6.99572C16.1615 7.61681 16.6654 8.12072 17.2865 8.12072C17.9076 8.12072 18.4115 7.61681 18.4115 6.99572C18.4115 6.37463 17.9076 5.87072 17.2865 5.87072V5.87109ZM12.2821 7.18556C9.62334 7.18556 7.46766 9.34125 7.46766 12.0001C7.46766 14.6589 9.62334 16.8136 12.2821 16.8136C14.9409 16.8136 17.0959 14.6589 17.0959 12.0001C17.0959 9.34134 14.9408 7.18556 12.2819 7.18556H12.2821ZM12.2821 8.87503C14.0079 8.87503 15.4072 10.2741 15.4072 12.0001C15.4072 13.7259 14.0079 15.1252 12.2821 15.1252C10.5562 15.1252 9.15713 13.7259 9.15713 12.0001C9.15713 10.2741 10.5562 8.87503 12.2821 8.87503Z" fill="white"/>
</g>
<defs>
<radialGradient id="paint0_radial_915_16" cx="0" cy="0" r="1" gradientUnits="userSpaceOnUse" gradientTransform="translate(6.65625 25.8485) rotate(-90) scale(23.7858 22.1227)">
<stop stop-color="#FFDD55"/>
<stop offset="0.1" stop-color="#FFDD55"/>
<stop offset="0.5" stop-color="#FF543E"/>
<stop offset="1" stop-color="#C837AB"/>
</radialGradient>
<radialGradient id="paint1_radial_915_16" cx="0" cy="0" r="1" gradientUnits="userSpaceOnUse" gradientTransform="translate(-3.73884 1.72884) rotate(78.681) scale(10.6324 43.827)">
<stop stop-color="#3771C8"/>
<stop offset="0.128" stop-color="#3771C8"/>
<stop offset="1" stop-color="#6600FF" stop-opacity="0"/>
</radialGradient>
<clipPath id="clip0_915_16">
<rect width="24" height="24" fill="white" transform="translate(0.28125)"/>
</clipPath>
</defs>
</svg>
