<svg width="64" height="64" viewBox="0 0 64 64" fill="none" xmlns="http://www.w3.org/2000/svg">
<g clip-path="url(#clip0_1126_2039)">
<path d="M49 0H15C6.71573 0 0 6.71573 0 15V49C0 57.2843 6.71573 64 15 64H49C57.2843 64 64 57.2843 64 49V15C64 6.71573 57.2843 0 49 0Z" fill="#F4F2ED"/>
<path d="M19.6425 45.9999L7.57129 36.4284L13.5713 25.2856L30.7855 31.9999L19.6425 45.9999Z" fill="url(#paint0_linear_1126_2039)"/>
<path d="M57.0004 20.3569L56.0719 49.2856L36.8576 56.9999L25.2861 49.5714L42.2146 31.9999L34.7861 15.7856L41.4289 7.78564L57.0004 20.3569Z" fill="url(#paint1_linear_1126_2039)"/>
<path d="M57.0004 20.3569L41.7861 38.3571L34.7861 15.7856L41.4289 7.78564L57.0004 20.3569Z" fill="url(#paint2_linear_1126_2039)"/>
<path d="M31.0715 48.5L11 55.7858L14.2142 44.5L18.4285 30.6427L7 26.7857L14.2142 7L29.9285 8.9285L45.3573 26.5715L31.0715 48.5Z" fill="url(#paint3_linear_1126_2039)"/>
<path d="M47.6431 16.6431H16.7861V47.5001H47.6429L47.6431 16.6431Z" fill="black"/>
<path d="M31.2141 41.7143H19.6426V43.6428H31.2141V41.7143ZM27.9998 23.0001V20.6431H21.5713V23.0001H23.4283V31.0716H21.5713V33.4286H27.9998V31.0716H26.2141V23.0001H27.9998ZM34.1426 33.6431C33.1426 33.6431 32.2856 33.4286 31.6426 33.0716C30.9998 32.7143 30.4283 32.2143 29.9998 31.7143L31.7856 29.7143C32.1426 30.1431 32.4998 30.4286 32.8571 30.6431C33.2141 30.8573 33.6426 31.0001 34.0713 31.0001C34.5713 31.0001 34.9998 30.8573 35.3571 30.5001C35.6426 30.1431 35.7856 29.6431 35.7856 28.8573V20.6428H38.6426V29.0001C38.6426 29.7858 38.5713 30.4286 38.3571 31.0001C38.1426 31.5716 37.8571 32.0001 37.4283 32.4286C37.0713 32.7858 36.5713 33.1431 35.9998 33.2858C35.4283 33.5001 34.8571 33.6431 34.1426 33.6431Z" fill="white"/>
</g>
<defs>
<linearGradient id="paint0_linear_1126_2039" x1="7.56379" y1="35.6351" x2="30.7978" y2="35.6351" gradientUnits="userSpaceOnUse">
<stop offset="0.258" stop-color="#F97A12"/>
<stop offset="0.459" stop-color="#B07B58"/>
<stop offset="0.724" stop-color="#577BAE"/>
<stop offset="0.91" stop-color="#1E7CE5"/>
<stop offset="1" stop-color="#087CFA"/>
</linearGradient>
<linearGradient id="paint1_linear_1126_2039" x1="25.4056" y1="24.7714" x2="63.7319" y2="45.9784" gradientUnits="userSpaceOnUse">
<stop stop-color="#F97A12"/>
<stop offset="0.072" stop-color="#CB7A3E"/>
<stop offset="0.154" stop-color="#9E7B6A"/>
<stop offset="0.242" stop-color="#757B91"/>
<stop offset="0.334" stop-color="#537BB1"/>
<stop offset="0.432" stop-color="#387CCC"/>
<stop offset="0.538" stop-color="#237CE0"/>
<stop offset="0.655" stop-color="#147CEF"/>
<stop offset="0.792" stop-color="#0B7CF7"/>
<stop offset="1" stop-color="#087CFA"/>
</linearGradient>
<linearGradient id="paint2_linear_1126_2039" x1="52.1631" y1="37.6536" x2="41.4934" y2="5.77189" gradientUnits="userSpaceOnUse">
<stop stop-color="#FE315D"/>
<stop offset="0.078" stop-color="#CB417E"/>
<stop offset="0.16" stop-color="#9E4E9B"/>
<stop offset="0.247" stop-color="#755BB4"/>
<stop offset="0.339" stop-color="#5365CA"/>
<stop offset="0.436" stop-color="#386DDB"/>
<stop offset="0.541" stop-color="#2374E9"/>
<stop offset="0.658" stop-color="#1478F3"/>
<stop offset="0.794" stop-color="#0B7BF8"/>
<stop offset="1" stop-color="#087CFA"/>
</linearGradient>
<linearGradient id="paint3_linear_1126_2039" x1="14.6575" y1="18.7665" x2="46.6597" y2="71.7" gradientUnits="userSpaceOnUse">
<stop stop-color="#FE315D"/>
<stop offset="0.04" stop-color="#F63462"/>
<stop offset="0.104" stop-color="#DF3A71"/>
<stop offset="0.167" stop-color="#C24383"/>
<stop offset="0.291" stop-color="#AD4A91"/>
<stop offset="0.55" stop-color="#755BB4"/>
<stop offset="0.917" stop-color="#1D76ED"/>
<stop offset="1" stop-color="#087CFA"/>
</linearGradient>
<clipPath id="clip0_1126_2039">
<rect width="64" height="64" fill="white"/>
</clipPath>
</defs>
</svg>
