<svg width="64" height="64" viewBox="0 0 64 64" fill="none" xmlns="http://www.w3.org/2000/svg">
<g clip-path="url(#clip0_1126_1822)">
<path d="M49 0H15C6.71573 0 0 6.71573 0 15V49C0 57.2843 6.71573 64 15 64H49C57.2843 64 64 57.2843 64 49V15C64 6.71573 57.2843 0 49 0Z" fill="#242938"/>
<path d="M25.4085 45.6547C25.4085 45.6547 23.4885 46.8232 26.7448 47.1574C30.6768 47.6584 32.7558 47.5747 37.0965 46.7404C37.0965 46.7404 38.265 47.4927 39.8515 48.0764C30.0828 52.2504 17.7273 47.8259 25.4085 45.6547ZM24.1563 40.2284C24.1563 40.2284 22.0688 41.8149 25.3248 42.1482C29.5818 42.5654 32.9225 42.6492 38.683 41.4814C38.683 41.4814 39.4353 42.3167 40.6868 42.7339C28.916 46.2402 15.7243 43.0672 24.1563 40.2292V40.2284ZM47.1988 49.7459C47.1988 49.7459 48.6178 50.9144 45.6123 51.8334C40.0183 53.5029 22.1525 54.0047 17.1433 51.8334C15.391 51.0812 18.73 49.9954 19.8148 49.8297C20.9003 49.5792 21.4843 49.5792 21.4843 49.5792C19.5643 48.2432 8.71053 52.3342 15.974 53.5114C35.9273 56.7682 52.3748 52.0924 47.198 49.7544L47.1988 49.7459ZM26.3268 34.5507C26.3268 34.5507 17.2263 36.7219 23.0698 37.4724C25.5745 37.8057 30.5 37.7229 35.092 37.3887C38.849 37.0552 42.6145 36.3869 42.6145 36.3869C42.6145 36.3869 41.2783 36.9714 40.3603 37.5554C31.0855 39.9787 13.3028 38.8932 18.3958 36.3884C22.7383 34.3009 26.3268 34.5507 26.3268 34.5507ZM42.6058 43.6509C51.9575 38.8084 47.615 34.1334 44.6095 34.7182C43.8573 34.8849 43.524 35.0517 43.524 35.0517C43.524 35.0517 43.7743 34.5507 44.359 34.3849C50.2863 32.2974 54.9623 40.6464 42.4393 43.9024C42.4393 43.9024 42.523 43.8187 42.6058 43.6519V43.6509ZM27.2448 56.8409C36.2615 57.4257 50.0368 56.5074 50.371 52.2487C50.371 52.2487 49.7043 53.9182 42.941 55.1707C35.2605 56.5897 25.742 56.4229 20.149 55.5039C20.149 55.5039 21.3175 56.5057 27.2455 56.8399L27.2448 56.8409Z" fill="white"/>
<path d="M36.9212 7C36.9212 7 42.0972 12.2598 31.9957 20.19C23.8972 26.618 30.1579 30.292 31.9957 34.4652C27.2369 30.2082 23.8152 26.4505 26.1514 22.944C29.5827 17.7708 39.0154 15.266 36.9212 7ZM34.2499 30.9605C36.6707 33.7155 33.5832 36.2202 33.5832 36.2202C33.5832 36.2202 39.7609 33.0488 36.9229 29.1235C34.3344 25.3665 32.3309 23.5295 43.1844 17.2673C43.1844 17.2673 26.0694 21.5243 34.2517 30.9587L34.2499 30.9605Z" fill="#F58219"/>
</g>
<defs>
<clipPath id="clip0_1126_1822">
<rect width="64" height="64" fill="white"/>
</clipPath>
</defs>
</svg>
