<svg width="64" height="64" viewBox="0 0 64 64" fill="none" xmlns="http://www.w3.org/2000/svg">
<g clip-path="url(#clip0_1126_1898)">
<path d="M49 0H15C6.71573 0 0 6.71573 0 15V49C0 57.2843 6.71573 64 15 64H49C57.2843 64 64 57.2843 64 49V15C64 6.71573 57.2843 0 49 0Z" fill="#242938"/>
<path d="M23.8515 8.5L7.75 24.115L23.8515 39.722V24.115H39.945L23.8515 8.5Z" fill="#F26636"/>
<path d="M56.0427 39.7183L39.9412 24.1111V39.7183H23.8477L39.9412 55.3331L56.0427 39.7183Z" fill="#6373FF"/>
<path d="M39.9452 24.1111H23.8477V39.7221H39.9452V24.1111Z" fill="#27282C"/>
</g>
<defs>
<clipPath id="clip0_1126_1898">
<rect width="64" height="64" fill="white"/>
</clipPath>
</defs>
</svg>
