<svg width="64" height="64" viewBox="0 0 64 64" fill="none" xmlns="http://www.w3.org/2000/svg">
<g clip-path="url(#clip0_1126_2077)">
<path d="M49 0H15C6.71573 0 0 6.71573 0 15V49C0 57.2843 6.71573 64 15 64H49C57.2843 64 64 57.2843 64 49V15C64 6.71573 57.2843 0 49 0Z" fill="#242938"/>
<path d="M21.4874 49.9815L27.6199 53.3865H36.8939L45.5694 46.8727L49.4584 36.658L40.4837 25.8512L37.9409 19.7817L25.5259 20.2257L25.6754 23.6307L23.2822 28.0717L19.5427 35.3257L18.7949 41.3952L21.4874 49.9815Z" fill="#ECEFF1"/>
<path d="M46.7664 28.664C44.3732 25.259 42.4287 23.1865 41.3817 18.8935C40.3347 14.6003 41.6809 15.7848 40.7834 12.0835C40.3347 10.1593 39.5867 8.82678 38.8389 7.79053C37.9414 6.75428 36.8944 6.16203 36.2959 6.01403C34.9499 5.27403 31.8087 4.08953 27.9197 6.16203C23.8809 8.23453 24.3297 12.6758 25.0777 21.7063C25.0777 22.2983 24.9279 23.0388 24.6289 23.6308C24.0307 24.9633 22.9834 26.1473 22.0862 27.1838C21.0389 28.664 19.9919 30.1445 19.2442 31.7728C17.4492 35.1778 15.8037 39.4708 16.2524 41.0993C17.0004 40.9513 26.4239 55.163 26.4239 55.459C27.0222 55.311 29.5649 55.311 31.8087 55.311C34.9499 55.163 36.7447 55.015 39.2877 55.607C39.2877 55.163 39.1379 54.7188 39.1379 54.2748C39.1379 53.3865 39.2877 52.6463 39.4372 51.61C39.5867 50.8698 39.7364 50.1298 39.8859 49.2415C38.3902 50.5738 35.6977 52.0543 33.1549 52.4983C30.9112 52.9423 27.1717 52.2023 25.3767 49.9815C25.5264 49.9815 25.8254 49.9815 25.9752 49.8335C26.4239 49.6855 26.8727 49.5375 27.0222 49.2415C27.4709 48.5013 27.1717 47.761 26.8727 47.317C26.5734 46.8728 24.3297 45.2443 23.2827 44.3563C22.2357 43.468 21.6374 43.0238 21.0389 42.4318L19.8424 41.2473C19.5432 40.9513 19.3937 40.6553 19.2442 40.507C18.9449 39.767 18.7954 38.8788 18.9449 37.6945C19.0944 36.066 19.6927 34.7335 20.4407 33.2533C20.7399 32.661 21.4877 31.4768 21.4877 31.4768C21.4877 31.4768 18.9449 37.6945 20.2912 39.619C20.2912 39.619 20.4407 37.6945 21.0389 35.77C21.4877 34.4375 22.2357 32.513 23.1332 31.4768C24.0307 30.4405 26.2742 26.5915 26.4239 24.2228C26.4239 23.1865 26.5734 22.1503 26.5734 21.4103C25.9752 20.8178 36.4457 19.3378 37.0439 20.966C37.1934 21.5583 39.2877 26.8875 40.4842 29.7003C41.0824 31.0328 41.8304 32.217 42.2792 33.6973C42.7279 35.3258 43.0269 37.5463 43.0269 39.767C43.0269 40.211 43.0269 40.9513 42.8774 41.6915C43.1767 41.6915 49.0102 35.4738 42.1297 30.2925C42.1297 30.2925 46.3177 32.217 46.4674 36.066C46.6169 39.1748 45.2707 41.6915 44.9717 42.1355C45.1212 42.1355 48.1127 43.468 48.2622 43.468C48.8607 43.468 50.0572 43.0238 50.0572 43.0238C50.2069 42.5798 50.6554 41.3953 50.6554 40.9513C51.7027 37.5463 49.1597 32.069 46.7664 28.664Z" fill="#263238"/>
<path d="M27.7697 18.8934C28.8437 18.8934 29.7142 17.5676 29.7142 15.9326C29.7142 14.2974 28.8437 12.9719 27.7697 12.9719C26.6959 12.9719 25.8252 14.2974 25.8252 15.9326C25.8252 17.5676 26.6959 18.8934 27.7697 18.8934ZM34.5007 19.1894C35.9052 19.1894 37.0437 17.6649 37.0437 15.7844C37.0437 13.9041 35.9052 12.3796 34.5007 12.3796C33.0964 12.3796 31.9579 13.9041 31.9579 15.7846C31.9579 17.6649 33.0964 19.1894 34.5007 19.1894Z" fill="#ECEFF1"/>
<path d="M28.8558 16.1351C28.7315 15.1619 28.1655 14.4309 27.5918 14.5026C27.0183 14.5744 26.6538 15.4216 26.7783 16.3951C26.9025 17.3684 27.4683 18.0994 28.042 18.0276C28.6158 17.9556 28.98 17.1084 28.8558 16.1351ZM34.3508 18.3011C35.177 18.3011 35.8465 17.4396 35.8465 16.3766C35.8465 15.3139 35.177 14.4521 34.3508 14.4521C33.5248 14.4521 32.855 15.3139 32.855 16.3766C32.855 17.4396 33.5248 18.3011 34.3508 18.3011Z" fill="#212121"/>
<path d="M54.245 48.9452C53.6467 48.6492 52.5995 48.205 51.702 46.8727C51.2535 46.1325 51.403 44.06 50.655 43.1717C50.2062 42.5797 49.608 42.8757 49.4585 42.8757C48.1122 43.1717 44.971 45.2442 42.877 42.8757C42.5777 42.5797 42.129 42.1355 41.3812 42.1355C40.6332 42.1355 40.3342 42.4315 40.035 43.0237C39.7357 43.616 39.7357 44.06 39.7357 45.5405C39.7357 46.7247 39.7357 48.057 39.5862 49.0932C39.287 51.61 38.8385 53.0905 38.8385 54.5707C38.8385 56.1992 39.287 57.2355 39.8855 57.6795C40.3342 58.1237 41.082 58.4197 42.7275 58.4197C44.3727 58.4197 45.4197 57.8277 46.467 56.7912C47.2147 56.0512 47.813 55.755 49.9072 54.2747C51.5525 53.2385 54.0955 51.906 54.544 51.462C54.8432 51.166 55.292 51.0177 55.292 50.1295C55.292 49.3895 54.6937 49.0932 54.245 48.9452ZM24.1797 49.3895C22.684 47.0207 22.5342 46.5767 21.4872 45.0962C20.5897 43.616 18.6452 40.8032 17.4487 40.8032C16.5512 40.8032 16.1025 41.2472 15.5042 41.8395C14.9057 42.4315 14.3075 43.764 13.2605 44.5042C12.363 45.2442 9.82023 45.0962 9.22198 45.9845C8.62348 46.8727 9.82023 48.2052 9.82023 50.4257C9.82023 51.314 9.07223 51.906 8.92273 52.4982C8.77323 53.2385 8.62348 53.6825 8.92273 54.2747C9.52098 55.163 10.269 55.459 15.3545 56.4952C18.047 57.0875 20.5897 58.5677 22.2352 58.716C23.8805 58.864 26.7225 58.716 26.7225 54.7187C26.8722 52.3502 25.526 51.758 24.1797 49.3895ZM27.0217 22.5945C26.1242 22.0022 25.3762 21.41 25.3762 20.522C25.3762 19.6337 25.9747 19.3375 26.8722 18.5975C27.0217 18.4492 28.667 16.969 30.3125 16.969C31.9577 16.969 33.9022 18.0052 34.6502 18.3015C35.9965 18.5972 37.3425 18.8935 37.193 19.9297C37.0435 21.41 36.894 21.7062 35.398 22.4465C34.351 22.7425 32.4065 24.371 31.0602 24.371C30.462 24.371 29.5645 24.371 28.9662 24.2227C28.5175 24.0747 27.7695 23.3345 27.0217 22.5945Z" fill="#FFC107"/>
<path d="M26.7225 21.4101C27.0218 21.7064 27.4705 22.0026 27.9193 22.1504C28.2183 22.2984 28.667 22.4466 28.667 22.4466H30.0133C30.7613 22.4466 31.8083 22.1504 32.8553 21.5584C33.9023 21.1141 34.052 20.8181 34.7998 20.5221C35.5478 20.0779 36.2955 19.6339 35.9965 19.4859C35.6973 19.3376 35.398 19.4859 34.351 20.0779C33.4535 20.6701 32.7058 20.9661 31.8083 21.4104C31.3595 21.5584 30.7613 21.8544 30.3125 21.8544H28.9663C28.5175 21.8544 28.2183 21.7064 27.7695 21.5584C27.4705 21.4101 27.3208 21.2621 27.1713 21.2621C26.8723 21.1141 26.2738 20.5221 25.9748 20.3739C25.9748 20.3739 25.6755 20.3739 25.825 20.5221L26.7225 21.4101ZM31.21 18.1534C31.3595 18.4494 31.6588 18.4494 31.8083 18.5974C31.9578 18.7456 32.1073 18.7456 32.1073 18.7456C32.257 18.5974 32.1073 18.3014 31.9578 18.3014C31.9578 18.0054 31.21 18.0054 31.21 18.1534ZM28.8168 18.4494C28.8168 18.5976 29.1158 18.7456 29.1158 18.5976C29.2655 18.4494 29.415 18.3014 29.5645 18.3014C29.8638 18.1534 29.714 18.0054 29.2655 18.0054C28.9663 18.1534 28.9663 18.3014 28.8168 18.4494Z" fill="#634703"/>
<path d="M43.3258 44.6523V45.0963C43.625 45.6885 44.3728 45.8365 44.971 45.8365C45.8685 45.8365 46.766 45.2443 47.2148 44.6523C47.2148 44.5043 47.3643 44.356 47.514 44.208C47.813 43.764 47.9628 43.468 48.1123 43.3198C48.1123 43.3198 47.9628 43.1718 47.9628 43.0238C47.813 42.7278 47.3643 42.4315 46.766 42.2835C46.3173 42.1355 45.5695 41.9875 45.2703 41.9875C43.924 41.8395 43.1763 42.2835 42.7275 42.7278C42.7275 42.7278 42.877 42.7278 42.877 42.8758C43.1763 43.1718 43.3258 43.468 43.3258 43.912C43.4753 44.208 43.3258 44.356 43.3258 44.6523Z" fill="#455A64"/>
</g>
<defs>
<clipPath id="clip0_1126_2077">
<rect width="64" height="64" fill="white"/>
</clipPath>
</defs>
</svg>
