<svg width="24" height="24" viewBox="0 0 24 24" fill="none" xmlns="http://www.w3.org/2000/svg">
<g clip-path="url(#clip0_1123_12)">
<path d="M18.375 0H5.625C2.5184 0 0 2.5184 0 5.625V18.375C0 21.4816 2.5184 24 5.625 24H18.375C21.4816 24 24 21.4816 24 18.375V5.625C24 2.5184 21.4816 0 18.375 0Z" fill="#F4F2ED"/>
<path d="M20.4679 13.8783C20.2084 15.1914 18.1433 16.6285 15.7716 16.907C14.5349 17.0521 13.3172 17.1855 12.0187 17.1269C9.8953 17.0313 8.2198 16.6285 8.2198 16.6285C8.2198 16.8318 8.23255 17.0254 8.25796 17.2064C8.53405 19.2673 10.336 19.3908 12.0428 19.4483C13.7656 19.5063 15.2996 19.0306 15.2996 19.0306L15.3704 20.5623C15.3704 20.5623 14.1654 21.1987 12.0187 21.3157C10.8351 21.3796 9.36534 21.2864 7.65346 20.8408C3.94068 19.8743 3.30224 15.9823 3.20446 12.0332C3.17474 10.8607 3.19312 9.75506 3.19312 8.83031C3.19312 4.79222 5.88346 3.60853 5.88346 3.60853C7.24002 2.99588 9.56774 2.73816 11.9877 2.71875H12.0471C14.467 2.73816 16.7963 2.99588 18.1528 3.60853C18.1528 3.60853 20.8431 4.79222 20.8431 8.83041C20.8431 8.83041 20.8768 11.8098 20.4679 13.8783Z" fill="#2B90D9"/>
<path d="M17.6695 9.14365V14.0332H15.6997V9.28737C15.6997 8.28696 15.2716 7.77921 14.4155 7.77921C13.4689 7.77921 12.9945 8.38156 12.9945 9.57265V12.1703H11.0364V9.57265C11.0364 8.38156 10.5618 7.77921 9.6152 7.77921C8.75908 7.77921 8.33111 8.28696 8.33111 9.28737V14.0332H6.36133V9.14365C6.36133 8.14427 6.62008 7.35021 7.13973 6.76268C7.67561 6.17524 8.37752 5.87402 9.24873 5.87402C10.2567 5.87402 11.02 6.25502 11.5247 7.01712L12.0154 7.82599L12.5061 7.01712C13.0107 6.25502 13.774 5.87402 14.7821 5.87402C15.6533 5.87402 16.3551 6.17524 16.8911 6.76277C17.4107 7.35021 17.6695 8.14437 17.6695 9.14365Z" fill="white"/>
</g>
<defs>
<clipPath id="clip0_1123_12">
<rect width="24" height="24" fill="white"/>
</clipPath>
</defs>
</svg>
