<svg width="64" height="64" viewBox="0 0 64 64" fill="none" xmlns="http://www.w3.org/2000/svg">
<g clip-path="url(#clip0_1126_1993)">
<path d="M49 0H15C6.71573 0 0 6.71573 0 15V49C0 57.2843 6.71573 64 15 64H49C57.2843 64 64 57.2843 64 49V15C64 6.71573 57.2843 0 49 0Z" fill="#F4F2ED"/>
<path d="M13.3324 6.74991C13.2456 6.95416 13.1636 7.21891 13.0874 7.53791L13.0311 7.78741C13.0129 7.87391 12.9949 7.96366 12.9771 8.05691L12.9259 8.34541L12.8769 8.65291L12.8304 8.97891L12.7869 9.32241L12.7459 9.68341L12.7081 10.0609C12.7019 10.1252 12.6961 10.1902 12.6901 10.2559L12.6569 10.6577L12.6269 11.0747L12.6001 11.5067L12.5879 11.7282L15.2639 13.0232C15.2234 11.4609 15.2739 9.98366 15.4144 8.62641L15.4419 8.38441L15.4231 8.60616L15.3991 8.97266L15.3906 9.14741L15.3756 9.54616L15.3704 9.77066L15.3644 10.2697L15.3651 10.6887L15.3716 11.1467L15.3791 11.4737L15.3966 11.9974L15.4121 12.3689L15.4316 12.7582L15.4429 12.9597C15.9414 12.5532 16.5384 12.0197 17.1591 11.4364L17.5756 11.0412C17.6456 10.9742 17.7151 10.9072 17.7851 10.8394L18.2031 10.4317L18.6156 10.0217L19.0181 9.61516L19.4056 9.21666C18.9776 8.34166 18.5159 7.69916 18.0864 7.22966L17.9446 7.07966C17.856 6.9888 17.7645 6.90084 17.6701 6.81591L17.5386 6.70116L17.4116 6.59766C17.3715 6.56594 17.331 6.53486 17.2899 6.50441L17.1736 6.42116L17.0636 6.34716L16.9114 6.25316L16.7764 6.17741L16.6254 6.10241L16.5124 6.05391L16.3059 5.97941L16.1556 5.93116L16.0089 5.88966L15.8971 5.86166L15.7756 5.83441L15.7116 5.82141L15.5781 5.79766L15.4376 5.77766C14.6979 5.68491 13.7421 5.78241 13.3324 6.74991Z" fill="url(#paint0_linear_1126_1993)"/>
<path d="M15.9628 20.9224C15.8414 20.0477 15.7288 19.1718 15.6248 18.2949C15.5435 17.5904 15.4748 16.8846 15.4188 16.1776L15.3713 15.5524C15.3704 15.5366 15.37 15.5207 15.3701 15.5049C15.3112 14.678 15.2712 13.8499 15.2501 13.0211L12.5796 11.7336L12.5723 11.8971L12.5543 12.2369C12.5278 12.8769 12.5081 13.5566 12.5023 14.2711C12.4958 15.0766 12.5036 15.9169 12.5181 16.7971C12.5371 17.6066 12.5701 18.4506 12.6138 19.3094C12.6463 19.8606 12.6818 20.4161 12.7228 20.9789L12.7718 21.6296L16.3443 23.4396L16.2186 22.5964L15.9628 20.9224Z" fill="url(#paint1_linear_1126_1993)"/>
<path d="M21.1309 41.6697L21.1861 41.8601L21.5411 43.0659C21.5919 43.2372 21.6436 43.4091 21.6961 43.5821L21.8654 44.1301L21.9234 44.3274C21.9336 44.3597 21.9446 44.3917 21.9571 44.4239L22.5326 46.2684C23.0424 46.1629 23.6636 46.3532 24.3201 46.6394L24.5841 46.7587C24.1009 46.1774 23.4321 45.7884 22.6329 45.6984C24.8211 44.2389 26.2609 42.3591 26.0586 40.1166C26.0374 39.9116 26.0079 39.7076 25.9704 39.5049C25.9374 40.3314 25.6074 40.9382 24.6509 41.5867L24.5334 41.6646C25.5224 39.9239 25.7946 38.7429 25.6776 37.2159C25.6463 36.8276 25.5993 36.4407 25.5369 36.0562C25.2206 38.3297 23.9996 39.8009 22.2141 40.6714L21.1309 41.6697Z" fill="url(#paint2_linear_1126_1993)"/>
<path d="M19.8506 39.0021L19.6234 38.1501L19.1664 36.4253C18.9485 35.5859 18.7372 34.7448 18.5324 33.9021C18.3249 33.0508 18.1246 32.1941 17.9244 31.3373C17.7217 30.4623 17.529 29.585 17.3461 28.7056L17.1646 27.8353L16.8166 26.0941C16.7546 25.7803 16.6966 25.4656 16.6426 25.1503C16.5426 24.6148 16.4501 24.0738 16.3576 23.5328L16.3386 23.4453L12.7861 21.6318L12.7976 21.7443C12.7989 21.7638 12.7994 21.7836 12.7986 21.8028C12.8704 22.6073 12.9401 23.4246 13.0351 24.2456C13.1284 25.0796 13.2344 25.9153 13.3584 26.7603C13.4643 27.4722 13.5763 28.1831 13.6944 28.8931L13.7719 29.3213C14.0826 31.0327 14.4827 32.7267 14.9704 34.3963C15.1174 34.8945 15.2711 35.3908 15.4314 35.8848L15.5689 36.2831L15.8539 37.0748C16.1908 37.9883 16.5648 38.8877 16.9751 39.7706L20.5659 41.5898C20.3744 40.9296 20.1976 40.2586 20.0029 39.5781L19.9034 39.1968L19.8506 39.0021Z" fill="url(#paint3_linear_1126_1993)"/>
<path d="M17.0264 39.8901C17.4589 40.8159 17.9312 41.7126 18.4524 42.5736L18.7412 43.0409C18.4012 42.9039 17.9707 42.8359 17.5527 42.8054L17.3452 42.7931L17.2429 42.7891L17.0437 42.7849L16.7629 42.7859L16.5124 42.7931L16.3014 42.8041L16.0064 42.8284C16.0052 42.8284 16.0041 42.8285 16.0029 42.8289C17.8187 43.4586 19.4109 44.2299 20.4154 45.3986C20.0162 45.8381 19.2689 46.1724 18.3297 46.4444C19.0289 46.5201 19.5617 46.4894 19.9459 46.4266L20.1014 46.3981C20.1259 46.3931 20.1497 46.3879 20.1724 46.3829L20.3014 46.3509L20.4129 46.3181L20.5482 46.2711L20.6174 46.2426C20.0407 46.7236 19.6797 47.5431 19.3797 48.4616L19.2759 48.7896C19.2589 48.8449 19.2422 48.9001 19.2257 48.9559C19.9894 47.7071 20.7472 46.8804 21.4852 46.5644C22.3094 49.2971 23.2624 52.2054 24.3084 55.2404L24.7977 56.6499C24.9627 57.1226 25.1302 57.5981 25.2992 58.0764C25.5427 57.7626 25.5699 57.4154 25.4679 57.0616L25.1334 56.1169L24.7524 55.0126L24.1624 53.2614L23.6784 51.7929L23.1439 50.1361L22.6339 48.5196L22.1652 47.0049L21.8207 45.8704L21.5402 44.9339C21.5027 44.8109 21.4684 44.6859 21.4317 44.5591L21.3259 44.2114L21.0229 43.1651L20.7152 42.0886L20.5767 41.5924L20.5712 41.5851L16.9804 39.7659C16.9884 39.7974 16.9977 39.8234 17.0084 39.8496L17.0264 39.8901Z" fill="url(#paint4_linear_1126_1993)"/>
<path d="M16.7617 23.5163L16.8254 23.8643C16.8714 24.101 16.9142 24.3403 16.9597 24.581L17.3482 26.574L17.4907 27.268L17.6987 28.2488L17.8059 28.7495C17.9132 29.246 18.0259 29.7503 18.1447 30.2655L18.3884 31.3105L18.6312 32.33C18.6727 32.5023 18.7149 32.6755 18.7574 32.8498L19.0182 33.9048L19.2789 34.93C19.4133 35.4582 19.5508 35.9855 19.6914 36.512C19.7964 36.9085 19.9052 37.3108 20.0167 37.718L20.3902 39.0778L20.6724 40.077L20.9637 41.0978L21.1132 41.6148C21.1167 41.6348 21.1199 41.6548 21.1307 41.6695L22.2139 40.6715L22.1877 40.6823L22.1299 40.7105C23.4154 39.4965 24.5172 37.0638 24.7689 34.8715C24.8849 33.8618 24.8739 32.787 24.7354 31.6145C24.6354 30.7405 24.4574 29.8223 24.2132 28.8285C23.9837 27.9083 23.7178 26.9975 23.4159 26.0983C23.2172 26.5035 22.9349 26.9023 22.5889 27.2915L22.4014 27.497L22.3372 27.5638L22.2009 27.7003C23.1492 26.2263 23.2619 24.6435 22.9807 23.0003C22.8082 23.4878 22.4699 24.21 21.9084 24.8588C21.8367 24.9453 21.7522 25.0298 21.6677 25.1145C21.6529 25.1253 21.6407 25.1393 21.6254 25.1538L21.5997 25.1755C21.9144 24.6515 22.1467 24.1538 22.2957 23.6498C22.3187 23.5801 22.338 23.5092 22.3537 23.4375L22.3772 23.3308C22.4152 23.1675 22.4407 23.0023 22.4659 22.837L22.5019 22.5173C22.5162 22.3293 22.5202 22.136 22.5109 21.9398L22.4862 21.5785C22.4839 21.5518 22.4806 21.5251 22.4762 21.4985L22.4384 21.2675C22.4323 21.2309 22.4254 21.1944 22.4179 21.158C22.3524 20.7715 22.2732 20.3875 22.1804 20.0065L22.1027 19.7018L22.0322 19.4443L21.9404 19.14L21.8214 18.7833C21.8089 18.7475 21.7964 18.7133 21.7834 18.6803L21.7114 18.5003C21.6884 18.445 21.6664 18.3943 21.6454 18.3488L21.5862 18.2273C21.5744 18.2759 21.5591 18.3236 21.5407 18.37L21.5077 18.4428C21.2839 18.9678 20.7637 19.6878 20.2894 20.194C20.2819 20.1995 20.2744 20.2048 20.2727 20.2175L20.1749 20.315C20.158 20.3331 20.1416 20.3516 20.1257 20.3705L20.1442 20.3345L16.7314 23.4595C16.7602 23.4835 16.7637 23.5035 16.7617 23.5163Z" fill="url(#paint5_linear_1126_1993)"/>
<path d="M15.4434 12.9607C15.4571 13.21 15.4734 13.4697 15.4926 13.7397L15.5339 14.2935C15.5414 14.388 15.5489 14.4837 15.5571 14.5805L15.6079 15.1745C15.6166 15.2755 15.6259 15.3777 15.6354 15.4812L15.6434 15.5797C15.6454 15.5955 15.6479 15.611 15.6521 15.6267C15.6809 15.9312 15.7131 16.2442 15.7486 16.5672L15.8244 17.2265C15.8511 17.451 15.8794 17.68 15.9094 17.914L16.0514 18.9862C16.1179 19.473 16.1896 19.9772 16.2701 20.5032L16.3321 20.902C16.3934 21.308 16.4614 21.7232 16.5334 22.1497L16.7584 23.4647L20.1711 20.3397C20.8829 19.0505 21.0384 18.2485 21.0286 17.2517C21.0246 17.0438 21.0159 16.836 21.0026 16.6285L20.9884 16.413C20.9336 15.5397 20.8286 14.613 20.6799 13.7185C20.5399 12.8515 20.3684 12.0187 20.1719 11.3057C20.0621 10.8913 19.9316 10.4828 19.7809 10.0815C19.6648 9.7936 19.5392 9.50969 19.4041 9.23022L19.0176 9.62497L18.8181 9.82622L18.4101 10.2327L17.9946 10.6402L17.5761 11.044L17.3671 11.2425L16.9536 11.6305C16.4076 12.1375 15.8866 12.599 15.4436 12.9605L15.4434 12.9607Z" fill="url(#paint6_linear_1126_1993)"/>
<path d="M48.2989 7.41893C48.1896 7.46393 48.0704 7.52068 47.9421 7.58843L47.7429 7.69843C47.6056 7.77718 47.4594 7.86693 47.3049 7.96718L47.0669 8.12568L46.8169 8.29968L46.5551 8.48893L46.2821 8.69343C46.2356 8.72843 46.1889 8.76443 46.1416 8.80093L45.8526 9.02743L45.5534 9.26793L45.2441 9.52293L44.9259 9.79118L44.5986 10.0732L44.2629 10.3682L43.9189 10.6764L43.7441 10.8354L44.8694 14.0042C46.0866 12.7052 47.3094 11.5489 48.5091 10.5634L48.9311 10.2209L48.9616 10.1977L48.6714 10.4339L48.3869 10.6799L48.0781 10.9592L47.7854 11.2334L47.5394 11.4702L47.3629 11.6432L46.9804 12.0267L46.6676 12.3482L46.2169 12.8232L45.9771 13.0809L45.7279 13.3529L45.3366 13.7874L45.0639 14.0949C45.3439 14.1217 45.6506 14.1447 45.9774 14.1642L46.4814 14.1912L47.0101 14.2129L47.5584 14.2299L48.1204 14.2422L48.6914 14.2497C48.7869 14.2507 48.8826 14.2514 48.9784 14.2519L49.5526 14.2527C49.6481 14.2527 49.7436 14.2522 49.8386 14.2517L50.4041 14.2462C50.4976 14.2449 50.5906 14.2437 50.6829 14.2419L51.2281 14.2304C51.6759 12.8959 51.7784 11.8229 51.7436 11.0217L51.7316 10.8187L51.7141 10.6284C51.7109 10.5981 51.7074 10.5679 51.7036 10.5377L51.6796 10.3659L51.6524 10.2064C51.6477 10.1814 51.6428 10.1564 51.6376 10.1314L51.6069 9.99093L51.5749 9.86293L51.5421 9.74743L51.5099 9.64493L51.4496 9.47743L51.4009 9.36118L51.2846 9.12168L51.2169 8.99368L51.1601 8.89318L51.0944 8.78268L51.0199 8.66443L50.9366 8.53993L50.8446 8.41168C50.3311 7.72018 49.4544 6.94193 48.2989 7.41893Z" fill="url(#paint7_linear_1126_1993)"/>
<path d="M39.1574 20.9207C39.7545 20.12 40.3596 19.3253 40.9726 18.5367C41.5886 17.7496 42.2219 16.9761 42.8721 16.217C42.9101 16.1707 42.9481 16.1245 42.9846 16.088C43.5942 15.3757 44.2198 14.6775 44.8611 13.9937L43.7344 10.835L43.5986 10.961L43.3141 11.2202C42.7525 11.743 42.1997 12.2752 41.6561 12.8167C41.3265 13.1456 40.9994 13.4769 40.6749 13.8107L40.0034 14.5057C39.8901 14.6235 39.7764 14.7425 39.6616 14.8625C39.0125 15.5532 38.3728 16.2527 37.7429 16.961C37.3266 17.4349 36.9137 17.9118 36.5041 18.3915L36.0264 18.9542L37.4644 23.25L38.0329 22.471L39.1574 20.9207Z" fill="url(#paint8_linear_1126_1993)"/>
<path d="M26.8319 41.728L26.6181 42.1227L26.0529 43.178C25.9579 43.3562 25.8626 43.5357 25.7674 43.7167L25.4684 44.2925C25.4111 44.3985 25.3556 44.4942 25.3086 44.6017L24.9941 45.2087L24.3066 46.5437C24.8666 46.9065 25.2401 47.689 25.5684 48.5685C25.6414 47.7167 25.4119 46.8722 24.8401 46.1647C27.7611 46.7285 30.4139 46.359 32.0326 44.393C32.1785 44.2111 32.3171 44.0234 32.4479 43.8305C31.7624 44.4715 31.0124 44.6972 29.7206 44.456L29.5746 44.4275C31.7541 43.8117 32.9116 43.0775 34.0306 41.7552C34.314 41.4177 34.5836 41.0689 34.8389 40.7097C32.7779 42.2887 30.6261 42.503 28.4969 41.7852L26.8319 41.728Z" fill="url(#paint9_linear_1126_1993)"/>
<path d="M27.8084 38.7613L28.4146 37.6963L29.4169 35.9448C29.9044 35.1016 30.4019 34.2601 30.9114 33.4098C31.4206 32.5596 31.9401 31.7108 32.4596 30.8618C32.9918 29.9964 33.5337 29.137 34.0851 28.2838C34.6249 27.4381 35.1851 26.5951 35.7336 25.7611C35.9331 25.4591 36.1364 25.1597 36.3436 24.8631C36.6916 24.3508 37.0435 23.8412 37.3994 23.3343L37.4534 23.2488L36.0344 18.9663L35.9541 19.0663C35.9399 19.0831 35.9247 19.099 35.9086 19.1141C35.3271 19.8188 34.7341 20.5321 34.1584 21.2686C33.566 22.0189 32.9866 22.7793 32.4204 23.5496C31.9401 24.2068 31.4654 24.8682 30.9964 25.5336L30.7186 25.9398C30.1481 26.7811 29.6114 27.6066 29.1314 28.3988C28.6154 29.2452 28.1219 30.1051 27.6514 30.9776C27.3738 31.4954 27.1032 32.0169 26.8396 32.5421C26.6316 32.9688 26.4321 33.4073 26.2341 33.8356C25.7797 34.8386 25.3663 35.8598 24.9951 36.8966L26.4404 41.2141L26.7216 40.7016L27.2966 39.6706C27.3931 39.4973 27.4894 39.3231 27.5854 39.1476L27.8084 38.7613Z" fill="url(#paint10_linear_1126_1993)"/>
<path d="M24.9448 37.034C24.5578 38.123 24.225 39.2202 23.9605 40.3272L23.8218 40.933C23.6918 40.633 23.4825 40.323 23.2468 40.0305L23.1025 39.8572C23.0782 39.8288 23.0536 39.8006 23.0288 39.7727L22.8798 39.6082L22.7305 39.4512L22.5838 39.3032L22.3738 39.1007L22.183 38.9252L21.974 38.7417L21.786 38.587C22.7473 40.5365 23.4163 42.4222 23.296 44.161C22.6258 44.1977 21.7585 43.8732 20.7863 43.346C21.2048 43.8592 21.5893 44.2215 21.9133 44.4752L22.0585 44.585L22.1278 44.6342L22.2593 44.7227L22.3808 44.798L22.4915 44.8612L22.5913 44.9135L22.6793 44.9555L22.7553 44.988C22.7668 44.9927 22.7778 44.9972 22.7885 45.0012C21.9735 44.9327 21.0705 45.2757 20.1378 45.7482L19.8258 45.9102L19.5123 46.0795C21.1193 45.6812 22.386 45.6177 23.2313 45.9497C22.8083 46.7508 22.3906 47.5547 21.978 48.3612L21.3458 49.6062C20.3626 51.5592 19.4 53.5224 18.4583 55.4957L17.8083 56.8622C17.5898 57.3236 17.3721 57.7853 17.1553 58.2475C17.6003 58.188 17.898 57.9302 18.0973 57.5645L18.8335 56.0035L19.511 54.6L20.3768 52.8375L21.1418 51.3052L21.8993 49.808L22.6193 48.4037L23.618 46.4832L24.3273 45.139L24.571 44.6807L24.7813 44.2927L24.9725 43.929L25.2638 43.391L25.8613 42.2937L26.1675 41.7345L26.45 41.2252L26.4515 41.215L25.0065 36.8975C24.9878 36.9295 24.9745 36.9575 24.9625 36.9872L24.9448 37.034Z" fill="url(#paint11_linear_1126_1993)"/>
<path d="M37.74 23.6445L37.515 23.9752C37.3637 24.2025 37.208 24.429 37.0535 24.659L36.312 25.777L35.7827 26.572L35.6485 26.7777C35.4449 27.0902 35.2427 27.4035 35.0417 27.7177L34.4227 28.687C34.0015 29.351 33.5857 30.0185 33.1755 30.6895L32.857 31.2115C32.3329 32.0707 31.8148 32.9337 31.3027 33.8002L30.6977 34.8327C30.3864 35.3647 30.0781 35.8984 29.773 36.434C29.5863 36.76 29.4009 37.0868 29.2167 37.4142L28.297 39.0547L28.0152 39.5657L27.443 40.6072C27.2489 40.9615 27.0557 41.3162 26.8635 41.6715C26.8493 41.6883 26.8393 41.7081 26.834 41.7295L28.499 41.7867C28.47 41.772 28.4395 41.7675 28.4002 41.7515C30.3997 41.7952 33.2195 40.7125 35.164 39.1477C36.0595 38.4267 36.905 37.553 37.7247 36.499C38.3385 35.716 38.925 34.8355 39.5177 33.8415C40.0644 32.9183 40.574 31.9737 41.0455 31.01C40.5635 31.1782 40.019 31.275 39.4315 31.3135L39.1172 31.3297C39.0475 31.3335 38.9782 31.3325 38.906 31.3327L38.7945 31.3345C40.7287 30.9012 42.077 29.7167 43.1562 28.1705C42.6302 28.4257 41.784 28.7382 40.8167 28.8145C40.69 28.8272 40.5547 28.828 40.4195 28.829C40.3992 28.826 40.3782 28.8275 40.3545 28.8272L40.3162 28.8242C40.986 28.6522 41.5685 28.4365 42.0887 28.149C42.1627 28.1111 42.2346 28.0695 42.3042 28.0242L42.408 27.9567C42.5685 27.8555 42.72 27.7427 42.8717 27.6297L43.1547 27.401C43.3759 27.2094 43.5805 26.9996 43.7665 26.7737L43.888 26.633C43.9072 26.6095 43.9257 26.5857 43.9432 26.5605L44.0965 26.3445C44.121 26.3095 44.1445 26.275 44.167 26.24C44.426 25.87 44.6717 25.4908 44.9035 25.1032L44.9892 24.9575C45.1005 24.766 45.1985 24.5932 45.285 24.4292L45.386 24.2362L45.5392 23.9257C45.5693 23.8649 45.5979 23.8034 45.625 23.7412L45.6697 23.637L45.7457 23.4485C45.7682 23.3902 45.7875 23.3367 45.804 23.2885L45.8262 23.22C45.778 23.2496 45.7278 23.2759 45.676 23.2987L45.5915 23.3312C44.9942 23.5762 44.0032 23.7425 43.2195 23.773C43.2092 23.7715 43.199 23.77 43.1872 23.7785L43.031 23.7795C43.0035 23.7805 42.9755 23.782 42.9475 23.785L42.991 23.7705L37.7607 23.5747C37.765 23.617 37.7517 23.6357 37.74 23.6445Z" fill="url(#paint12_linear_1126_1993)"/>
<path d="M45.0643 14.095C44.8776 14.3067 44.6843 14.529 44.4851 14.7615L44.0783 15.2402L43.6556 15.7452L43.1446 16.3625C43.1335 16.3768 43.1233 16.3918 43.1141 16.4075C42.8107 16.7797 42.511 17.1549 42.2151 17.533L41.7451 18.1385C41.6653 18.242 41.5851 18.3467 41.5043 18.453L40.8291 19.3457L40.3876 19.9372C40.158 20.2468 39.9302 20.5576 39.7041 20.8697L39.4706 21.194C39.2314 21.5233 38.9949 21.8546 38.7611 22.1877L38.2763 22.8802L37.7773 23.596L43.0076 23.7917C44.6048 23.3192 45.3673 22.7972 46.1513 21.9872C46.3134 21.8167 46.4715 21.6424 46.6256 21.4647L46.7853 21.28C47.4564 20.5076 48.0881 19.7018 48.6778 18.8657C49.2538 18.0565 49.7776 17.25 50.1861 16.52C50.4526 16.0497 50.6723 15.6142 50.8438 15.2237C50.9792 14.8997 51.1037 14.5713 51.2171 14.239L50.6746 14.2485L50.1166 14.2545L49.5486 14.2565L48.9758 14.2542C48.8801 14.2537 48.7846 14.2527 48.6893 14.2517L48.1193 14.2435L47.5578 14.2307C47.4653 14.2282 47.3733 14.2255 47.2821 14.2225L46.7433 14.203C46.6551 14.1992 46.5681 14.1955 46.4818 14.1912L45.9778 14.1642C45.673 14.1465 45.3684 14.1234 45.0643 14.095Z" fill="url(#paint13_linear_1126_1993)"/>
</g>
<defs>
<linearGradient id="paint0_linear_1126_1993" x1="13.9981" y1="10.3727" x2="22.6716" y2="7.54416" gradientUnits="userSpaceOnUse">
<stop stop-color="#F69923"/>
<stop offset="0.312" stop-color="#F79A23"/>
<stop offset="0.838" stop-color="#E97826"/>
</linearGradient>
<linearGradient id="paint1_linear_1126_1993" x1="13.3133" y1="57.9691" x2="23.9556" y2="15.7176" gradientUnits="userSpaceOnUse">
<stop offset="0.323" stop-color="#9E2064"/>
<stop offset="0.63" stop-color="#C92037"/>
<stop offset="0.751" stop-color="#CD2335"/>
<stop offset="1" stop-color="#E97826"/>
</linearGradient>
<linearGradient id="paint2_linear_1126_1993" x1="22.8579" y1="56.6384" x2="29.8491" y2="22.5892" gradientUnits="userSpaceOnUse">
<stop stop-color="#282662"/>
<stop offset="0.095" stop-color="#662E8D"/>
<stop offset="0.788" stop-color="#9F2064"/>
<stop offset="0.949" stop-color="#CD2032"/>
</linearGradient>
<linearGradient id="paint3_linear_1126_1993" x1="15.1384" y1="55.6596" x2="30.6126" y2="18.0313" gradientUnits="userSpaceOnUse">
<stop offset="0.323" stop-color="#9E2064"/>
<stop offset="0.63" stop-color="#C92037"/>
<stop offset="0.751" stop-color="#CD2335"/>
<stop offset="1" stop-color="#E97826"/>
</linearGradient>
<linearGradient id="paint4_linear_1126_1993" x1="19.0047" y1="53.9209" x2="31.4652" y2="38.3961" gradientUnits="userSpaceOnUse">
<stop stop-color="#282662"/>
<stop offset="0.095" stop-color="#662E8D"/>
<stop offset="0.788" stop-color="#9F2064"/>
<stop offset="0.949" stop-color="#CD2032"/>
</linearGradient>
<linearGradient id="paint5_linear_1126_1993" x1="19.9652" y1="62.2235" x2="31.3422" y2="8.36905" gradientUnits="userSpaceOnUse">
<stop offset="0.323" stop-color="#9E2064"/>
<stop offset="0.63" stop-color="#C92037"/>
<stop offset="0.751" stop-color="#CD2335"/>
<stop offset="1" stop-color="#E97826"/>
</linearGradient>
<linearGradient id="paint6_linear_1126_1993" x1="16.6891" y1="75.5355" x2="27.3959" y2="13.21" gradientUnits="userSpaceOnUse">
<stop offset="0.323" stop-color="#9E2064"/>
<stop offset="0.63" stop-color="#C92037"/>
<stop offset="0.751" stop-color="#CD2335"/>
<stop offset="1" stop-color="#E97826"/>
</linearGradient>
<linearGradient id="paint7_linear_1126_1993" x1="45.0759" y1="11.4822" x2="56.3334" y2="8.48143" gradientUnits="userSpaceOnUse">
<stop stop-color="#F69923"/>
<stop offset="0.312" stop-color="#F79A23"/>
<stop offset="0.838" stop-color="#E97826"/>
</linearGradient>
<linearGradient id="paint8_linear_1126_1993" x1="28.4796" y1="59.87" x2="51.3854" y2="17.9035" gradientUnits="userSpaceOnUse">
<stop offset="0.323" stop-color="#9E2064"/>
<stop offset="0.63" stop-color="#C92037"/>
<stop offset="0.751" stop-color="#CD2335"/>
<stop offset="1" stop-color="#E97826"/>
</linearGradient>
<linearGradient id="paint9_linear_1126_1993" x1="22.1349" y1="50.8657" x2="32.4786" y2="33.493" gradientUnits="userSpaceOnUse">
<stop stop-color="#282662"/>
<stop offset="0.095" stop-color="#662E8D"/>
<stop offset="0.788" stop-color="#9F2064"/>
<stop offset="0.949" stop-color="#CD2032"/>
</linearGradient>
<linearGradient id="paint10_linear_1126_1993" x1="26.1436" y1="56.8981" x2="49.3721" y2="17.5778" gradientUnits="userSpaceOnUse">
<stop offset="0.323" stop-color="#9E2064"/>
<stop offset="0.63" stop-color="#C92037"/>
<stop offset="0.751" stop-color="#CD2335"/>
<stop offset="1" stop-color="#E97826"/>
</linearGradient>
<linearGradient id="paint11_linear_1126_1993" x1="20.599" y1="53.402" x2="33.34" y2="34.4465" gradientUnits="userSpaceOnUse">
<stop stop-color="#282662"/>
<stop offset="0.095" stop-color="#662E8D"/>
<stop offset="0.788" stop-color="#9F2064"/>
<stop offset="0.949" stop-color="#CD2032"/>
</linearGradient>
<linearGradient id="paint12_linear_1126_1993" x1="20.2352" y1="56.934" x2="47.0132" y2="14.0262" gradientUnits="userSpaceOnUse">
<stop offset="0.323" stop-color="#9E2064"/>
<stop offset="0.63" stop-color="#C92037"/>
<stop offset="0.751" stop-color="#CD2335"/>
<stop offset="1" stop-color="#E97826"/>
</linearGradient>
<linearGradient id="paint13_linear_1126_1993" x1="20.3238" y1="39.9317" x2="37.4733" y2="11.668" gradientUnits="userSpaceOnUse">
<stop offset="0.323" stop-color="#9E2064"/>
<stop offset="0.63" stop-color="#C92037"/>
<stop offset="0.751" stop-color="#CD2335"/>
<stop offset="1" stop-color="#E97826"/>
</linearGradient>
<clipPath id="clip0_1126_1993">
<rect width="64" height="64" fill="white"/>
</clipPath>
</defs>
</svg>
