<svg width="64" height="64" viewBox="0 0 64 64" fill="none" xmlns="http://www.w3.org/2000/svg">
<g clip-path="url(#clip0_1126_1940)">
<path d="M49 0H15C6.71573 0 0 6.71573 0 15V49C0 57.2843 6.71573 64 15 64H49C57.2843 64 64 57.2843 64 49V15C64 6.71573 57.2843 0 49 0Z" fill="#242938"/>
<path d="M43.1968 24.3514L43.1785 24.3436C43.1683 24.3396 43.1577 24.3359 43.1485 24.3266C43.1334 24.3106 43.1223 24.2913 43.116 24.2703C43.1096 24.2492 43.1083 24.227 43.112 24.2054L44.12 18.0426L48.8473 22.7709L43.931 24.8626C43.9173 24.8681 43.9027 24.8707 43.888 24.8704H43.8685C43.8588 24.8642 43.85 24.8568 43.8423 24.8484C43.6593 24.6446 43.4405 24.4761 43.1968 24.3514ZM50.0532 23.9759L55.1077 29.0301C56.1575 30.0814 56.683 30.6054 56.8747 31.2131C56.9032 31.3031 56.9267 31.3931 56.945 31.4856L44.866 26.3701L44.8465 26.3621C44.7983 26.3426 44.742 26.3204 44.742 26.2709C44.742 26.2214 44.7995 26.1979 44.8478 26.1784L44.8633 26.1719L50.0532 23.9759ZM56.739 33.1079C56.4782 33.5981 55.9698 34.1069 55.109 34.9686L49.4105 40.6659L42.0402 39.1311L42.001 39.1234C41.9357 39.1129 41.8667 39.1011 41.8667 39.0424C41.8387 38.7383 41.7484 38.4434 41.6014 38.1758C41.4545 37.9081 41.254 37.6737 41.0125 37.4869C40.9825 37.4569 40.9905 37.4099 40.9995 37.3669C40.9995 37.3604 40.9995 37.3539 41.0023 37.3486L42.3882 28.8386L42.3935 28.8099C42.4015 28.7446 42.413 28.6691 42.4717 28.6691C42.7688 28.6322 43.0556 28.5365 43.3153 28.3876C43.575 28.2387 43.8025 28.0396 43.9845 27.8019C43.9963 27.7889 44.004 27.7744 44.0197 27.7666C44.0615 27.7471 44.111 27.7666 44.154 27.7849L56.7378 33.1079H56.739ZM48.1 41.9764L38.7293 51.3471L40.3332 41.4889L40.3358 41.4756C40.3371 41.4628 40.3398 41.4501 40.3438 41.4379C40.3568 41.4066 40.3905 41.3936 40.4232 41.3806L40.4388 41.3741C40.79 41.2242 41.1006 40.9931 41.3452 40.6999C41.3765 40.6634 41.4143 40.6281 41.4625 40.6216C41.475 40.6196 41.4877 40.6196 41.5003 40.6216L48.0985 41.9779L48.1 41.9764ZM36.7458 53.3306L35.6895 54.3869L24.012 37.5101L23.999 37.4919C23.981 37.4671 23.9615 37.4424 23.9653 37.4136C23.9665 37.3929 23.9795 37.3746 23.994 37.3589L24.007 37.3421C24.042 37.2899 24.072 37.2376 24.1047 37.1816L24.1308 37.1359L24.1348 37.1321C24.153 37.1009 24.1698 37.0709 24.2013 37.0539C24.2288 37.0409 24.2662 37.0461 24.2962 37.0526L37.2335 39.7206C37.2697 39.7261 37.3039 39.7409 37.3327 39.7636C37.3497 39.7806 37.3535 39.7989 37.3575 39.8196C37.4477 40.161 37.6157 40.477 37.8482 40.7428C38.0808 41.0086 38.3716 41.217 38.698 41.3519C38.7345 41.3701 38.7187 41.4106 38.702 41.4536C38.6935 41.4724 38.687 41.4921 38.6823 41.5124C38.5193 42.5034 37.1215 51.0289 36.7458 53.3306ZM34.5395 55.5356C33.761 56.3064 33.302 56.7144 32.783 56.8789C32.2712 57.0406 31.722 57.0406 31.2103 56.8789C30.6028 56.6859 30.0773 56.1616 29.0275 55.1106L17.3005 43.3836L20.3635 38.6329C20.3765 38.6091 20.3943 38.5882 20.4158 38.5716C20.4483 38.5481 20.4953 38.5586 20.5345 38.5716C21.2375 38.7839 21.9922 38.7456 22.6702 38.4634C22.7055 38.4504 22.7407 38.4414 22.7682 38.4661C22.7817 38.4786 22.794 38.4926 22.8048 38.5079L34.5395 55.5369V55.5356ZM16.1698 42.2529L13.4797 39.5629L18.7922 37.2964C18.8058 37.2904 18.8204 37.2873 18.8353 37.2874C18.8795 37.2874 18.9058 37.3316 18.9293 37.3721C18.9825 37.4541 19.0392 37.5341 19.0987 37.6119L19.1155 37.6329C19.1312 37.6549 19.1207 37.6771 19.1052 37.6981L16.171 42.2529H16.1698ZM12.289 38.3721L8.8855 34.9686C8.3065 34.3896 7.88675 33.9699 7.5945 33.6086L17.9433 35.7551L17.9825 35.7616C18.0463 35.7719 18.1168 35.7836 18.1168 35.8436C18.1168 35.9089 18.0398 35.9389 17.9745 35.9636L17.9445 35.9766L12.289 38.3721ZM7 31.8586C7.01186 31.6394 7.05134 31.4225 7.1175 31.2131C7.31025 30.6054 7.8345 30.0814 8.8855 29.0301L13.241 24.6749C15.2465 27.5852 17.2573 30.4919 19.2735 33.3949C19.3085 33.4416 19.3477 33.4939 19.3072 33.5329C19.117 33.7429 18.9265 33.9724 18.7922 34.2216C18.7777 34.2536 18.7552 34.2814 18.727 34.3024C18.71 34.3129 18.692 34.3089 18.672 34.3049H18.6695L7 31.8574V31.8586ZM14.4067 23.5091L20.263 17.6526C20.8135 17.8939 22.8165 18.7401 24.608 19.4966C25.9642 20.0704 27.2005 20.5919 27.589 20.7616C27.6283 20.7771 27.6635 20.7929 27.6803 20.8319C27.6908 20.8554 27.6855 20.8854 27.6803 20.9101C27.5878 21.3328 27.6017 21.7719 27.7208 22.1879C27.8398 22.604 28.0602 22.984 28.3622 23.2939C28.4015 23.3331 28.3623 23.3889 28.3285 23.4374L28.3102 23.4649L22.364 32.6749C22.3508 32.7008 22.3315 32.7232 22.3078 32.7401C22.2765 32.7596 22.2322 32.7506 22.1957 32.7414C21.9644 32.6808 21.7266 32.6484 21.4875 32.6449C21.2737 32.6449 21.0415 32.6841 20.807 32.7271H20.8055C20.7795 32.7311 20.756 32.7361 20.7353 32.7206C20.7122 32.7018 20.6923 32.6793 20.6765 32.6541L14.4067 23.5091ZM21.446 16.4699L29.0275 8.88836C30.0773 7.83861 30.6028 7.31336 31.2103 7.12136C31.722 6.95955 32.2712 6.95955 32.783 7.12136C33.3908 7.31311 33.9162 7.83886 34.966 8.88836L36.609 10.5314L31.2167 18.8824C31.2035 18.9066 31.1853 18.9279 31.1635 18.9449C31.1307 18.9674 31.0852 18.9581 31.046 18.9449C30.6209 18.8158 30.1707 18.7923 29.7344 18.8764C29.2982 18.9605 28.889 19.1496 28.5422 19.4274C28.507 19.4639 28.455 19.4431 28.4105 19.4236C27.7065 19.1171 22.2295 16.8026 21.446 16.4699ZM37.754 11.6764L42.7325 16.6551L41.533 24.0854V24.1049C41.5318 24.1218 41.5283 24.1386 41.5225 24.1546C41.5095 24.1806 41.4832 24.1859 41.4572 24.1936C41.2008 24.2713 40.9592 24.3916 40.7427 24.5496C40.7334 24.5563 40.7246 24.5637 40.7165 24.5719C40.7022 24.5874 40.688 24.6019 40.6645 24.6044C40.6453 24.605 40.6262 24.6019 40.6082 24.5954L33.0215 21.3719L33.0073 21.3651C32.959 21.3456 32.9017 21.3221 32.9017 21.2726C32.8571 20.8498 32.719 20.4422 32.4975 20.0794C32.461 20.0194 32.4205 19.9569 32.4518 19.8956L37.754 11.6764ZM32.6265 22.8989L39.7385 25.9111C39.7777 25.9294 39.8207 25.9461 39.8377 25.9866C39.8445 26.0109 39.8445 26.0366 39.8377 26.0609C39.8134 26.1736 39.8003 26.2885 39.7985 26.4039V26.6034C39.7985 26.6531 39.7477 26.6739 39.7007 26.6934L39.6865 26.6986C38.5598 27.1799 23.8688 33.4444 23.8465 33.4444C23.8245 33.4444 23.801 33.4444 23.7787 33.4221C23.7397 33.3831 23.7787 33.3284 23.8137 33.2786C23.8202 33.2701 23.8263 33.2614 23.8323 33.2526L29.6768 24.2026L29.6873 24.1871C29.7213 24.1321 29.7603 24.0711 29.8228 24.0711L29.8815 24.0801C30.0145 24.0984 30.132 24.1154 30.2505 24.1154C31.1372 24.1154 31.9588 23.6839 32.4543 22.9456C32.4662 22.926 32.4812 22.9084 32.4987 22.8936C32.534 22.8674 32.586 22.8809 32.6265 22.8989ZM24.4815 34.8761L40.495 28.0471C40.495 28.0471 40.5185 28.0471 40.5405 28.0691C40.628 28.1566 40.7022 28.2151 40.774 28.2699L40.8092 28.2921C40.8417 28.3104 40.8745 28.3314 40.877 28.3651C40.877 28.3781 40.877 28.3861 40.8745 28.3979L39.5025 36.8244L39.4972 36.8581C39.4882 36.9234 39.479 36.9979 39.4178 36.9979C39.052 37.0223 38.6977 37.1357 38.3857 37.3282C38.0737 37.5207 37.8135 37.7864 37.6275 38.1024L37.6208 38.1126C37.6025 38.1426 37.5858 38.1714 37.5558 38.1871C37.5283 38.2001 37.493 38.1949 37.4645 38.1884L24.6943 35.5541C24.6813 35.5516 24.4958 34.8774 24.4815 34.8761Z" fill="url(#paint0_radial_1126_1940)"/>
</g>
<defs>
<radialGradient id="paint0_radial_1126_1940" cx="0" cy="0" r="1" gradientUnits="userSpaceOnUse" gradientTransform="translate(5.3625 31.3156) rotate(90) scale(49.945 57.6632)">
<stop stop-color="#20C6B7"/>
<stop offset="1" stop-color="#4D9ABF"/>
</radialGradient>
<clipPath id="clip0_1126_1940">
<rect width="64" height="64" fill="white"/>
</clipPath>
</defs>
</svg>
