<svg width="64" height="64" viewBox="0 0 64 64" fill="none" xmlns="http://www.w3.org/2000/svg">
<g clip-path="url(#clip0_1126_2056)">
<path d="M49 0H15C6.71573 0 0 6.71573 0 15V49C0 57.2843 6.71573 64 15 64H49C57.2843 64 64 57.2843 64 49V15C64 6.71573 57.2843 0 49 0Z" fill="#FF6C37"/>
<path d="M42.2656 22.153L29.6306 34.7883L26.0674 31.2253C38.4931 18.7998 39.7209 19.8778 42.2656 22.153Z" fill="#EEEEEE"/>
<path d="M29.6299 35.0876C29.5399 35.0876 29.4801 35.0579 29.4201 34.9979L25.8271 31.4349C25.7987 31.4079 25.7761 31.3754 25.7607 31.3393C25.7453 31.3033 25.7373 31.2646 25.7373 31.2254C25.7373 31.1862 25.7453 31.1474 25.7607 31.1114C25.7761 31.0754 25.7987 31.0429 25.8271 31.0159C38.4624 18.3804 39.7796 19.5781 42.4446 21.9734C42.5046 22.0334 42.5344 22.0934 42.5344 22.1831C42.5344 22.2731 42.5046 22.3329 42.4446 22.3924L29.8094 34.9979C29.7796 35.0579 29.6896 35.0876 29.6299 35.0876ZM26.4859 31.2254L29.6299 34.3691L41.8159 22.1831C39.6004 20.2069 38.1031 19.6081 26.4859 31.2254Z" fill="#FF6C37"/>
<path d="M33.2528 38.4113L29.8096 34.968L42.4448 22.333C45.8283 25.746 40.7681 31.2853 33.2528 38.4113Z" fill="#EEEEEE"/>
<path d="M33.2528 38.7108C33.1628 38.7108 33.1033 38.6808 33.0433 38.6208L29.6 35.1775C29.54 35.1178 29.54 35.0578 29.54 34.968C29.54 34.878 29.57 34.8183 29.63 34.7583L42.265 22.1233C42.2921 22.0949 42.3246 22.0723 42.3606 22.0569C42.3967 22.0414 42.4355 22.0334 42.4747 22.0334C42.5139 22.0334 42.5527 22.0414 42.5887 22.0569C42.6247 22.0723 42.6573 22.0949 42.6843 22.1233C43.0666 22.477 43.3686 22.9086 43.5701 23.3889C43.7715 23.8692 43.8677 24.3872 43.852 24.9078C43.7923 28.231 40.0195 32.4528 33.4923 38.6208C33.4025 38.6808 33.3125 38.7108 33.2528 38.7108ZM30.2288 34.968C32.1448 36.914 32.9535 37.6928 33.2528 37.992C38.283 33.2015 43.1633 28.291 43.1933 24.9078C43.2233 24.1293 42.924 23.3508 42.4148 22.7518L30.2288 34.968Z" fill="#FF6C37"/>
<path d="M26.1269 31.3149L28.6719 33.8599C28.7317 33.9199 28.7317 33.9797 28.6719 34.0397C28.6419 34.0697 28.6419 34.0697 28.6122 34.0697L23.3422 35.2074C23.0729 35.2374 22.8334 35.0577 22.7734 34.7882C22.7434 34.6384 22.8034 34.4889 22.8934 34.3989L25.9472 31.3449C26.0072 31.2849 26.0969 31.2549 26.1269 31.3149Z" fill="#EEEEEE"/>
<path d="M23.2521 35.5069C22.8031 35.5069 22.4736 35.1474 22.4736 34.6982C22.4736 34.4889 22.5636 34.2792 22.7134 34.1294L25.7671 31.0754C25.9469 30.9257 26.1866 30.9257 26.3661 31.0754L28.9111 33.6204C29.0906 33.7702 29.0906 34.0397 28.9111 34.2192C28.8511 34.2792 28.7914 34.3092 28.7014 34.3392L23.4319 35.4769C23.3719 35.4769 23.3119 35.5069 23.2521 35.5069ZM26.0369 31.6442L23.1026 34.5784C23.0426 34.6384 23.0126 34.7282 23.0726 34.8179C23.1026 34.9079 23.1921 34.9379 23.2821 34.9079L28.2224 33.8299L26.0369 31.6442Z" fill="#FF6C37"/>
<path d="M48.9422 15.1471C47.026 13.2908 43.942 13.3506 42.0855 15.2968C40.2292 17.2428 40.2892 20.2968 42.2352 22.1533C43.0035 22.8956 43.9958 23.3628 45.0574 23.482C46.119 23.6011 47.1902 23.3656 48.104 22.8121L44.6905 19.3986L48.9422 15.1471Z" fill="#EEEEEE"/>
<path d="M45.5892 23.8C42.745 23.8 40.4395 21.4945 40.4395 18.65C40.4395 15.8055 42.745 13.5 45.5892 13.5C46.9067 13.5 48.1942 14.009 49.1522 14.9373C49.2122 14.9973 49.2422 15.0573 49.2422 15.1468C49.2422 15.2368 49.2122 15.2967 49.1522 15.3565L45.1102 19.3985L48.284 22.5723C48.404 22.6923 48.404 22.8718 48.284 22.9915L48.2242 23.0515C47.4457 23.5303 46.5175 23.8 45.5892 23.8ZM45.5892 14.129C43.0742 14.129 41.0382 16.1648 41.0682 18.68C41.0682 21.195 43.104 23.231 45.6192 23.2013C46.308 23.2013 46.9965 23.0513 47.6252 22.722L44.4815 19.6082C44.4215 19.5482 44.3917 19.4883 44.3917 19.3985C44.3917 19.3085 44.4215 19.2487 44.4815 19.189L48.4937 15.1768C47.6852 14.4883 46.6672 14.129 45.5892 14.129Z" fill="#FF6C37"/>
<path d="M49.0319 15.2368L48.9722 15.1768L44.6904 19.3985L48.0739 22.782C48.4034 22.5723 48.7324 22.333 49.0022 22.0635C49.4558 21.6192 49.8167 21.0892 50.064 20.5043C50.3113 19.9195 50.4401 19.2913 50.4429 18.6563C50.4456 18.0214 50.3223 17.3921 50.0801 16.8051C49.838 16.2181 49.4817 15.685 49.0319 15.2368Z" fill="#EEEEEE"/>
<path d="M48.1044 23.1112C48.0144 23.1112 47.9546 23.0812 47.8946 23.0212L44.4813 19.6079C44.4213 19.5479 44.3916 19.4882 44.3916 19.3984C44.3916 19.3084 44.4213 19.2484 44.4813 19.1887L48.7328 14.9374C48.8528 14.8174 49.0323 14.8174 49.1521 14.9374L49.2421 14.9974C51.2481 17.0032 51.2481 20.2369 49.2721 22.2732C48.9726 22.5724 48.6431 22.8419 48.2839 23.0514C48.1941 23.0814 48.1344 23.1112 48.1044 23.1112ZM45.1101 19.3984L48.1343 22.4224C48.3738 22.2729 48.6134 22.0632 48.7929 21.8834C50.4996 20.1767 50.5894 17.3922 48.9426 15.5959L45.1101 19.3984Z" fill="#FF6C37"/>
<path d="M42.7748 22.6917C42.4292 22.3466 41.9607 22.1528 41.4723 22.1528C40.9839 22.1528 40.5155 22.3466 40.1698 22.6917L28.8818 33.9797L30.7683 35.866L42.7148 25.3867C43.4933 24.7277 43.5531 23.56 42.8946 22.7817C42.8346 22.7517 42.8046 22.7217 42.7748 22.6917Z" fill="#EEEEEE"/>
<path d="M30.7376 36.1655C30.6478 36.1655 30.5878 36.1355 30.5278 36.0757L28.6416 34.1895C28.6132 34.1624 28.5906 34.1299 28.5752 34.0939C28.5597 34.0579 28.5518 34.0191 28.5518 33.9799C28.5518 33.9407 28.5597 33.9019 28.5752 33.8658C28.5906 33.8298 28.6132 33.7973 28.6416 33.7702L39.9293 22.4822C40.1275 22.283 40.3631 22.1249 40.6227 22.017C40.8822 21.9091 41.1604 21.8535 41.4415 21.8535C41.7225 21.8535 42.0008 21.9091 42.2603 22.017C42.5198 22.1249 42.7554 22.283 42.9536 22.4822C43.1529 22.6804 43.311 22.916 43.4189 23.1755C43.5269 23.435 43.5824 23.7133 43.5824 23.9944C43.5824 24.2754 43.5269 24.5537 43.4189 24.8132C43.311 25.0727 43.1529 25.3083 42.9536 25.5065L42.8638 25.5962L30.9171 36.0757C30.8873 36.1355 30.8273 36.1655 30.7376 36.1655ZM29.3003 33.9797L30.7676 35.447L42.5046 25.147C43.1631 24.608 43.2231 23.62 42.6841 22.9615C42.1451 22.3027 41.1571 22.243 40.4983 22.7815C40.4686 22.8115 40.4386 22.8415 40.3786 22.8715L29.3003 33.9797Z" fill="#FF6C37"/>
<path d="M20.2283 46.8249C20.1083 46.8847 20.0486 47.0044 20.0783 47.1242L20.5876 49.2802C20.7076 49.5794 20.5276 49.9389 20.1983 50.0287C19.9588 50.1184 19.6896 50.0287 19.5398 49.8492L16.2461 46.5854L26.9951 35.8364L30.7078 35.8962L33.2228 38.4114C32.6241 38.9204 29.0011 42.4234 20.2283 46.8249Z" fill="#EEEEEE"/>
<path d="M19.9891 50.3279C19.7496 50.3279 19.5101 50.2381 19.3603 50.0586L16.0966 46.7949C16.0366 46.7351 16.0068 46.6751 16.0068 46.5854C16.0068 46.4956 16.0368 46.4356 16.0968 46.3756L26.8456 35.6269C26.9056 35.5669 26.9953 35.5369 27.0553 35.5369L30.7681 35.5969C30.8578 35.5969 30.9176 35.6269 30.9773 35.6866L33.4926 38.2016C33.5526 38.2616 33.5823 38.3514 33.5823 38.4411C33.5823 38.5311 33.5526 38.5909 33.4626 38.6509L33.2531 38.8306C30.0793 41.6149 25.7676 44.3996 20.4081 47.0644L20.9173 49.1901C21.0071 49.5794 20.8273 49.9986 20.4681 50.2081C20.2883 50.2979 20.1388 50.3279 19.9891 50.3279ZM16.6953 46.5854L19.7796 49.6394C19.8691 49.7891 20.0488 49.8489 20.1986 49.7591C20.3483 49.6694 20.4083 49.4896 20.3186 49.3399L19.8096 47.1841C19.7496 46.9146 19.8691 46.6751 20.1088 46.5554C25.4083 43.8906 29.6901 41.1361 32.8338 38.4114L30.6183 36.1956L27.1751 36.1356L16.6953 46.5854Z" fill="#FF6C37"/>
<path d="M13.7011 49.1602L16.2761 46.5852L20.1086 50.4177L14.0006 49.9987C13.7311 49.9687 13.5514 49.7292 13.5814 49.4595C13.5814 49.3397 13.6111 49.22 13.7011 49.1602Z" fill="#EEEEEE"/>
<path d="M20.1088 50.6871L13.9708 50.2679C13.5216 50.2379 13.2221 49.8489 13.2521 49.3996C13.2821 49.2199 13.3421 49.0404 13.4918 48.9206L16.0668 46.3456C16.0938 46.3173 16.1263 46.2947 16.1623 46.2792C16.1984 46.2638 16.2371 46.2558 16.2763 46.2558C16.3155 46.2558 16.3543 46.2638 16.3903 46.2792C16.4263 46.2947 16.4588 46.3173 16.4858 46.3456L20.3183 50.1781C20.4083 50.2679 20.4383 50.3876 20.3783 50.5076C20.3183 50.6274 20.2283 50.6871 20.1088 50.6871ZM16.2763 47.0044L13.9108 49.3696C13.8211 49.4296 13.8211 49.5794 13.9108 49.6391C13.9408 49.6691 13.9708 49.6991 14.0308 49.6991L19.3303 50.0584L16.2763 47.0044ZM25.9473 37.2136C25.7676 37.2136 25.6478 37.0639 25.6478 36.9141C25.6478 36.8244 25.6778 36.7646 25.7378 36.7046L28.6421 33.8004C28.6691 33.772 28.7016 33.7493 28.7376 33.7339C28.7737 33.7184 28.8125 33.7104 28.8517 33.7104C28.8909 33.7104 28.9297 33.7184 28.9657 33.7339C29.0018 33.7493 29.0343 33.772 29.0613 33.8004L30.9476 35.6866C31.0373 35.7764 31.0673 35.8661 31.0373 35.9861C31.0073 36.0759 30.9176 36.1656 30.7981 36.1956L26.0073 37.2136H25.9473ZM28.8516 34.4291L26.8756 36.4054L30.1091 35.7164L28.8516 34.4291Z" fill="#FF6C37"/>
<path d="M30.7076 35.896L27.4141 36.6148C27.1746 36.6748 26.9348 36.525 26.8751 36.2855C26.8451 36.1358 26.8751 35.986 26.9948 35.8663L28.8211 34.0398L30.7076 35.896Z" fill="#EEEEEE"/>
<path d="M27.355 36.9143C27.2564 36.9154 27.1586 36.8967 27.0674 36.8594C26.9761 36.8222 26.8932 36.7671 26.8235 36.6974C26.7538 36.6276 26.6987 36.5447 26.6614 36.4535C26.6242 36.3622 26.6055 36.2644 26.6065 36.1658C26.6065 35.9563 26.6962 35.7766 26.816 35.6271L28.6425 33.8006C28.6695 33.7722 28.702 33.7496 28.7381 33.7341C28.7741 33.7186 28.8129 33.7107 28.8521 33.7107C28.8913 33.7107 28.9301 33.7186 28.9662 33.7341C29.0022 33.7496 29.0347 33.7722 29.0617 33.8006L30.948 35.6868C31.0377 35.7766 31.0677 35.8664 31.0377 35.9864C31.0077 36.0761 30.918 36.1659 30.7985 36.1959L27.5047 36.9143H27.355ZM28.852 34.4293L27.2352 36.0461C27.1755 36.1061 27.1755 36.1658 27.2052 36.2258C27.2352 36.2856 27.2952 36.3156 27.385 36.3156L30.1395 35.7166L28.852 34.4293ZM49.0625 18.1109C49.0027 17.9314 48.793 17.8416 48.6132 17.9016C48.4337 17.9611 48.344 18.1709 48.404 18.3506C48.404 18.3806 48.4337 18.4106 48.4337 18.4404C48.6132 18.7999 48.5537 19.2488 48.314 19.5781C48.1942 19.7281 48.2242 19.9376 48.344 20.0573C48.4937 20.1768 48.7032 20.1473 48.823 19.9973C49.2722 19.4283 49.362 18.7099 49.0625 18.1109Z" fill="#FF6C37"/>
</g>
<defs>
<clipPath id="clip0_1126_2056">
<rect width="64" height="64" fill="white"/>
</clipPath>
</defs>
</svg>
