<svg width="64" height="64" viewBox="0 0 64 64" fill="none" xmlns="http://www.w3.org/2000/svg">
<g clip-path="url(#clip0_1126_1852)">
<path d="M49 0H15C6.71573 0 0 6.71573 0 15V49C0 57.2843 6.71573 64 15 64H49C57.2843 64 64 57.2843 64 49V15C64 6.71573 57.2843 0 49 0Z" fill="#242938"/>
<path d="M50.8702 37.172C45.7902 38.2195 45.4212 36.4988 45.4212 36.4988C50.7877 28.5358 53.0325 18.4283 51.0952 15.955C45.815 9.20502 36.6725 12.399 36.5195 12.4818L36.4702 12.4905C35.3536 12.2664 34.2183 12.148 33.0795 12.137C30.7802 12.102 29.0365 12.74 27.7112 13.7438C27.7112 13.7438 11.4022 7.02552 12.1615 22.1938C12.3232 25.421 16.7845 46.6273 22.1107 40.2113C24.0725 37.8523 25.9532 35.871 25.9532 35.871C26.885 36.4915 28.0047 36.808 29.1772 36.6938L29.2685 36.6165C29.2417 36.9204 29.2542 37.2264 29.3055 37.527C27.9345 39.0598 28.3387 39.3288 25.5965 39.893C22.8227 40.4643 24.454 41.482 25.5157 41.7493C26.806 42.0728 29.7907 42.5298 31.8087 39.7068L31.7277 40.0283C32.2657 40.459 32.6417 42.8285 32.5785 44.9765C32.5152 47.1248 32.473 48.5978 32.895 49.7508C33.3167 50.904 33.7387 53.495 37.3422 52.739C40.3535 52.094 41.9125 50.4188 42.1322 47.631C42.287 45.648 42.635 45.9398 42.6597 44.168L42.941 43.3278C43.2625 40.6383 42.9935 39.7718 44.848 40.176L45.2997 40.2165C46.6657 40.278 48.4535 39.9968 49.501 39.5098C51.7597 38.4623 53.0992 36.7113 50.872 37.172H50.8702Z" fill="#336791"/>
<path d="M36.5176 12.1489C35.9551 12.3246 45.5951 8.62464 51.0759 15.6259C53.0096 18.0991 50.7684 28.2066 45.4016 36.1694M32.0246 38.4459C31.8841 43.4486 32.0599 48.4864 32.5486 49.6959C33.0371 50.9051 34.0866 53.2994 37.6919 52.5294C40.7031 51.8844 41.7999 50.6344 42.2746 47.8764L43.3871 39.0576L32.0246 38.4459ZM27.7041 13.3671C27.7041 13.3671 11.3844 6.69463 12.1439 21.8624C12.3056 25.0896 16.7669 46.2959 22.0931 39.8799C24.0371 37.5366 25.7951 35.7034 25.7951 35.7034L27.7041 13.3669V13.3671Z" stroke="white" stroke-width="1.2585" stroke-linecap="round" stroke-linejoin="round"/>
<path d="M45.4033 36.166C45.4033 36.166 45.755 37.8887 50.8525 36.8375C53.0798 36.377 51.7385 38.1277 49.4815 39.1755C47.6288 40.0367 43.4733 40.2565 43.4048 39.07C43.229 36.0025 45.5915 36.9342 45.421 36.166C45.2663 35.4735 44.208 34.795 43.512 33.1005C42.902 31.6237 35.1448 20.286 45.6635 21.968C46.0503 21.889 42.9213 11.9487 33.0775 11.8045C23.2338 11.6602 23.545 23.907 23.545 23.907" stroke="white" stroke-width="1.2585" stroke-linecap="round" stroke-linejoin="bevel"/>
<path d="M29.2703 37.2172C27.8993 38.75 28.3036 39.019 25.5616 39.5832C22.7876 40.1545 24.4191 41.1722 25.4806 41.4395C26.7708 41.763 29.7556 42.22 31.7736 39.395C32.3888 38.5337 31.7701 37.1627 30.9263 36.8147C30.5186 36.646 29.9736 36.435 29.2741 37.219L29.2703 37.2172Z" stroke="white" stroke-width="1.2585" stroke-linejoin="round"/>
<path d="M29.1803 37.1907C29.0396 36.289 29.4756 35.2185 29.9413 33.9635C30.6411 32.0827 32.2548 30.2017 30.9646 24.2305C30.0031 19.783 23.5466 23.304 23.5466 23.907C23.5466 24.51 23.8383 26.9657 23.4411 29.822C22.9191 33.5522 25.8141 36.7057 29.1468 36.384" stroke="white" stroke-width="1.2585" stroke-linecap="round" stroke-linejoin="round"/>
<path d="M27.6441 23.8176C27.6141 24.0231 28.0219 24.5733 28.5511 24.6471C29.0801 24.7211 29.5319 24.2921 29.5619 24.0846C29.5916 23.8771 29.1839 23.6521 28.6549 23.5783C28.1256 23.5046 27.6704 23.6136 27.6441 23.8176Z" fill="white" stroke="white" stroke-width="0.42"/>
<path d="M43.753 23.3974C43.781 23.6029 43.375 24.1529 42.846 24.2269C42.3167 24.3006 41.8615 23.8719 41.8352 23.6644C41.8087 23.4569 42.2132 23.2319 42.7422 23.1581C43.2712 23.0844 43.7265 23.1934 43.753 23.3974Z" fill="white" stroke="white" stroke-width="0.20925"/>
<path d="M45.6442 21.9717C45.7319 23.5889 45.2959 24.6874 45.2397 26.4084C45.1589 28.9079 46.4317 31.7697 44.5137 34.6349" stroke="white" stroke-width="1.2585" stroke-linecap="round" stroke-linejoin="round"/>
</g>
<defs>
<clipPath id="clip0_1126_1852">
<rect width="64" height="64" fill="white"/>
</clipPath>
</defs>
</svg>
