<svg width="64" height="64" viewBox="0 0 64 64" fill="none" xmlns="http://www.w3.org/2000/svg">
<g clip-path="url(#clip0_1126_1863)">
<path d="M49 0H15C6.71573 0 0 6.71573 0 15V49C0 57.2843 6.71573 64 15 64H49C57.2843 64 64 57.2843 64 49V15C64 6.71573 57.2843 0 49 0Z" fill="#F4F2ED"/>
<mask id="mask0_1126_1863" style="mask-type:luminance" maskUnits="userSpaceOnUse" x="9" y="9" width="46" height="46">
<path d="M9.5 9.5H54.5V54.5H9.5V9.5Z" fill="white"/>
</mask>
<g mask="url(#mask0_1126_1863)">
<path d="M42.869 42.2584C43.1555 39.8731 43.0695 39.5251 44.8448 39.9101L45.2965 39.9504C46.6625 40.0119 48.4483 39.7306 49.5153 39.2439C51.7743 38.1961 53.1135 36.4454 50.8865 36.9059C45.8063 37.9536 45.4373 36.2326 45.4373 36.2326C50.8038 28.2699 53.0485 18.1624 51.1098 15.6891C45.8293 8.93912 36.6868 12.1314 36.534 12.2156L36.4848 12.2244C35.4828 12.0136 34.3753 11.8904 33.092 11.8729C30.793 11.8379 29.0493 12.4759 27.7238 13.4796C27.7238 13.4796 11.4165 6.76112 12.174 21.9294C12.3358 25.1566 16.7973 46.3629 22.1233 39.9469C24.0728 37.6021 25.9538 35.6209 25.9538 35.6209C26.8853 36.2414 28.005 36.5579 29.1775 36.4436L29.2688 36.3664C29.2418 36.6702 29.2543 36.9762 29.3058 37.2769C27.9348 38.8096 28.339 39.0786 25.5968 39.6429C22.823 40.2141 24.4543 41.2319 25.516 41.4991C26.8063 41.8226 29.791 42.2796 31.809 39.4566L31.728 39.7781C32.266 40.2089 32.229 42.8719 32.308 44.7739C32.3873 46.6759 32.512 48.4531 32.9005 49.4989C33.289 50.5449 33.7443 53.2431 37.3478 52.4871C40.359 51.8421 42.6618 50.9121 42.8725 42.2744" fill="black"/>
<path d="M42.869 42.2584C43.1555 39.8731 43.0695 39.5251 44.8448 39.9101L45.2965 39.9504C46.6625 40.0119 48.4483 39.7306 49.5153 39.2439C51.7743 38.1961 53.1135 36.4454 50.8865 36.9059C45.8063 37.9536 45.4373 36.2326 45.4373 36.2326C50.8038 28.2699 53.0485 18.1624 51.1098 15.6891C45.8293 8.93912 36.6868 12.1314 36.534 12.2156L36.4848 12.2244C35.4828 12.0136 34.3753 11.8904 33.092 11.8729C30.793 11.8379 29.0493 12.4759 27.7238 13.4796C27.7238 13.4796 11.4165 6.76112 12.174 21.9294C12.3358 25.1566 16.7973 46.3629 22.1233 39.9469C24.0728 37.6021 25.9538 35.6209 25.9538 35.6209C26.8853 36.2414 28.005 36.5579 29.1775 36.4436L29.2688 36.3664C29.2418 36.6702 29.2543 36.9762 29.3058 37.2769C27.9348 38.8096 28.339 39.0786 25.5968 39.6429C22.823 40.2141 24.4543 41.2319 25.516 41.4991C26.8063 41.8226 29.791 42.2796 31.809 39.4566L31.728 39.7781C32.266 40.2089 32.229 42.8719 32.308 44.7739C32.3873 46.6759 32.512 48.4531 32.9005 49.4989C33.289 50.5449 33.7443 53.2431 37.3478 52.4871C40.359 51.8421 42.6618 50.9121 42.8725 42.2744" stroke="black" stroke-width="3.7775"/>
<path d="M50.8702 36.9218C45.7902 37.9693 45.4212 36.2485 45.4212 36.2485C50.7877 28.2855 53.0325 18.178 51.0952 15.7048C45.815 8.95478 36.6725 12.1488 36.5195 12.2315L36.4702 12.2403C35.3536 12.0162 34.2183 11.8978 33.0795 11.8868C30.7802 11.8518 29.0365 12.4898 27.7112 13.4935C27.7112 13.4935 11.4022 6.77528 12.1615 21.9435C12.3232 25.1708 16.7845 46.377 22.1107 39.961C24.0725 37.602 25.9535 35.6208 25.9535 35.6208C26.885 36.2413 28.0047 36.5578 29.1772 36.4435L29.2685 36.3663C29.2417 36.6701 29.2542 36.9761 29.3055 37.2768C27.9345 38.8095 28.3387 39.0785 25.5965 39.6428C22.8227 40.214 24.454 41.2318 25.5157 41.499C26.806 41.8225 29.7907 42.2795 31.8087 39.4565L31.7277 39.778C32.2657 40.2088 32.6417 42.5783 32.5785 44.7263C32.5152 46.8745 32.473 48.3475 32.895 49.5005C33.3167 50.6538 33.7387 53.2448 37.3422 52.4888C40.3535 51.8438 41.9125 50.1685 42.1322 47.3808C42.287 45.3978 42.635 45.6895 42.6597 43.9178L42.941 43.0775C43.2625 40.388 42.9935 39.5215 44.848 39.9258L45.2997 39.9663C46.6657 40.0278 48.4535 39.7465 49.501 39.2595C51.7597 38.212 53.0992 36.461 50.8722 36.9218H50.8702Z" fill="#336791"/>
<path d="M36.5176 12.1489C35.9551 12.3246 45.5951 8.62464 51.0759 15.6259C53.0096 18.0991 50.7684 28.2066 45.4016 36.1694M32.0246 38.4459C31.8841 43.4486 32.0599 48.4864 32.5486 49.6959C33.0371 50.9051 34.0866 53.2994 37.6919 52.5294C40.7031 51.8844 41.7999 50.6344 42.2746 47.8764L43.3871 39.0576L32.0246 38.4459ZM27.7041 13.3671C27.7041 13.3671 11.3844 6.69463 12.1439 21.8624C12.3056 25.0896 16.7669 46.2959 22.0931 39.8799C24.0371 37.5366 25.7951 35.7034 25.7951 35.7034L27.7041 13.3669V13.3671Z" stroke="white" stroke-width="1.2585" stroke-linecap="round" stroke-linejoin="round"/>
<path d="M45.4033 36.166C45.4033 36.166 45.755 37.8887 50.8525 36.8375C53.0798 36.377 51.7385 38.1277 49.4815 39.1755C47.6288 40.0367 43.4733 40.2565 43.4048 39.07C43.229 36.0025 45.5915 36.9342 45.421 36.166C45.2663 35.4735 44.208 34.795 43.512 33.1005C42.902 31.6237 35.1448 20.286 45.6635 21.968C46.0503 21.889 42.9213 11.9487 33.0775 11.8045C23.2338 11.6602 23.545 23.907 23.545 23.907" stroke="white" stroke-width="1.2585" stroke-linecap="round" stroke-linejoin="bevel"/>
<path d="M29.2703 37.2172C27.8993 38.75 28.3036 39.019 25.5616 39.5832C22.7876 40.1545 24.4191 41.1722 25.4806 41.4395C26.7708 41.763 29.7556 42.22 31.7736 39.395C32.3888 38.5337 31.7701 37.1627 30.9263 36.8147C30.5186 36.646 29.9736 36.435 29.2741 37.219L29.2703 37.2172Z" stroke="white" stroke-width="1.2585" stroke-linejoin="round"/>
<path d="M29.1803 37.1907C29.0396 36.289 29.4756 35.2185 29.9413 33.9635C30.6411 32.0827 32.2548 30.2017 30.9646 24.2305C30.0028 19.783 23.5466 23.304 23.5466 23.907C23.5466 24.51 23.8383 26.9657 23.4411 29.822C22.9191 33.5522 25.8141 36.7057 29.1468 36.384" stroke="white" stroke-width="1.2585" stroke-linecap="round" stroke-linejoin="round"/>
<path d="M27.6441 23.8173C27.6141 24.0228 28.0219 24.5731 28.5511 24.6468C29.0801 24.7208 29.5319 24.2918 29.5619 24.0843C29.5916 23.8768 29.1839 23.6518 28.6549 23.5781C28.1256 23.5043 27.6704 23.6133 27.6441 23.8173Z" fill="white" stroke="white" stroke-width="0.42"/>
<path d="M43.753 23.3974C43.781 23.6029 43.375 24.1529 42.846 24.2269C42.3167 24.3006 41.8615 23.8719 41.8352 23.6644C41.8087 23.4569 42.2132 23.2319 42.7422 23.1581C43.2712 23.0844 43.7265 23.1934 43.753 23.3974Z" fill="white" stroke="white" stroke-width="0.20925"/>
<path d="M45.6442 21.9717C45.7319 23.5889 45.2959 24.6874 45.2397 26.4084C45.1589 28.9079 46.4317 31.7697 44.5137 34.6349" stroke="white" stroke-width="1.2585" stroke-linecap="round" stroke-linejoin="round"/>
</g>
</g>
<defs>
<clipPath id="clip0_1126_1863">
<rect width="64" height="64" fill="white"/>
</clipPath>
</defs>
</svg>
