<svg width="64" height="64" viewBox="0 0 64 64" fill="none" xmlns="http://www.w3.org/2000/svg">
<g clip-path="url(#clip0_1126_1832)">
<path d="M49 0H15C6.71573 0 0 6.71573 0 15V49C0 57.2843 6.71573 64 15 64H49C57.2843 64 64 57.2843 64 49V15C64 6.71573 57.2843 0 49 0Z" fill="#242938"/>
<path d="M31.8197 7.25C19.1267 7.25 19.9193 12.7545 19.9193 12.7545L19.9335 18.457H32.0462V20.1695H15.1222C15.1222 20.1695 7 19.248 7 32.0552C7 44.8627 14.0892 44.4087 14.0892 44.4087H18.3202V38.4655C18.3202 38.4655 18.0922 31.3762 25.2965 31.3762H37.31C37.31 31.3762 44.0597 31.4853 44.0597 24.8528V13.8865C44.0597 13.8865 45.0845 7.25 31.8197 7.25ZM25.1408 11.0848C25.427 11.0845 25.7105 11.1406 25.9751 11.25C26.2396 11.3594 26.48 11.52 26.6824 11.7224C26.8848 11.9248 27.0453 12.1652 27.1547 12.4297C27.2641 12.6942 27.3203 12.9777 27.32 13.264C27.3203 13.5502 27.2641 13.8337 27.1546 14.0982C27.0452 14.3627 26.8847 14.6031 26.6823 14.8055C26.4799 15.0079 26.2395 15.1683 25.975 15.2777C25.7105 15.3871 25.427 15.4433 25.1408 15.443C24.8545 15.4433 24.5711 15.3871 24.3066 15.2777C24.0421 15.1683 23.8018 15.0078 23.5994 14.8054C23.397 14.603 23.2365 14.3627 23.1271 14.0982C23.0177 13.8337 22.9615 13.5502 22.9618 13.264C22.9615 12.9778 23.0176 12.6943 23.127 12.4297C23.2364 12.1652 23.3969 11.9249 23.5993 11.7225C23.8017 11.52 24.042 11.3595 24.3065 11.2501C24.571 11.1407 24.8545 11.0845 25.1408 11.0848Z" fill="url(#paint0_linear_1126_1832)"/>
<path d="M32.1805 56.9896C44.8735 56.9896 44.081 51.4853 44.081 51.4853L44.0667 45.7826H31.954V44.0704H48.878C48.878 44.0704 57.0002 44.9916 57.0002 32.1841C57.0002 19.3766 49.911 19.8309 49.911 19.8309H45.68V25.7741C45.68 25.7741 45.908 32.8634 38.7037 32.8634H26.6902C26.6902 32.8634 19.9402 32.7541 19.9402 39.3866V50.3531C19.9402 50.3531 18.9155 56.9896 32.1805 56.9896ZM38.8595 53.1549C38.5732 53.1551 38.2897 53.099 38.0252 52.9896C37.7607 52.8802 37.5204 52.7197 37.3179 52.5173C37.1155 52.3149 36.955 52.0746 36.8456 51.8101C36.7362 51.5456 36.68 51.2621 36.6802 50.9759C36.6799 50.6896 36.7361 50.4061 36.8455 50.1415C36.9549 49.877 37.1154 49.6366 37.3179 49.4342C37.5203 49.2318 37.7606 49.0713 38.0252 48.9619C38.2897 48.8525 38.5732 48.7963 38.8595 48.7966C39.1457 48.7963 39.4292 48.8525 39.6938 48.962C39.9583 49.0714 40.1986 49.2319 40.401 49.4343C40.6034 49.6367 40.764 49.8771 40.8734 50.1416C40.9828 50.4061 41.039 50.6896 41.0387 50.9759C41.039 51.2621 40.9827 51.5456 40.8733 51.81C40.7639 52.0745 40.6033 52.3148 40.4009 52.5172C40.1985 52.7196 39.9582 52.8801 39.6937 52.9895C39.4292 53.0989 39.1457 53.1551 38.8595 53.1549Z" fill="url(#paint1_linear_1126_1832)"/>
</g>
<defs>
<linearGradient id="paint0_linear_1126_1832" x1="11.805" y1="11.724" x2="36.5833" y2="36.255" gradientUnits="userSpaceOnUse">
<stop stop-color="#387EB8"/>
<stop offset="1" stop-color="#366994"/>
</linearGradient>
<linearGradient id="paint1_linear_1126_1832" x1="27.0142" y1="27.4763" x2="53.6232" y2="52.6306" gradientUnits="userSpaceOnUse">
<stop stop-color="#FFE052"/>
<stop offset="1" stop-color="#FFC331"/>
</linearGradient>
<clipPath id="clip0_1126_1832">
<rect width="64" height="64" fill="white"/>
</clipPath>
</defs>
</svg>
