<svg width="64" height="64" viewBox="0 0 64 64" fill="none" xmlns="http://www.w3.org/2000/svg">
<g clip-path="url(#clip0_1126_1910)">
<path d="M49 0H15C6.71573 0 0 6.71573 0 15V49C0 57.2843 6.71573 64 15 64H49C57.2843 64 64 57.2843 64 49V15C64 6.71573 57.2843 0 49 0Z" fill="#242938"/>
<path d="M31.9999 36.7377C34.5759 36.7377 36.6639 34.6494 36.6639 32.0737C36.6639 29.4979 34.5759 27.4097 31.9999 27.4097C29.4242 27.4097 27.3359 29.4979 27.3359 32.0737C27.3359 34.6494 29.4242 36.7377 31.9999 36.7377Z" fill="#00D8FF"/>
<path d="M32.0005 22.5908C38.2625 22.5908 44.0797 23.4893 48.466 24.9996C53.7507 26.8188 57 29.5766 57 32.0738C57 34.6761 53.5565 37.6058 47.8812 39.4861C43.5907 40.9076 37.9447 41.6496 32.0005 41.6496C25.906 41.6496 20.1347 40.9531 15.7957 39.4703C10.3062 37.5941 7 34.6266 7 32.0738C7 29.5968 10.1025 26.8603 15.313 25.0438C19.7155 23.5088 25.6763 22.5908 31.9995 22.5908H32.0005Z" stroke="#00D8FF" stroke-width="2.22775"/>
<path d="M23.7448 27.3595C26.8733 21.935 30.5575 17.3445 34.057 14.2995C38.273 10.6302 42.2855 9.19325 44.4485 10.4405C46.7028 11.7405 47.5205 16.1875 46.3143 22.043C45.403 26.4697 43.2245 31.7312 40.2548 36.8807C37.21 42.1602 33.7238 46.8117 30.272 49.8287C25.9043 53.6467 21.6815 55.0285 19.4703 53.7532C17.3245 52.5167 16.504 48.4615 17.5335 43.0402C18.4033 38.4595 20.586 32.8372 23.7438 27.3595H23.7448Z" stroke="#00D8FF" stroke-width="2.22775"/>
<path d="M23.7532 36.8944C20.6159 31.4759 18.4799 25.9904 17.5884 21.4379C16.5152 15.9526 17.2739 11.7589 19.4352 10.5079C21.6874 9.2039 25.9482 10.7164 30.4187 14.6859C33.7987 17.6869 37.2694 22.2011 40.2477 27.3456C43.3012 32.6201 45.5897 37.9639 46.4799 42.4609C47.6064 48.1519 46.6947 52.5001 44.4854 53.7789C42.3419 55.0199 38.4192 53.7061 34.2364 50.1066C30.7024 47.0656 26.9214 42.3669 23.7532 36.8944Z" stroke="#00D8FF" stroke-width="2.22775"/>
</g>
<defs>
<clipPath id="clip0_1126_1910">
<rect width="64" height="64" fill="white"/>
</clipPath>
</defs>
</svg>
