<svg width="24" height="24" viewBox="0 0 24 24" fill="none" xmlns="http://www.w3.org/2000/svg">
<g clip-path="url(#clip0_916_27)">
<path d="M18.375 0H5.625C2.5184 0 0 2.5184 0 5.625V18.375C0 21.4816 2.5184 24 5.625 24H18.375C21.4816 24 24 21.4816 24 18.375V5.625C24 2.5184 21.4816 0 18.375 0Z" fill="#FF4500"/>
<path d="M12 24C18.6274 24 24 18.6274 24 12C24 5.37258 18.6274 0 12 0C5.37258 0 0 5.37258 0 12C0 18.6274 5.37258 24 12 24Z" fill="#FF4500"/>
<path d="M19.9832 12.1144C19.9832 11.1416 19.1965 10.3691 18.2379 10.3691C17.785 10.3684 17.3494 10.5427 17.0219 10.8555C15.8202 9.99705 14.1749 9.43924 12.3438 9.36771L13.1448 5.61949L15.7485 6.1773C15.7773 6.83543 16.3208 7.36483 16.9933 7.36483C17.68 7.36483 18.2379 6.80702 18.2379 6.12002C18.2379 5.43339 17.68 4.87549 16.9933 4.87549C16.507 4.87549 16.0776 5.16161 15.8773 5.57655L12.9733 4.96136C12.8875 4.94693 12.8016 4.96136 12.7443 5.0043C12.6728 5.04724 12.6299 5.11868 12.6158 5.20455L11.7285 9.38186C9.8688 9.43924 8.19489 9.99705 6.97895 10.8699C6.65145 10.5571 6.2158 10.3828 5.76292 10.3835C4.79008 10.3835 4.01758 11.1701 4.01758 12.1288C4.01758 12.844 4.44667 13.4448 5.0477 13.7169C5.01852 13.8918 5.00415 14.0688 5.00477 14.2462C5.00477 16.9355 8.13789 19.1245 12.0005 19.1245C15.8632 19.1245 18.9963 16.9499 18.9963 14.2462C18.9962 14.0689 18.9818 13.8919 18.9534 13.7169C19.5541 13.4448 19.9832 12.8296 19.9832 12.1144ZM7.99464 13.3589C7.99464 12.6723 8.55245 12.1144 9.23945 12.1144C9.92608 12.1144 10.484 12.6722 10.484 13.3589C10.484 14.0456 9.92617 14.6037 9.23945 14.6037C8.55255 14.6178 7.99464 14.0456 7.99464 13.3589ZM14.9619 16.6637C14.1035 17.5222 12.4725 17.5795 12.0005 17.5795C11.5141 17.5795 9.88323 17.5077 9.03892 16.6637C8.91039 16.535 8.91039 16.3346 9.03892 16.2059C9.16773 16.0774 9.36798 16.0774 9.4968 16.2059C10.0405 16.7497 11.185 16.9355 12.0005 16.9355C12.816 16.9355 13.9747 16.7496 14.504 16.2059C14.6328 16.0774 14.833 16.0774 14.9619 16.2059C15.0762 16.3346 15.0762 16.535 14.9619 16.6637ZM14.7328 14.6179C14.0461 14.6179 13.4883 14.0601 13.4883 13.3734C13.4883 12.6866 14.0461 12.1288 14.7328 12.1288C15.4197 12.1288 15.9775 12.6866 15.9775 13.3734C15.9775 14.0456 15.4197 14.6179 14.7328 14.6179Z" fill="white"/>
</g>
<defs>
<clipPath id="clip0_916_27">
<rect width="24" height="24" fill="white"/>
</clipPath>
</defs>
</svg>
