<svg width="64" height="64" viewBox="0 0 64 64" fill="none" xmlns="http://www.w3.org/2000/svg">
<g clip-path="url(#clip0_1126_1818)">
<path d="M49 0H15C6.71573 0 0 6.71573 0 15V49C0 57.2843 6.71573 64 15 64H49C57.2843 64 64 57.2843 64 49V15C64 6.71573 57.2843 0 49 0Z" fill="#E43717"/>
<path d="M56.6435 31.3878L54.546 30.0883C54.5283 29.8838 54.5083 29.6798 54.4863 29.4768L56.2923 27.795C56.3825 27.7113 56.4497 27.6058 56.4876 27.4887C56.5254 27.3716 56.5325 27.2467 56.5083 27.126C56.4847 27.0053 56.4304 26.8926 56.3507 26.7989C56.2709 26.7052 56.1684 26.6336 56.053 26.591L53.745 25.731C53.6873 25.5313 53.6265 25.333 53.5645 25.1338L55.0028 23.1368C55.0747 23.0371 55.12 22.9207 55.1342 22.7986C55.1484 22.6765 55.1311 22.5528 55.084 22.4393C55.0369 22.3259 54.9618 22.2263 54.8657 22.1499C54.7695 22.0735 54.6556 22.0228 54.5345 22.0025L52.1023 21.6068C52.0079 21.4236 51.9104 21.2421 51.8098 21.0623L52.8325 18.8168C52.8839 18.7046 52.9056 18.5811 52.8958 18.4581C52.8859 18.3352 52.8446 18.2168 52.776 18.1143C52.7079 18.0117 52.6145 17.9283 52.5049 17.8722C52.3953 17.8161 52.2731 17.789 52.15 17.7938L49.6798 17.8798C49.5523 17.7203 49.4223 17.5623 49.2898 17.4068L49.8585 15.0035C49.8868 14.8834 49.884 14.758 49.8502 14.6393C49.8165 14.5206 49.7529 14.4125 49.6656 14.3252C49.5783 14.238 49.4702 14.1745 49.3515 14.1408C49.2327 14.1071 49.1074 14.1044 48.9873 14.1328L46.584 14.7013C46.4279 14.5689 46.2699 14.4389 46.11 14.3113L46.1965 11.8413C46.206 11.5913 46.084 11.3538 45.8758 11.2153C45.7732 11.1468 45.6548 11.1056 45.5319 11.0957C45.4089 11.0857 45.2855 11.1074 45.1733 11.1585L42.9323 12.181C42.7513 12.0815 42.5698 11.9833 42.3878 11.888L41.991 9.45625C41.9715 9.33489 41.921 9.22059 41.8445 9.12436C41.768 9.02812 41.6681 8.95318 41.5543 8.90675C41.4407 8.85956 41.317 8.84225 41.1949 8.85647C41.0728 8.87069 40.9564 8.91598 40.8568 8.988L38.8595 10.426C38.6628 10.3635 38.4653 10.3035 38.267 10.246L37.4068 7.9385C37.3639 7.82308 37.2923 7.72053 37.1987 7.64062C37.105 7.56072 36.9925 7.50611 36.8718 7.482C36.7511 7.45836 36.6264 7.46577 36.5093 7.50356C36.3923 7.54134 36.2868 7.60825 36.2028 7.698L34.5208 9.504C34.3172 9.4812 34.1134 9.46128 33.9093 9.44425L32.6095 7.342C32.5444 7.23715 32.4536 7.15069 32.3457 7.09083C32.2378 7.03097 32.1164 6.9997 31.993 7C31.7408 7 31.5105 7.1295 31.3815 7.342L30.0818 9.4445C29.8773 9.461 29.6728 9.4815 29.4703 9.504L27.7883 7.698C27.7042 7.60819 27.5987 7.54124 27.4817 7.50346C27.3647 7.46567 27.2399 7.45829 27.1193 7.482C26.9984 7.50587 26.8858 7.56035 26.7921 7.64024C26.6983 7.72013 26.6267 7.82274 26.584 7.93825L25.724 10.2458C25.5243 10.3033 25.3265 10.364 25.1315 10.426L23.134 8.988C23.0344 8.91587 22.918 8.87052 22.7959 8.85629C22.6737 8.84206 22.55 8.85944 22.4365 8.90675C22.3231 8.95383 22.2236 9.02896 22.1472 9.12508C22.0709 9.2212 22.0202 9.33517 22 9.45625L21.6035 11.888C21.42 11.983 21.2385 12.081 21.0588 12.181L18.8178 11.1585C18.7057 11.1074 18.5824 11.0857 18.4596 11.0956C18.3368 11.1055 18.2186 11.1466 18.1161 11.2149C18.0136 11.2833 17.9303 11.3768 17.8741 11.4864C17.8178 11.596 17.7905 11.7181 17.7948 11.8413L17.8808 14.3113C17.721 14.4391 17.563 14.5692 17.4068 14.7013L15.0033 14.1328C14.8831 14.1047 14.7578 14.1076 14.6391 14.1413C14.5204 14.175 14.4122 14.2383 14.3248 14.3253C14.1473 14.5025 14.0748 14.758 14.1323 15.0035L14.696 17.4068C14.5643 17.5627 14.4346 17.7204 14.307 17.8798L11.837 17.7938C11.714 17.7898 11.592 17.8171 11.4825 17.8731C11.373 17.9292 11.2795 18.0122 11.2108 18.1143C11.1422 18.2168 11.101 18.3352 11.0911 18.4581C11.0811 18.5811 11.1028 18.7045 11.154 18.8168L12.1765 21.0623C12.077 21.2423 11.9788 21.424 11.8835 21.6068L9.4515 22.0025C9.33014 22.0221 9.21586 22.0725 9.11963 22.149C9.0234 22.2255 8.94846 22.3254 8.902 22.4393C8.855 22.5528 8.83779 22.6765 8.85201 22.7986C8.86623 22.9206 8.91141 23.037 8.98325 23.1368L10.4215 25.1338C10.3582 25.3319 10.298 25.531 10.2408 25.731L7.933 26.591C7.8178 26.634 7.7155 26.7057 7.63578 26.7994C7.55607 26.893 7.50158 27.0054 7.4775 27.126C7.45362 27.2467 7.46092 27.3715 7.49872 27.4885C7.53651 27.6056 7.60356 27.7111 7.6935 27.795L9.49975 29.4768C9.47725 29.6798 9.45725 29.8843 9.44 30.0883L7.3425 31.3878C7.23753 31.4527 7.15094 31.5434 7.09098 31.6513C7.03102 31.7591 6.9997 31.8806 7 32.004C7 32.2568 7.1295 32.4868 7.34225 32.6158L9.43975 33.9153C9.457 34.1198 9.47725 34.3238 9.4995 34.5268L7.69325 36.2085C7.60337 36.2924 7.5364 36.3978 7.49868 36.5149C7.46097 36.6319 7.45377 36.7566 7.47775 36.8772C7.50174 36.9978 7.55613 37.1102 7.63575 37.2039C7.71538 37.2976 7.81761 37.3694 7.93275 37.4125L10.2405 38.2725C10.298 38.4723 10.3585 38.6705 10.4213 38.8698L8.983 40.8668C8.91101 40.9667 8.86582 41.0835 8.85174 41.2059C8.83767 41.3283 8.85518 41.4523 8.90261 41.566C8.95003 41.6798 9.02579 41.7794 9.12266 41.8556C9.21953 41.9317 9.33429 41.9818 9.456 42.001L11.8883 42.3965C11.9833 42.581 12.0808 42.7625 12.181 42.9413L11.1585 45.182C11.1074 45.2941 11.0857 45.4173 11.0956 45.5401C11.1054 45.6629 11.1465 45.7812 11.2149 45.8836C11.2833 45.9861 11.3767 46.0693 11.4864 46.1255C11.596 46.1817 11.7181 46.209 11.8413 46.2048L14.3068 46.1185C14.4347 46.2781 14.5647 46.436 14.6968 46.5923L14.133 48.9955C14.0755 49.2393 14.148 49.4925 14.3255 49.6693C14.4127 49.7567 14.5209 49.8202 14.6397 49.8538C14.7585 49.8874 14.8839 49.89 15.004 49.8613L17.4075 49.2975C17.5635 49.4296 17.7215 49.5593 17.8815 49.6865L17.7955 52.1565C17.7909 52.2795 17.818 52.4016 17.8741 52.5112C17.9302 52.6207 18.0135 52.7141 18.116 52.7823C18.3235 52.9213 18.5893 52.9425 18.8185 52.8383L21.0595 51.8158C21.24 51.9163 21.4218 52.0135 21.6043 52.1088L22.0008 54.5405C22.0408 54.788 22.2063 54.9973 22.4375 55.0948C22.6683 55.1908 22.9345 55.1598 23.135 55.014L25.1325 53.576C25.3298 53.6385 25.528 53.6998 25.7298 53.757L26.5898 56.0645C26.6326 56.1798 26.7043 56.2823 26.798 56.362C26.8917 56.4417 27.0043 56.4961 27.125 56.52C27.2457 56.5442 27.3705 56.537 27.4877 56.4992C27.6048 56.4614 27.7102 56.3942 27.794 56.304L29.476 54.498C29.679 54.5215 29.8835 54.541 30.0875 54.5593L31.3873 56.6565C31.4517 56.7608 31.5417 56.8469 31.6487 56.9068C31.7557 56.9667 31.8761 56.9983 31.9988 56.9988C32.2468 56.9988 32.4815 56.8688 32.6153 56.6565L33.915 54.5593C34.1191 54.5415 34.3229 54.5211 34.5265 54.498L36.2085 56.304C36.2922 56.3943 36.3977 56.4615 36.5148 56.4993C36.6319 56.5372 36.7568 56.5443 36.8775 56.52C36.9983 56.4963 37.1109 56.442 37.2046 56.3622C37.2983 56.2825 37.3699 56.1799 37.4125 56.0645L38.2728 53.757C38.4723 53.6998 38.6708 53.6385 38.87 53.576L40.8673 55.014C40.9673 55.0861 41.0841 55.1313 41.2065 55.1454C41.329 55.1595 41.453 55.1419 41.5668 55.0945C41.6806 55.047 41.7802 54.9711 41.8563 54.8741C41.9324 54.7772 41.9824 54.6623 42.0015 54.5405L42.3983 52.1088C42.5818 52.0135 42.7633 51.9148 42.943 51.8158L45.184 52.8383C45.296 52.8896 45.4193 52.9115 45.5421 52.9018C45.6649 52.8921 45.7832 52.8511 45.8857 52.7828C45.9883 52.7145 46.0716 52.6211 46.1278 52.5115C46.1841 52.4018 46.2113 52.2796 46.207 52.1565L46.121 49.6865C46.2808 49.5593 46.4387 49.4296 46.5945 49.2975L48.9978 49.8613C49.1179 49.8899 49.2433 49.8873 49.3621 49.8536C49.481 49.82 49.5892 49.7566 49.6765 49.6693C49.7635 49.5828 49.8269 49.4754 49.8606 49.3575C49.8943 49.2395 49.8972 49.1149 49.869 48.9955L49.305 46.5923C49.4372 46.4364 49.5669 46.2785 49.694 46.1185L52.1645 46.2048C52.2875 46.2095 52.4097 46.1825 52.5193 46.1263C52.6289 46.0702 52.7222 45.9868 52.7903 45.8843C52.859 45.7818 52.9003 45.6635 52.9102 45.5405C52.9201 45.4175 52.8983 45.2941 52.8468 45.182L51.8243 42.9413C51.924 42.7603 52.022 42.5785 52.1168 42.3965L54.5488 42.001C54.6702 41.9817 54.7846 41.9314 54.8809 41.8548C54.9772 41.7783 55.052 41.6782 55.0983 41.5643C55.1454 41.4507 55.1628 41.327 55.1485 41.2049C55.1343 41.0828 55.089 40.9664 55.017 40.8668L53.5788 38.8698C53.641 38.6723 53.7015 38.474 53.7595 38.2725L56.0673 37.4125C56.1826 37.3696 56.285 37.2979 56.3647 37.2042C56.4445 37.1105 56.4989 36.998 56.5228 36.8773C56.5469 36.7566 56.5397 36.6318 56.5019 36.5147C56.4641 36.3976 56.3969 36.2922 56.3068 36.2085L54.5005 34.5268C54.5225 34.3238 54.5425 34.1193 54.5603 33.9153L56.658 32.6158C56.7624 32.5513 56.8486 32.4613 56.9084 32.3543C56.9683 32.2472 56.9998 32.1267 57 32.004C57 31.7563 56.871 31.5215 56.6583 31.3878H56.6435ZM42.5955 48.8265C41.7928 48.6535 41.2863 47.8613 41.4583 47.0588C41.4989 46.8679 41.5768 46.687 41.6875 46.5263C41.7981 46.3656 41.9394 46.2283 42.1031 46.1222C42.2669 46.0162 42.45 45.9434 42.6419 45.9082C42.8338 45.8729 43.0307 45.8758 43.2215 45.9168C44.0243 46.0883 44.5355 46.8818 44.3635 47.6845C44.3228 47.8753 44.2449 48.0562 44.1342 48.2169C44.0236 48.3776 43.8823 48.5149 43.7186 48.6209C43.5548 48.727 43.3717 48.7997 43.1799 48.835C42.988 48.8703 42.791 48.8674 42.6003 48.8265H42.5955ZM41.8835 44.001C41.1525 43.8443 40.431 44.3095 40.278 45.0425L39.5328 48.5205C37.2343 49.5623 34.6588 50.145 31.983 50.145C29.2308 50.145 26.6315 49.5383 24.29 48.449L23.5448 44.9708C23.388 44.2398 22.6703 43.7715 21.9393 43.9293L18.8668 44.5885C18.2972 44 17.7672 43.3743 17.2803 42.7158H32.2363C32.4055 42.7158 32.5183 42.6853 32.5183 42.5313V37.228C32.5183 37.0743 32.4055 37.0438 32.2363 37.0438H27.8643V33.6945H32.5898C33.0213 33.6945 34.8978 33.8178 35.495 36.217C35.6828 36.9528 36.097 39.3513 36.379 40.1205C36.66 40.9805 37.803 42.7005 39.0215 42.7005H46.4755C46.56 42.7005 46.6503 42.6908 46.7455 42.6738C46.2286 43.3748 45.6634 44.0389 45.054 44.6613L41.9098 43.9875L41.8835 44.001ZM21.1938 48.7548C21.003 48.7958 20.806 48.7989 20.614 48.7637C20.422 48.7285 20.2389 48.6558 20.0751 48.5497C19.9113 48.4436 19.7701 48.3062 19.6594 48.1455C19.5488 47.9847 19.471 47.8037 19.4305 47.6128C19.259 46.8103 19.769 46.017 20.5725 45.845C20.9578 45.7626 21.36 45.8367 21.6906 46.0508C22.0213 46.265 22.2534 46.6017 22.3358 46.987C22.5073 47.7898 21.997 48.5828 21.1938 48.7548ZM15.5078 25.774C15.6673 26.1346 15.6775 26.5437 15.5359 26.9117C15.3944 27.2798 15.1128 27.5767 14.7528 27.7375C14.3928 27.8972 13.9843 27.9074 13.6168 27.7659C13.2494 27.6243 12.9533 27.3426 12.7935 26.9828C12.4593 26.2335 12.7993 25.3535 13.5485 25.019C13.9085 24.8595 14.317 24.8494 14.6844 24.9909C15.0518 25.1325 15.3479 25.4142 15.5078 25.774ZM13.7635 29.902L16.965 28.4783C17.6483 28.1748 17.959 27.3745 17.653 26.6913L16.9938 25.2008H19.5835V36.8583H14.3753C13.9116 35.2264 13.6769 33.5381 13.6778 31.8418C13.6777 31.1858 13.7126 30.5303 13.7823 29.878L13.7635 29.902ZM27.8118 28.7695V25.3298H33.9755C34.2943 25.3298 36.226 25.698 36.226 27.1405C36.226 28.3395 34.7448 28.7695 33.5265 28.7695H27.7925H27.8118ZM50.2215 31.8655C50.2215 32.3223 50.2048 32.7733 50.1715 33.2225H48.2935C48.1058 33.2225 48.0303 33.3458 48.0303 33.5295V34.3895C48.0303 36.4153 46.8883 36.8598 45.8848 36.9695C44.9293 37.077 43.8733 36.5703 43.7443 35.9853C43.1803 32.8178 42.2438 32.144 40.7625 30.9688C42.6023 29.803 44.5135 28.0783 44.5135 25.761C44.5135 23.272 42.8078 21.7048 41.6465 20.9355C40.0125 19.8605 38.2063 19.6455 37.7188 19.6455H18.3193C20.9518 16.7123 24.531 14.629 28.5445 13.8645L30.8335 16.263C30.9563 16.3919 31.1033 16.4952 31.2662 16.5672C31.429 16.6392 31.6044 16.6783 31.7824 16.6824C31.9603 16.6865 32.1374 16.6554 32.3033 16.591C32.4693 16.5266 32.6209 16.4301 32.7495 16.307L35.3105 13.8608C40.6623 14.8593 45.2015 18.1943 47.8295 22.795L46.076 26.751C45.7735 27.4343 46.0823 28.237 46.764 28.538L50.1375 30.038C50.1958 30.6353 50.2263 31.242 50.2263 31.8535L50.2215 31.8655ZM30.822 11.847C30.9627 11.7121 31.1287 11.6063 31.3104 11.5357C31.4921 11.4651 31.6859 11.4311 31.8808 11.4356C32.0756 11.44 32.2677 11.483 32.446 11.5618C32.6242 11.6407 32.7851 11.754 32.9195 11.8953C33.191 12.1809 33.3383 12.5625 33.3291 12.9565C33.3199 13.3506 33.1549 13.7249 32.8703 13.9975C32.7295 14.1324 32.5636 14.2382 32.3818 14.3088C32.2001 14.3794 32.0063 14.4134 31.8114 14.4089C31.6165 14.4044 31.4244 14.3614 31.2462 14.2824C31.0679 14.2035 30.907 14.0901 30.7728 13.9488C30.5013 13.6631 30.354 13.2815 30.3633 12.8875C30.3725 12.4935 30.5374 12.1192 30.822 11.8465V11.847ZM48.2148 25.8458C48.2935 25.6673 48.4067 25.5062 48.5479 25.3716C48.6891 25.237 48.8555 25.1316 49.0375 25.0614C49.2195 24.9913 49.4135 24.9578 49.6085 24.9628C49.8035 24.9678 49.9956 25.0113 50.1738 25.0908C50.3523 25.1701 50.5135 25.2838 50.6481 25.4254C50.7826 25.5671 50.888 25.7338 50.9581 25.9162C51.0282 26.0986 51.0617 26.293 51.0567 26.4883C51.0517 26.6836 51.0082 26.876 50.9288 27.0545C50.8499 27.2329 50.7367 27.394 50.5955 27.5285C50.4543 27.6631 50.2879 27.7684 50.1059 27.8386C49.9239 27.9087 49.7299 27.9422 49.5349 27.9372C49.34 27.9321 49.1479 27.8887 48.9698 27.8093C48.7912 27.73 48.63 27.6163 48.4955 27.4746C48.3609 27.333 48.2555 27.1663 48.1854 26.9839C48.1153 26.8016 48.0818 26.6072 48.0868 26.4119C48.0919 26.2166 48.1353 26.0242 48.2148 25.8458Z" fill="white"/>
</g>
<defs>
<clipPath id="clip0_1126_1818">
<rect width="64" height="64" fill="white"/>
</clipPath>
</defs>
</svg>
