<svg width="1300" height="768" viewBox="0 0 1300 768" fill="none" xmlns="http://www.w3.org/2000/svg">
<rect width="1300" height="768" rx="64" fill="white"/>
<path d="M194 192H66V64H194L130 127.974L194 192Z" fill="url(#paint0_linear_910_217)"/>
<path d="M436.561 106.46L452.373 78.9554C452.809 78.1962 452.926 77.2948 452.701 76.4488C452.475 75.6027 451.924 74.881 451.169 74.4418C450.413 74.0048 449.515 73.8868 448.672 74.1138C447.83 74.3407 447.111 74.894 446.675 75.6521L430.666 103.505C418.421 97.8934 404.672 94.7674 390 94.7674C375.329 94.7674 361.577 97.8934 349.335 103.505L333.326 75.6514C332.889 74.8933 332.17 74.3402 331.328 74.1134C330.485 73.8866 329.587 74.0047 328.831 74.4418C328.076 74.8807 327.525 75.6025 327.299 76.4487C327.073 77.2949 327.191 78.1965 327.627 78.9554L343.439 106.46C316.288 121.292 297.718 148.9 295.002 181.516H484.999C482.28 148.9 463.709 121.292 436.561 106.46ZM433.651 138.45C437.977 138.45 441.495 142.047 441.495 146.467C441.495 150.889 437.977 154.488 433.651 154.488C429.327 154.488 425.81 150.889 425.81 146.467C425.81 142.047 429.327 138.45 433.651 138.45ZM346.349 138.45C350.672 138.45 354.191 142.047 354.191 146.467C354.191 150.889 350.672 154.488 346.349 154.488C342.023 154.488 338.506 150.889 338.506 146.467C338.506 142.047 342.024 138.45 346.349 138.45Z" fill="#3DDC84"/>
<path d="M649.521 64C651.911 64.0406 654.253 64.6753 656.334 65.8466L699.74 90.2713C701.487 91.256 703.034 92.5587 704.299 94.1118L704.342 94.0863L704.989 95.0315L705.065 95.1398L705.873 96.3258L705.815 96.3603C706.887 98.3058 707.477 100.429 707.498 102.589V152.24C707.522 154.748 706.882 157.219 705.644 159.403C704.406 161.587 702.613 163.407 700.445 164.682L657.51 189.922C655.729 190.969 653.741 191.619 651.684 191.827L651.684 191.89L648.938 191.913L648.939 191.845C646.91 191.663 644.943 191.053 643.168 190.055L597.563 164.39C594.464 162.652 592.536 159.395 592.5 155.836V103.253C592.526 101.399 592.85 99.6091 593.464 97.963L593.413 97.9339L594.588 95.4871L594.654 95.5238C595.747 93.7519 597.258 92.2737 599.057 91.2183L641.992 65.984C644.16 64.7081 646.627 64.0238 649.145 64H649.521ZM595.869 99.3038L595.773 99.6082C595.391 100.868 595.202 102.229 595.216 103.648V155.823C595.228 157.089 595.575 158.329 596.221 159.419C596.867 160.51 597.79 161.411 598.897 162.033L644.504 187.699C645.856 188.459 647.346 188.942 648.887 189.119L648.982 189.128L648.993 186.921L649.002 177.663L648.987 167.153L648.926 167.147C647.982 167.023 647.063 166.755 646.202 166.35L645.882 166.192L645.598 166.039L617.969 150.491C616.964 149.927 616.127 149.109 615.541 148.12C614.954 147.127 614.639 145.997 614.63 144.845L614.63 113.241C614.62 112.235 614.747 111.255 615.007 110.331L615.096 110.035L595.869 99.3038ZM703.482 97.7495L684.525 109.029L684.567 109.116C685.035 110.122 685.308 111.193 685.36 112.286L685.369 112.585L685.368 142.661C685.384 144.274 684.973 145.863 684.176 147.268C683.38 148.673 682.227 149.844 680.832 150.663L654.822 165.952C653.926 166.479 652.948 166.85 651.928 167.049L651.704 167.089L651.709 169.227L651.718 181.615L651.7 188.89L651.697 189.1L652.103 189.043C653.404 188.832 654.659 188.402 655.815 187.77L656.129 187.592L699.065 162.352C700.822 161.319 702.276 159.843 703.279 158.072C704.284 156.298 704.802 154.291 704.781 152.253L704.782 102.602C704.767 101.068 704.379 99.5348 703.661 98.0941L703.482 97.7495ZM648.202 102.751C647.792 102.872 647.396 103.043 647.028 103.26L629.592 113.507C629.086 113.804 628.64 114.195 628.28 114.658C628.069 114.93 627.888 115.223 627.74 115.533L627.646 115.766C627.424 116.289 627.284 116.843 627.228 117.409C627.208 117.63 627.198 117.854 627.2 118.08V139.275C627.206 139.885 627.374 140.483 627.685 141.009C627.996 141.535 628.441 141.97 628.975 142.269L647.496 152.692C648.299 153.144 649.208 153.378 650.13 153.37L650.328 153.363L650.329 159.069L650.342 164.513L650.328 153.362C651.189 153.325 652.027 153.078 652.769 152.643L670.204 142.394C671.001 141.925 671.661 141.256 672.116 140.453C672.189 140.324 672.254 140.192 672.316 140.057C672.639 139.355 672.803 138.591 672.797 137.819L672.798 117.652C672.793 117.289 672.746 116.927 672.655 116.574C672.596 116.341 672.519 116.112 672.426 115.89C672.324 115.647 672.204 115.412 672.066 115.188L671.986 115.061L671.904 114.935C671.778 114.75 671.64 114.572 671.493 114.403C671.047 113.892 670.518 113.461 669.927 113.127L652.3 103.21C651.684 102.862 651.003 102.641 650.298 102.563C649.594 102.484 648.881 102.548 648.202 102.751ZM649.171 66.7055C647.13 66.7249 645.131 67.2799 643.373 68.3144L600.438 93.5483C599.151 94.3024 598.05 95.3328 597.213 96.5644L597.026 96.8486L616.297 107.599L616.497 107.327C617.084 106.564 617.799 105.91 618.612 105.393L618.866 105.238L644.876 89.95C646.27 89.1291 647.857 88.6886 649.476 88.673C651.096 88.6573 652.69 89.0671 654.1 89.8609L680.397 104.66C681.305 105.172 682.129 105.819 682.841 106.578L683.018 106.773L701.937 95.5153L701.729 95.2794C700.851 94.3125 699.834 93.4793 698.712 92.8067L698.404 92.6268L654.998 68.203C653.222 67.2026 651.212 66.6863 649.172 66.7059L649.171 66.7055Z" fill="#4285F4"/>
<path d="M888.666 149.333L909.911 170.578L931.333 192L953.861 169.472L974 149.333L931.333 106.666L888.666 149.333Z" fill="url(#paint1_linear_910_217)"/>
<path d="M931.334 106.666L910.089 85.422L888.667 64L866.139 86.528L846 106.666L888.667 149.333L931.334 106.666Z" fill="url(#paint2_linear_910_217)"/>
<path d="M888.667 149.333H931.334V106.666H888.667V149.333Z" fill="black"/>
<path d="M1231.52 140.648C1230.77 138.394 1228.83 136.824 1226.31 136.447C1225.12 136.27 1223.76 136.345 1222.15 136.677C1219.35 137.257 1217.26 137.477 1215.75 137.52C1221.48 127.83 1226.14 116.781 1228.82 106.379C1233.16 89.5602 1230.85 81.8982 1228.14 78.4325C1220.96 69.2591 1210.5 64.3311 1197.88 64.1803C1191.14 64.0979 1185.23 65.4288 1182.15 66.3859C1179.28 65.8788 1176.19 65.5956 1172.95 65.5433C1166.88 65.4463 1161.51 66.7714 1156.93 69.4948C1154.39 68.6356 1150.32 67.4245 1145.61 66.6516C1134.55 64.8334 1125.63 66.2502 1119.11 70.8625C1111.21 76.447 1107.55 86.1498 1108.23 99.7013C1108.44 104.004 1110.85 117.095 1114.63 129.51C1116.81 136.646 1119.13 142.572 1121.53 147.124C1124.93 153.58 1128.57 157.382 1132.66 158.747C1134.95 159.511 1139.12 160.047 1143.49 156.396C1144.05 157.069 1144.79 157.737 1145.77 158.358C1147.02 159.146 1148.55 159.79 1150.07 160.172C1155.57 161.546 1160.71 161.202 1165.1 159.276C1165.13 160.057 1165.15 160.804 1165.17 161.449C1165.19 162.495 1165.22 163.52 1165.26 164.479C1165.52 170.963 1165.96 176.005 1167.27 179.533C1167.34 179.727 1167.44 180.023 1167.54 180.336C1168.19 182.333 1169.28 185.676 1172.05 188.293C1174.92 191.005 1178.39 191.837 1181.57 191.837C1183.17 191.837 1184.69 191.627 1186.02 191.341C1190.78 190.32 1196.18 188.766 1200.09 183.196C1203.78 177.931 1205.58 170 1205.9 157.504C1205.95 157.151 1205.98 156.813 1206.02 156.492L1206.1 155.831L1206.97 155.908L1207.19 155.923C1212.04 156.144 1217.96 155.116 1221.6 153.424C1224.48 152.089 1233.69 147.22 1231.52 140.648Z" fill="black"/>
<path d="M1223.23 141.926C1208.83 144.9 1207.84 140.018 1207.84 140.018C1223.05 117.428 1229.41 88.7525 1223.92 81.7343C1208.95 62.5901 1183.04 71.6441 1182.61 71.8788L1182.47 71.904C1179.62 71.3125 1176.44 70.9605 1172.86 70.9018C1166.34 70.7952 1161.4 72.6124 1157.64 75.4604C1157.64 75.4604 1111.42 56.399 1113.57 99.4332C1114.03 108.588 1126.68 168.705 1141.77 150.547C1147.28 143.907 1152.61 138.293 1152.61 138.293C1155.26 140.053 1158.43 140.951 1161.75 140.628L1162.01 140.409C1161.93 141.233 1161.97 142.04 1162.11 142.994C1158.22 147.342 1159.37 148.105 1151.6 149.707C1143.73 151.329 1148.35 154.217 1151.37 154.972C1155.02 155.887 1163.48 157.184 1169.2 149.174L1168.97 150.088C1170.49 151.31 1171.56 158.032 1171.38 164.126C1171.21 170.219 1171.09 174.403 1172.29 177.671C1173.49 180.939 1174.68 188.291 1184.9 186.1C1193.43 184.269 1197.86 179.524 1198.47 171.608C1198.91 165.981 1199.9 166.813 1199.96 161.782L1200.75 159.4C1201.67 151.772 1200.9 149.311 1206.16 150.456L1207.44 150.568C1211.31 150.744 1216.37 149.945 1219.35 148.561C1225.75 145.587 1229.55 140.621 1223.23 141.926H1223.23Z" fill="#336791"/>
<path d="M1160.35 103.527C1159.05 103.346 1157.88 103.514 1157.28 103.965C1156.95 104.218 1156.84 104.512 1156.81 104.714C1156.74 105.25 1157.11 105.842 1157.35 106.148C1158 107.013 1158.95 107.607 1159.89 107.738C1160.03 107.758 1160.16 107.766 1160.3 107.766C1161.87 107.766 1163.3 106.541 1163.43 105.637C1163.58 104.504 1161.94 103.749 1160.35 103.527ZM1203.35 103.563C1203.23 102.675 1201.65 102.422 1200.15 102.631C1198.66 102.839 1197.21 103.515 1197.33 104.405C1197.42 105.097 1198.67 106.278 1200.15 106.278C1200.28 106.278 1200.4 106.27 1200.53 106.252C1201.51 106.115 1202.24 105.488 1202.58 105.127C1203.1 104.576 1203.41 103.962 1203.35 103.563Z" fill="white"/>
<path d="M1228.03 141.588C1227.48 139.925 1225.71 139.391 1222.77 139.998C1214.05 141.799 1210.93 140.551 1209.9 139.795C1216.68 129.458 1222.26 116.963 1225.27 105.305C1226.69 99.7823 1227.48 94.6536 1227.54 90.4732C1227.61 85.8851 1226.83 82.5134 1225.22 80.4538C1218.73 72.1508 1209.2 67.697 1197.67 67.5748C1189.74 67.4856 1183.04 69.5166 1181.75 70.0877C1179.01 69.407 1176.03 68.9891 1172.78 68.9357C1166.83 68.8393 1161.69 70.2657 1157.43 73.1733C1155.58 72.4839 1150.8 70.8407 1144.95 69.8977C1134.84 68.2686 1126.81 69.503 1121.07 73.5685C1114.23 78.4199 1111.07 87.0919 1111.69 99.343C1111.89 103.465 1114.24 116.144 1117.94 128.288C1122.81 144.27 1128.11 153.318 1133.69 155.179C1134.34 155.397 1135.09 155.549 1135.92 155.549C1137.95 155.549 1140.45 154.632 1143.04 151.51C1146.2 147.711 1149.48 144.005 1152.85 140.395C1155.05 141.572 1157.45 142.229 1159.91 142.295C1159.92 142.36 1159.93 142.424 1159.93 142.488C1159.51 142.994 1159.09 143.507 1158.69 144.028C1156.98 146.195 1156.63 146.647 1151.13 147.778C1149.57 148.101 1145.42 148.957 1145.36 151.868C1145.3 155.049 1150.27 156.384 1150.83 156.526C1152.81 157.021 1154.71 157.264 1156.52 157.264C1160.93 157.264 1164.81 155.814 1167.91 153.007C1167.82 164.346 1168.29 175.519 1169.65 178.923C1170.76 181.71 1173.48 188.52 1182.08 188.52C1183.34 188.52 1184.73 188.373 1186.26 188.045C1195.23 186.12 1199.12 182.151 1200.63 173.401C1201.43 168.725 1202.82 157.558 1203.47 151.568C1204.84 151.998 1206.61 152.194 1208.52 152.193C1212.51 152.193 1217.11 151.345 1220 150.005C1223.24 148.498 1229.09 144.8 1228.03 141.588ZM1206.66 101.113C1206.63 102.881 1206.39 104.486 1206.13 106.162C1205.86 107.964 1205.57 109.827 1205.5 112.089C1205.43 114.29 1205.7 116.579 1205.97 118.792C1206.5 123.263 1207.05 127.865 1204.92 132.406C1204.57 131.778 1204.25 131.129 1203.98 130.462C1203.71 129.819 1203.14 128.786 1202.34 127.357C1199.24 121.793 1191.98 108.763 1195.7 103.446C1196.8 101.864 1199.61 100.237 1206.66 101.113ZM1198.12 71.1554C1208.45 71.3837 1216.62 75.2533 1222.41 82.656C1226.85 88.3341 1221.96 114.17 1207.81 136.459C1207.67 136.278 1207.53 136.097 1207.38 135.918L1207.21 135.694C1210.86 129.649 1210.15 123.668 1209.51 118.366C1209.25 116.19 1209 114.135 1209.06 112.204C1209.13 110.158 1209.4 108.403 1209.66 106.706C1209.98 104.615 1210.31 102.451 1210.22 99.9001C1210.29 99.6325 1210.31 99.3164 1210.28 98.9411C1210.05 96.495 1207.26 89.1743 1201.57 82.5484C1198.46 78.9241 1193.93 74.8684 1187.73 72.1328C1190.4 71.5801 1194.04 71.0647 1198.12 71.1554ZM1140.3 149.226C1137.44 152.665 1135.46 152.006 1134.82 151.79C1130.59 150.378 1125.68 141.431 1121.35 127.245C1117.61 114.969 1115.42 102.625 1115.25 99.1641C1114.7 88.2172 1117.36 80.5881 1123.13 76.4882C1132.53 69.8167 1147.98 73.8099 1154.19 75.8351C1154.1 75.9234 1154.01 76.0058 1153.92 76.0955C1143.73 86.3956 1143.97 103.994 1144 105.07C1144 105.485 1144.03 106.072 1144.08 106.88C1144.25 109.84 1144.58 115.349 1143.71 121.588C1142.9 127.385 1144.68 133.059 1148.61 137.156C1149.01 137.575 1149.43 137.975 1149.87 138.352C1148.13 140.224 1144.33 144.363 1140.3 149.226ZM1151.18 134.684C1148.02 131.382 1146.59 126.789 1147.24 122.082C1148.16 115.492 1147.82 109.753 1147.64 106.669C1147.62 106.238 1147.59 105.859 1147.58 105.561C1149.07 104.24 1155.97 100.541 1160.89 101.669C1163.13 102.183 1164.5 103.713 1165.07 106.345C1168.01 119.971 1165.46 125.65 1163.4 130.214C1162.98 131.154 1162.58 132.043 1162.24 132.962L1161.98 133.673C1161.31 135.47 1160.68 137.14 1160.3 138.727C1156.94 138.717 1153.67 137.28 1151.18 134.683V134.684ZM1151.7 153.059C1150.72 152.814 1149.84 152.388 1149.32 152.034C1149.75 151.831 1150.52 151.553 1151.85 151.278C1158.31 149.947 1159.31 149.008 1161.49 146.239C1161.99 145.603 1162.56 144.884 1163.34 144.007L1163.34 144.006C1164.51 142.697 1165.04 142.919 1166.01 143.322C1166.8 143.647 1167.56 144.632 1167.87 145.716C1168.02 146.228 1168.18 147.2 1167.64 147.956C1163.09 154.335 1156.46 154.253 1151.7 153.059ZM1185.51 184.551C1177.6 186.246 1174.81 182.21 1172.96 177.596C1171.77 174.617 1171.19 161.184 1171.6 146.349C1171.61 146.151 1171.58 145.961 1171.53 145.781C1171.48 145.427 1171.4 145.077 1171.3 144.733C1170.69 142.575 1169.18 140.769 1167.38 140.02C1166.66 139.723 1165.35 139.178 1163.77 139.583C1164.1 138.192 1164.69 136.622 1165.32 134.921L1165.59 134.206C1165.89 133.4 1166.26 132.564 1166.66 131.68C1168.81 126.905 1171.75 120.365 1168.56 105.59C1167.36 100.056 1163.37 97.3537 1157.32 97.9816C1153.69 98.3573 1150.37 99.8225 1148.71 100.663C1148.36 100.843 1148.03 101.018 1147.73 101.187C1148.19 95.6116 1149.94 85.1913 1156.47 78.5983C1160.58 74.448 1166.05 72.3981 1172.73 72.5086C1185.87 72.7239 1194.3 79.4768 1199.06 85.1045C1203.16 89.9534 1205.38 94.8383 1206.26 97.473C1199.6 96.7947 1195.07 98.111 1192.77 101.398C1187.78 108.549 1195.51 122.427 1199.22 129.097C1199.9 130.32 1200.49 131.376 1200.68 131.825C1201.89 134.76 1203.45 136.72 1204.6 138.15C1204.95 138.589 1205.29 139.014 1205.55 139.385C1203.53 139.968 1199.9 141.313 1200.23 148.038C1199.97 151.413 1198.07 167.212 1197.11 172.794C1195.84 180.169 1193.13 182.915 1185.51 184.552V184.551ZM1218.49 146.764C1216.43 147.723 1212.98 148.442 1209.7 148.596C1206.07 148.766 1204.23 148.19 1203.8 147.836C1203.59 143.645 1205.15 143.207 1206.8 142.743C1207.06 142.671 1207.31 142.599 1207.56 142.514C1207.71 142.638 1207.87 142.76 1208.06 142.88C1210.97 144.804 1216.16 145.012 1223.49 143.497L1223.57 143.481C1222.59 144.406 1220.89 145.648 1218.49 146.764Z" fill="white"/>
<path d="M175.339 345.092L167.078 437.408L129.944 447.677L92.9126 437.422L84.6602 345.092H175.339Z" fill="#E44D26"/>
<path d="M130 439.827L160.006 431.529L167.065 352.641H130V439.827Z" fill="#F16529"/>
<path d="M113.941 375.289H130.001V363.965H101.535L101.807 367.003L104.597 398.209H130.001V386.885H114.979L113.941 375.289ZM116.5 403.871H105.104L106.695 421.651L129.948 428.09L130.001 428.076V416.294L129.951 416.307L117.308 412.902L116.5 403.871Z" fill="#EBEBEB"/>
<path d="M93.0977 320H98.8666V325.686H104.144V320H109.913V337.217H104.144V331.452H98.867V337.217H93.098L93.0977 320ZM117.499 325.71H112.421V320H128.35V325.71H123.269V337.217H117.5V325.71H117.499ZM130.878 320H136.894L140.594 326.05L144.291 320H150.308V337.217H144.563V328.683L140.594 334.805H140.494L136.523 328.683V337.217H130.878V320ZM153.179 320H158.95V331.526H167.063V337.217H153.179V320H153.179Z" fill="black"/>
<path d="M129.961 398.209H143.94L142.622 412.895L129.961 416.304V428.085L153.233 421.651L153.404 419.738L156.072 389.926L156.349 386.885H129.961V398.209ZM129.961 375.261V375.289H157.382L157.609 372.744L158.127 367.003L158.398 363.965H129.961V375.261Z" fill="white"/>
<path d="M389.944 447.677L352.913 437.422L344.66 345.092H435.339L427.078 437.408L389.944 447.677Z" fill="#264DE4"/>
<path d="M420.006 431.529L427.065 352.641H390V439.827L420.006 431.529Z" fill="#2965F1"/>
<path d="M363.58 386.885L364.597 398.209H390.001V386.885H363.58ZM361.535 363.965L362.567 375.289H390.001V363.965H361.535ZM390.001 416.294L389.951 416.307L377.308 412.902L376.5 403.871H365.104L366.695 421.651L389.948 428.09L390.001 428.076V416.294Z" fill="#EBEBEB"/>
<path d="M366.002 320H379.751V325.736H371.752V331.471H379.751V337.206H366.002V320ZM382.501 320H396.25V324.987H388.251V325.985H396.25V337.456H382.501V332.219H390.501V331.221H382.5L382.501 320ZM399 320H412.749V324.987H404.75V325.985H412.749V337.456H399V332.219H406.999V331.221H399V320H399Z" fill="black"/>
<path d="M416.349 386.885L418.398 363.965H389.961V375.289H405.957L404.924 386.885H389.961V398.209H403.94L402.622 412.895L389.961 416.304V428.085L413.233 421.651L413.404 419.738L416.072 389.926L416.349 386.885Z" fill="white"/>
<path d="M696.396 361.445C694.864 360.92 693.318 360.434 691.761 359.987C692.023 358.92 692.263 357.867 692.477 356.831C695.986 339.831 693.692 326.136 685.857 321.627C678.345 317.304 666.06 321.812 653.652 332.589C652.429 333.653 651.233 334.748 650.066 335.872C649.285 335.124 648.489 334.391 647.68 333.673C634.677 322.15 621.642 317.293 613.816 321.815C606.31 326.151 604.088 339.026 607.247 355.137C607.561 356.733 607.916 358.32 608.311 359.898C606.466 360.421 604.686 360.978 602.982 361.571C587.736 366.876 578 375.19 578 383.814C578 392.72 588.452 401.654 604.332 407.071C605.619 407.508 606.917 407.913 608.225 408.286C607.8 409.985 607.423 411.696 607.094 413.416C604.082 429.248 606.434 441.818 613.919 446.127C621.65 450.577 634.626 446.004 647.26 434.98C648.285 434.084 649.287 433.163 650.265 432.217C651.529 433.434 652.827 434.616 654.158 435.761C666.396 446.272 678.483 450.516 685.961 446.196C693.685 441.733 696.195 428.229 692.936 411.799C692.679 410.512 692.392 409.232 692.073 407.958C692.984 407.689 693.878 407.412 694.75 407.123C711.258 401.664 721.999 392.839 721.999 383.814C721.999 375.158 711.949 366.788 696.396 361.445ZM692.816 401.296C692.028 401.556 691.221 401.807 690.397 402.051C688.575 396.292 686.115 390.17 683.105 383.843C685.978 377.668 688.342 371.623 690.114 365.902C691.587 366.328 693.016 366.777 694.394 367.25C707.72 371.829 715.848 378.598 715.848 383.814C715.848 389.369 707.069 396.582 692.816 401.296ZM686.902 412.992C688.343 420.256 688.548 426.825 687.594 431.96C686.736 436.574 685.012 439.65 682.879 440.882C678.341 443.504 668.636 440.096 658.17 431.107C656.933 430.042 655.725 428.944 654.549 427.812C658.607 423.383 662.662 418.234 666.62 412.516C673.581 411.899 680.158 410.891 686.122 409.515C686.409 410.668 686.669 411.827 686.902 412.992ZM627.093 440.429C622.659 441.992 619.128 442.037 616.993 440.808C612.451 438.194 610.562 428.1 613.138 414.562C613.444 412.962 613.795 411.371 614.189 409.79C620.088 411.093 626.617 412.029 633.594 412.594C637.579 418.189 641.751 423.332 645.956 427.836C645.062 428.699 644.148 429.54 643.213 430.358C637.625 435.232 632.027 438.69 627.093 440.429ZM606.322 401.261C599.3 398.866 593.501 395.753 589.527 392.356C585.955 389.303 584.152 386.272 584.152 383.814C584.152 378.58 591.969 371.905 605.007 367.368C606.589 366.818 608.245 366.299 609.964 365.812C611.766 371.661 614.13 377.778 616.982 383.963C614.093 390.239 611.695 396.454 609.876 402.372C608.682 402.031 607.497 401.661 606.322 401.261ZM613.284 353.958C610.578 340.154 612.375 329.742 616.898 327.129C621.716 324.345 632.368 328.314 643.596 338.264C644.328 338.914 645.049 339.578 645.757 340.254C641.573 344.738 637.439 349.843 633.49 355.405C626.717 356.032 620.235 357.038 614.274 358.386C613.907 356.918 613.577 355.442 613.284 353.958ZM675.399 369.266C673.991 366.839 672.531 364.442 671.02 362.078C675.615 362.658 680.017 363.428 684.151 364.369C682.91 368.339 681.363 372.489 679.542 376.745C678.211 374.225 676.83 371.731 675.399 369.266ZM650.069 344.642C652.906 347.71 655.748 351.135 658.543 354.852C652.873 354.585 647.193 354.583 641.523 354.848C644.321 351.166 647.187 347.746 650.069 344.642ZM624.576 369.308C623.163 371.753 621.808 374.231 620.511 376.74C618.72 372.5 617.187 368.33 615.935 364.304C620.044 363.386 624.425 362.636 628.99 362.067C627.462 364.446 625.99 366.86 624.576 369.308ZM629.121 405.997C624.405 405.471 619.958 404.76 615.85 403.867C617.122 399.769 618.688 395.511 620.518 391.18C621.82 393.69 623.181 396.17 624.6 398.616C626.059 401.131 627.57 403.595 629.121 405.997ZM650.239 423.417C647.323 420.278 644.415 416.804 641.575 413.069C644.332 413.177 647.143 413.232 650 413.232C652.935 413.232 655.836 413.166 658.692 413.039C655.888 416.842 653.057 420.32 650.239 423.417ZM679.6 390.958C681.525 395.337 683.147 399.573 684.435 403.601C680.26 404.552 675.752 405.318 671.003 405.887C672.525 403.479 673.999 401.041 675.423 398.574C676.872 396.067 678.265 393.528 679.6 390.958ZM670.095 395.506C667.914 399.288 665.61 402.998 663.187 406.631C658.798 406.941 654.399 407.095 650 407.093C645.518 407.093 641.159 406.953 636.962 406.682C634.476 403.058 632.128 399.341 629.924 395.54C627.729 391.759 625.68 387.896 623.78 383.96C625.676 380.023 627.719 376.158 629.906 372.374L629.905 372.375C632.091 368.59 634.42 364.889 636.887 361.281C641.17 360.958 645.561 360.789 649.999 360.789C654.457 360.789 658.855 360.959 663.136 361.285C665.579 364.888 667.893 368.576 670.075 372.342C672.269 376.117 674.339 379.963 676.282 383.873C674.359 387.823 672.295 391.703 670.095 395.506ZM682.785 326.946C687.607 329.721 689.482 340.914 686.452 355.592C686.259 356.528 686.042 357.482 685.805 358.449C679.831 357.073 673.343 356.049 666.551 355.413C662.595 349.79 658.494 344.677 654.379 340.251C655.457 339.213 656.562 338.202 657.691 337.219C668.322 327.986 678.258 324.34 682.785 326.946ZM650 370.98C657.101 370.98 662.858 376.726 662.858 383.814C662.858 390.901 657.101 396.647 650 396.647C642.898 396.647 637.141 390.901 637.141 383.814C637.141 376.726 642.898 370.98 650 370.98Z" fill="#00D8FF"/>
<path d="M888.75 448C900.479 448 909.999 438.443 909.999 426.667V405.333H888.75C877.02 405.333 867.5 414.891 867.5 426.667C867.5 438.443 877.02 448 888.75 448Z" fill="#0ACF83"/>
<path d="M867.5 384C867.5 372.224 877.02 362.667 888.75 362.667H909.999V405.333H888.75C877.02 405.333 867.5 395.776 867.5 384Z" fill="#A259FF"/>
<path d="M867.5 341.333C867.5 329.557 877.02 320 888.75 320H909.999V362.667H888.75C877.02 362.667 867.5 353.109 867.5 341.333Z" fill="#F24E1E"/>
<path d="M910 320H931.25C942.979 320 952.499 329.557 952.499 341.333C952.499 353.109 942.979 362.667 931.25 362.667H910V320Z" fill="#FF7262"/>
<path d="M952.499 384C952.499 395.776 942.979 405.333 931.25 405.333C919.52 405.333 910 395.776 910 384C910 372.224 919.52 362.667 931.25 362.667C942.979 362.667 952.499 372.224 952.499 384Z" fill="#1ABCFE"/>
<path d="M1212.73 418.163C1212.73 420.562 1231.36 421.932 1230.33 417.592C1228.84 410.282 1214.79 410.853 1212.73 418.163ZM1133.32 430.842C1137.55 434.497 1143.95 430.042 1146.01 424.902C1141.89 419.534 1126.7 425.245 1133.32 430.842ZM1210.45 423.189C1205.19 427.986 1211.36 433.012 1216.5 429.699C1217.88 428.786 1216.39 424.331 1210.45 423.189ZM1195.71 406.055C1206.91 398.174 1248.04 394.176 1229.07 375.215L1180.28 325.3C1174.23 319.589 1164.29 319.589 1158.69 325.3L1111.62 373.502C1093.79 391.321 1123.16 389.836 1133.78 396.575C1138.7 399.773 1118.01 403.885 1122.24 408.111C1126.36 412.338 1147.04 416.221 1151.15 420.333C1155.26 424.559 1142.81 429.014 1146.92 433.24C1150.92 437.467 1160.52 433.469 1162.23 443.064C1163.49 450.145 1179.83 446.604 1187.14 440.551C1191.71 436.667 1179.26 436.667 1183.37 432.441C1193.65 422.047 1202.79 427.758 1206.56 418.163C1208.62 413.023 1191.03 409.368 1195.71 406.055H1195.71ZM1155.18 402.828C1152.15 401.468 1147.12 402.597 1144.57 400.725C1142.95 399.537 1145.55 399.205 1149.95 398.632C1156.32 397.802 1166.15 401.041 1167.83 401.902C1169.5 402.763 1169.71 403.29 1169.71 403.29C1171.35 409.734 1162.43 406.094 1155.18 402.828ZM1187.48 346.431L1185.66 357.511L1178 353.398L1165.55 361.28L1161.43 344.717L1154.81 359.11L1138.24 358.995C1135.04 358.995 1135.5 355.683 1138.81 352.37C1145.32 345.174 1158 332.953 1162 328.726C1166.12 324.5 1173.32 324.614 1177.43 328.726L1196.05 347.687C1197.77 349.401 1197.77 352.942 1196.74 353.969L1187.48 346.431Z" fill="black"/>
<path d="M193.126 638.431L187.752 635.105C187.707 634.582 187.656 634.061 187.599 633.54L192.217 629.232C192.448 629.018 192.62 628.747 192.717 628.447C192.813 628.147 192.832 627.828 192.77 627.519C192.709 627.209 192.57 626.921 192.366 626.681C192.162 626.44 191.9 626.257 191.604 626.147L185.701 623.939C185.553 623.429 185.399 622.921 185.239 622.415L188.921 617.301C189.105 617.045 189.221 616.746 189.258 616.433C189.295 616.12 189.25 615.803 189.13 615.511C189.009 615.22 188.816 614.965 188.569 614.769C188.322 614.573 188.029 614.444 187.717 614.394L181.493 613.381C181.251 612.909 180.998 612.444 180.744 611.983L183.36 606.242C183.492 605.955 183.548 605.64 183.522 605.325C183.497 605.011 183.392 604.708 183.216 604.447C183.042 604.184 182.803 603.97 182.522 603.827C182.242 603.683 181.929 603.614 181.614 603.626L175.296 603.846C174.97 603.437 174.637 603.033 174.298 602.635L175.75 596.481C175.823 596.174 175.815 595.854 175.729 595.55C175.643 595.247 175.48 594.971 175.257 594.748C175.034 594.525 174.758 594.363 174.455 594.276C174.152 594.19 173.832 594.183 173.525 594.255L167.372 595.706C166.973 595.367 166.569 595.034 166.16 594.708L166.381 588.39C166.392 588.075 166.323 587.762 166.18 587.482C166.036 587.201 165.823 586.962 165.561 586.788C165.299 586.612 164.996 586.507 164.682 586.481C164.368 586.456 164.052 586.512 163.766 586.643L158.025 589.26C157.562 589.004 157.096 588.754 156.628 588.51L155.613 582.284C155.562 581.973 155.432 581.68 155.237 581.433C155.041 581.186 154.786 580.993 154.495 580.873C154.204 580.752 153.887 580.708 153.574 580.744C153.261 580.781 152.962 580.896 152.706 581.08L147.589 584.763C147.085 584.603 146.578 584.448 146.067 584.302L143.86 578.397C143.75 578.101 143.566 577.839 143.326 577.634C143.086 577.43 142.797 577.29 142.488 577.229C142.179 577.168 141.859 577.187 141.56 577.284C141.26 577.381 140.99 577.552 140.775 577.782L136.468 582.404C135.947 582.345 135.425 582.294 134.903 582.251L131.576 576.876C131.411 576.608 131.179 576.387 130.904 576.233C130.629 576.08 130.319 576 130.004 576C129.689 576 129.38 576.08 129.104 576.233C128.829 576.387 128.598 576.608 128.432 576.876L125.105 582.251C124.583 582.294 124.06 582.345 123.539 582.404L119.23 577.782C119.016 577.551 118.746 577.379 118.446 577.282C118.146 577.186 117.826 577.167 117.517 577.229C117.207 577.29 116.919 577.43 116.679 577.635C116.439 577.839 116.256 578.102 116.146 578.397L113.939 584.302C113.427 584.448 112.922 584.604 112.417 584.763L107.299 581.08C107.044 580.895 106.745 580.779 106.432 580.743C106.119 580.707 105.801 580.751 105.51 580.873C105.219 580.993 104.964 581.186 104.768 581.433C104.573 581.68 104.443 581.973 104.393 582.284L103.377 588.51C102.907 588.753 102.443 589.004 101.979 589.26L96.239 586.642C95.9525 586.511 95.6371 586.455 95.323 586.481C95.009 586.506 94.7066 586.612 94.445 586.788C94.1825 586.962 93.9691 587.201 93.8254 587.482C93.6816 587.762 93.6123 588.075 93.624 588.39L93.844 594.708C93.4353 595.035 93.0309 595.368 92.631 595.706L86.4785 594.256C86.1716 594.184 85.8514 594.191 85.5482 594.277C85.245 594.363 84.9687 594.526 84.7455 594.748C84.5222 594.971 84.3596 595.247 84.2733 595.55C84.187 595.854 84.1799 596.174 84.2525 596.481L85.702 602.635C85.3655 603.034 85.033 603.437 84.7065 603.846L78.3885 603.626C78.0739 603.616 77.7619 603.686 77.4817 603.829C77.2015 603.973 76.9623 604.185 76.7865 604.446C76.6112 604.708 76.5058 605.01 76.4803 605.325C76.4548 605.639 76.5102 605.954 76.641 606.241L79.258 611.983C79.0035 612.444 78.752 612.909 78.508 613.381L72.2835 614.394C71.9724 614.444 71.6795 614.574 71.4325 614.769C71.1854 614.965 70.9925 615.221 70.8719 615.512C70.7514 615.803 70.7072 616.12 70.7436 616.433C70.78 616.746 70.8958 617.045 71.08 617.301L74.7625 622.416C74.6025 622.921 74.447 623.428 74.3 623.939L68.396 626.147C68.1012 626.257 67.8394 626.442 67.6356 626.682C67.4319 626.922 67.2927 627.21 67.2314 627.519C67.17 627.828 67.1886 628.147 67.2852 628.447C67.3818 628.747 67.5533 629.017 67.7835 629.232L72.402 633.539C72.3445 634.059 72.2935 634.583 72.2495 635.105L66.875 638.431C66.6072 638.597 66.3862 638.828 66.2331 639.104C66.08 639.379 65.9997 639.689 66 640.004C66 640.646 66.3315 641.24 66.8755 641.575L72.2495 644.902C72.2935 645.425 72.3445 645.948 72.402 646.467L67.783 650.776C67.5524 650.99 67.3805 651.26 67.2837 651.56C67.1868 651.86 67.1682 652.18 67.2297 652.489C67.2911 652.798 67.4305 653.086 67.6346 653.326C67.8387 653.566 68.1008 653.75 68.396 653.86L74.3 656.068C74.447 656.579 74.6025 657.086 74.7625 657.591L71.08 662.707C70.8955 662.962 70.7794 663.261 70.7429 663.574C70.7064 663.887 70.7507 664.205 70.8715 664.496C70.9922 664.787 71.1855 665.043 71.4329 665.238C71.6804 665.434 71.9737 665.563 72.285 665.613L78.5085 666.625C78.752 667.097 79.0015 667.562 79.2585 668.025L76.641 673.765C76.5099 674.052 76.4545 674.367 76.4799 674.682C76.5054 674.996 76.611 675.298 76.7865 675.56C76.961 675.822 77.2 676.036 77.4805 676.179C77.7609 676.323 78.0736 676.392 78.3885 676.381L84.7035 676.16C85.033 676.57 85.3645 676.973 85.702 677.373L84.2525 683.528C84.1799 683.834 84.1871 684.154 84.2734 684.457C84.3598 684.759 84.5223 685.035 84.7455 685.257C84.9681 685.481 85.2443 685.643 85.5478 685.729C85.8513 685.815 86.1717 685.822 86.4785 685.749L92.631 684.3C93.031 684.64 93.436 684.97 93.8445 685.295L93.6245 691.614C93.6131 691.929 93.6825 692.242 93.8261 692.522C93.9696 692.803 94.1825 693.042 94.4445 693.217C94.7066 693.392 95.009 693.497 95.3231 693.522C95.6372 693.547 95.9525 693.491 96.239 693.36L101.979 690.745C102.442 691.001 102.908 691.251 103.377 691.494L104.393 697.717C104.443 698.028 104.572 698.321 104.767 698.568C104.963 698.816 105.219 699.009 105.51 699.129C105.801 699.25 106.118 699.294 106.432 699.258C106.745 699.222 107.043 699.106 107.299 698.923L112.414 695.238C112.919 695.398 113.427 695.554 113.938 695.701L116.145 701.603C116.255 701.898 116.439 702.161 116.679 702.365C116.919 702.569 117.208 702.708 117.517 702.769C117.826 702.831 118.146 702.813 118.446 702.716C118.745 702.619 119.015 702.447 119.229 702.216L123.538 697.597C124.058 697.657 124.581 697.707 125.104 697.753L128.431 703.127C128.597 703.395 128.828 703.615 129.103 703.768C129.378 703.921 129.688 704.002 130.003 704.002C130.317 704.002 130.627 703.922 130.902 703.768C131.177 703.615 131.409 703.395 131.575 703.127L134.901 697.753C135.425 697.707 135.948 697.657 136.467 697.597L140.774 702.216C140.989 702.447 141.259 702.619 141.558 702.716C141.858 702.812 142.178 702.831 142.487 702.769C142.796 702.708 143.084 702.569 143.324 702.365C143.564 702.16 143.748 701.898 143.858 701.603L146.066 695.701C146.577 695.554 147.085 695.398 147.59 695.238L152.705 698.923C152.961 699.107 153.26 699.222 153.573 699.258C153.886 699.294 154.203 699.25 154.494 699.129C154.786 699.008 155.041 698.815 155.236 698.568C155.432 698.321 155.561 698.028 155.612 697.717L156.627 691.494C157.096 691.251 157.561 690.998 158.024 690.744L163.765 693.36C164.051 693.492 164.366 693.548 164.681 693.523C164.995 693.498 165.298 693.393 165.56 693.218C165.822 693.043 166.035 692.803 166.178 692.523C166.322 692.242 166.391 691.929 166.38 691.614L166.16 685.295C166.569 684.97 166.972 684.638 167.371 684.3L173.524 685.749C174.149 685.896 174.804 685.714 175.256 685.257C175.479 685.035 175.641 684.759 175.728 684.457C175.814 684.154 175.821 683.834 175.748 683.528L174.299 677.373C174.637 676.973 174.97 676.57 175.295 676.16L181.613 676.381C181.927 676.392 182.24 676.323 182.521 676.18C182.801 676.036 183.04 675.823 183.215 675.561C183.39 675.299 183.496 674.996 183.521 674.681C183.547 674.367 183.491 674.051 183.359 673.765L180.743 668.026C180.998 667.562 181.25 667.097 181.492 666.626L187.716 665.613C188.028 665.563 188.321 665.434 188.568 665.238C188.815 665.042 189.008 664.786 189.128 664.495C189.248 664.204 189.292 663.887 189.256 663.574C189.22 663.261 189.104 662.962 188.92 662.707L185.238 657.592C185.397 657.086 185.552 656.579 185.7 656.068L191.603 653.86C191.898 653.75 192.161 653.566 192.365 653.326C192.569 653.086 192.708 652.797 192.769 652.488C192.831 652.179 192.813 651.859 192.716 651.559C192.619 651.26 192.447 650.99 192.215 650.776L187.598 646.467C187.654 645.947 187.706 645.424 187.751 644.902L193.124 641.575C193.392 641.41 193.614 641.178 193.767 640.903C193.92 640.628 194 640.318 194 640.004C194 639.363 193.67 638.768 193.126 638.431ZM157.16 683.009C155.108 682.567 153.802 680.544 154.243 678.486C154.682 676.43 156.703 675.121 158.755 675.564C160.807 676.003 162.114 678.029 161.674 680.084C161.234 682.139 159.211 683.449 157.16 683.009ZM155.334 670.66C154.888 670.564 154.429 670.557 153.981 670.64C153.533 670.722 153.105 670.892 152.723 671.139C152.341 671.387 152.011 671.708 151.753 672.083C151.495 672.458 151.313 672.88 151.218 673.326L149.311 682.229C143.423 684.901 136.885 686.386 130 686.386C122.957 686.386 116.277 684.828 110.285 682.042L108.378 673.139C107.977 671.265 106.135 670.072 104.264 670.474L96.404 672.162C94.9432 670.658 93.5855 669.058 92.34 667.372H130.585C131.017 667.372 131.306 667.293 131.306 666.899V653.371C131.306 652.977 131.018 652.899 130.585 652.899H119.4V644.324H131.497C132.601 644.324 137.402 644.639 138.937 650.775C139.418 652.662 140.473 658.8 141.195 660.765C141.914 662.969 144.841 667.371 147.961 667.371H167.019C167.235 667.371 167.466 667.347 167.71 667.303C166.387 669.098 164.939 670.798 163.375 672.388L155.334 670.66ZM102.438 682.823C100.386 683.266 98.3655 681.958 97.924 679.902C97.485 677.842 98.79 675.821 100.842 675.378C101.828 675.167 102.858 675.357 103.705 675.906C104.551 676.454 105.145 677.317 105.356 678.303C105.795 680.358 104.489 682.383 102.438 682.823ZM87.93 623.993C88.7815 625.914 87.915 628.166 85.9965 629.016C84.078 629.868 81.8325 629.001 80.9815 627.078C80.5724 626.156 80.5463 625.108 80.9088 624.167C81.2714 623.225 81.9929 622.466 82.915 622.056C83.3714 621.853 83.8633 621.743 84.3624 621.73C84.8616 621.718 85.3583 621.805 85.824 621.984C86.2898 622.164 86.7155 622.434 87.0769 622.779C87.4383 623.123 87.7282 623.536 87.93 623.993ZM83.471 634.563L91.659 630.925C92.4996 630.551 93.1573 629.858 93.4877 629C93.8181 628.141 93.7941 627.187 93.421 626.346L91.735 622.533H98.367V652.427H84.9865C83.8004 648.251 83.2003 643.931 83.2035 639.591C83.2035 637.892 83.295 636.213 83.471 634.563ZM119.402 631.66V622.848H135.195C136.011 622.848 140.955 623.791 140.955 627.488C140.955 630.558 137.163 631.658 134.045 631.658H119.402V631.66ZM176.798 639.591C176.798 640.76 176.755 641.917 176.67 643.065H171.868C171.387 643.065 171.194 643.381 171.194 643.851V646.056C171.194 651.246 168.268 652.375 165.703 652.663C163.261 652.938 160.553 651.64 160.219 650.146C158.778 642.043 156.378 640.312 152.587 637.322C157.292 634.334 162.187 629.927 162.187 624.027C162.187 617.657 157.82 613.644 154.843 611.677C150.667 608.924 146.043 608.372 144.796 608.372H95.1395C101.873 600.857 110.999 595.533 121.32 593.596L127.174 599.736C127.488 600.066 127.863 600.33 128.28 600.514C128.696 600.698 129.145 600.798 129.6 600.809C130.055 600.819 130.508 600.74 130.932 600.575C131.356 600.411 131.744 600.164 132.073 599.849L138.622 593.585C152.345 596.14 163.963 604.682 170.659 616.402L166.175 626.528C165.401 628.281 166.191 630.33 167.938 631.107L176.571 634.941C176.72 636.473 176.798 638.021 176.798 639.591ZM127.176 588.373C128.692 586.92 131.098 586.978 132.55 588.496C133.999 590.019 133.944 592.427 132.424 593.879C130.908 595.332 128.502 595.275 127.05 593.754C126.354 593.023 125.977 592.046 126 591.037C126.024 590.028 126.447 589.07 127.176 588.373ZM171.668 624.178C171.869 623.721 172.159 623.309 172.52 622.964C172.882 622.619 173.307 622.35 173.773 622.17C174.239 621.99 174.735 621.904 175.234 621.916C175.733 621.928 176.225 622.039 176.682 622.242C178.601 623.093 179.466 625.343 178.615 627.264C178.413 627.721 178.124 628.134 177.762 628.478C177.401 628.823 176.975 629.093 176.509 629.273C176.044 629.453 175.547 629.539 175.048 629.527C174.548 629.515 174.056 629.404 173.6 629.202C171.683 628.35 170.818 626.102 171.668 624.178Z" fill="black"/>
<path d="M389.453 576.036C356.785 576.036 358.825 590.149 358.825 590.149L358.861 604.77H390.036V609.16H346.479C346.479 609.16 325.574 606.798 325.574 639.634C325.574 672.47 343.82 671.306 343.82 671.306H354.709V656.068C354.709 656.068 354.122 637.892 372.664 637.892H403.584C403.584 637.892 420.956 638.172 420.956 621.167V593.052C420.956 593.052 423.594 576.036 389.453 576.036ZM372.264 585.869C373 585.868 373.73 586.012 374.411 586.292C375.091 586.573 375.71 586.984 376.231 587.503C376.752 588.022 377.165 588.638 377.446 589.317C377.728 589.995 377.873 590.722 377.872 591.455C377.873 592.189 377.728 592.916 377.446 593.594C377.165 594.272 376.752 594.888 376.231 595.407C375.71 595.926 375.091 596.338 374.411 596.618C373.73 596.899 373 597.043 372.264 597.042C371.527 597.043 370.797 596.899 370.117 596.618C369.436 596.338 368.817 595.926 368.296 595.407C367.775 594.888 367.362 594.272 367.081 593.594C366.799 592.916 366.655 592.189 366.655 591.455C366.655 590.722 366.799 589.995 367.081 589.317C367.362 588.638 367.775 588.022 368.296 587.503C368.817 586.984 369.436 586.573 370.117 586.292C370.797 586.012 371.527 585.868 372.264 585.869Z" fill="url(#paint3_linear_910_217)"/>
<path d="M390.382 703.561C423.051 703.561 421.011 689.449 421.011 689.449L420.975 674.828H389.799V670.438H433.356C433.356 670.438 454.261 672.8 454.261 639.963C454.261 607.127 436.015 608.292 436.015 608.292H425.126V623.529C425.126 623.529 425.713 641.705 407.171 641.705H376.251C376.251 641.705 358.879 641.425 358.879 658.43V686.546C358.879 686.546 356.241 703.561 390.382 703.561H390.382ZM407.572 693.73C406.835 693.731 406.106 693.586 405.425 693.306C404.744 693.025 404.126 692.614 403.605 692.095C403.084 691.576 402.671 690.96 402.389 690.282C402.108 689.604 401.963 688.877 401.964 688.143C401.963 687.409 402.108 686.682 402.389 686.004C402.671 685.326 403.084 684.71 403.605 684.191C404.126 683.672 404.744 683.26 405.425 682.98C406.106 682.699 406.835 682.555 407.572 682.556C408.309 682.555 409.038 682.699 409.719 682.98C410.4 683.26 411.018 683.672 411.539 684.191C412.06 684.709 412.473 685.326 412.755 686.004C413.037 686.682 413.181 687.409 413.18 688.143C413.181 688.876 413.037 689.603 412.755 690.281C412.473 690.959 412.06 691.576 411.539 692.094C411.018 692.613 410.4 693.025 409.719 693.305C409.038 693.586 408.309 693.731 407.572 693.73Z" fill="url(#paint4_linear_910_217)"/>
<path d="M633.314 674.95C633.314 674.95 628.468 677.789 636.763 678.75C646.812 679.905 651.947 679.739 663.021 677.627C663.021 677.627 665.933 679.467 669.999 681.06C645.174 691.78 613.815 680.439 633.314 674.95ZM630.28 660.961C630.28 660.961 624.845 665.014 633.146 665.879C643.881 666.995 652.358 667.086 667.027 664.24C667.027 664.24 669.056 666.313 672.246 667.446C642.231 676.289 608.8 668.144 630.28 660.961Z" fill="#5382A1"/>
<path d="M655.853 637.231C661.97 644.326 654.246 650.712 654.246 650.712C654.246 650.712 669.777 642.633 662.644 632.517C655.982 623.083 650.873 618.395 678.531 602.234C678.531 602.234 635.118 613.159 655.853 637.231Z" fill="#E76F00"/>
<path d="M688.686 685.296C688.686 685.296 692.272 688.273 684.736 690.577C670.407 694.95 625.096 696.271 612.509 690.751C607.984 688.768 616.469 686.016 619.138 685.438C621.922 684.83 623.513 684.943 623.513 684.943C618.481 681.371 590.988 691.956 609.548 694.987C660.163 703.257 701.815 691.263 688.686 685.296ZM635.643 646.467C635.643 646.467 612.595 651.982 627.482 653.985C633.767 654.833 646.296 654.641 657.968 653.656C667.506 652.845 677.083 651.122 677.083 651.122C677.083 651.122 673.72 652.573 671.287 654.247C647.882 660.449 602.668 657.564 615.685 651.22C626.693 645.858 635.643 646.467 635.643 646.467ZM676.988 669.751C700.781 657.295 689.78 645.324 682.102 646.937C680.22 647.331 679.381 647.673 679.381 647.673C679.381 647.673 680.08 646.571 681.414 646.094C696.604 640.713 708.286 661.963 676.51 670.379C676.51 670.38 676.879 670.048 676.988 669.751Z" fill="#5382A1"/>
<path d="M662.644 576.137C662.644 576.137 675.821 589.418 650.147 609.839C629.559 626.221 645.452 635.561 650.138 646.233C638.121 635.309 629.301 625.692 635.218 616.741C643.902 603.602 667.96 597.232 662.644 576.137Z" fill="#E76F00"/>
<path d="M637.981 703.506C660.819 704.979 695.888 702.689 696.719 691.801C696.719 691.801 695.122 695.929 677.845 699.207C658.352 702.902 634.312 702.471 620.053 700.102C620.053 700.102 622.971 702.537 637.981 703.506Z" fill="#5382A1"/>
<path d="M890.084 655.115C886.314 652.131 882.291 649.272 879.542 645.242C873.757 638.136 869.303 629.911 866.259 621.266C864.418 615.645 863.788 609.618 861.413 604.214C858.933 600.288 861.84 596 866.114 594.752C868.016 594.383 871.361 592.577 867.323 593.87C863.702 596.541 863.353 591.442 867.065 591.119C869.599 590.781 870.532 588.695 869.664 586.818C866.944 585.032 876.26 583.073 871.572 580.409C866.691 575.11 878.401 574.09 875.512 580.109C874.821 584.737 883.697 579.259 881.636 584.604C883.73 587.171 889.475 585.19 889.331 588.789C892.38 589 893.427 591.58 896.287 591.778C899.256 593.127 904.632 594.187 905.641 597.551C902.698 599.894 895.885 592.71 895.556 599.197C896.446 608.783 896.219 618.657 899.704 627.784C901.352 633.311 905.35 637.661 908.959 641.966C912.413 646.181 917.091 649.15 921.86 651.648C926.043 653.632 930.552 654.947 935.111 655.774C936.96 654.352 940.224 649.063 943.107 651.292C943.246 653.801 937.385 656.533 942.832 656.255C946.033 655.283 948.251 658.743 950.885 655.621C953.313 658.514 960.975 653.775 959.248 659.687C956.911 661.204 953.505 660.287 951.166 662.374C947.31 660.435 944.24 664.106 939.969 663.643C935.228 664.498 930.402 664.842 925.596 664.849C917.708 664.223 909.655 663.959 902.152 661.195C897.924 659.96 893.799 657.538 890.084 655.115ZM896.745 658.021C900.872 659.814 904.908 661.707 909.432 662.279C916.608 663.282 924.02 664.829 931.222 663.419C927.962 661.939 924.591 663.994 921.345 662.361C917.45 663.203 913.271 662.145 909.31 661.623C904.809 659.606 899.949 658.22 895.734 655.599C890.464 653.663 898.457 658.082 899.881 658.441C903.173 660.32 896.259 657.476 895.283 656.695C892.525 655.138 892.174 655.464 895.011 657.044C895.582 657.38 896.146 657.734 896.745 658.021ZM888.891 652.437C892.891 653.928 888.873 649.607 887.042 649.857C886.23 648.44 883.94 647.544 885.555 646.784C882.65 647.799 882.511 642.924 881.146 643.622C878.07 642.645 879.949 639.185 876.285 637.058C875.951 634.819 872.646 632.878 871.594 629.502C871.129 627.772 867.859 622.809 869.867 627.428C871.576 631.875 874.583 635.687 877.087 639.49C879.029 643.112 881.325 646.901 884.863 649.16C886.057 650.312 887.207 652.075 888.891 652.437ZM877.37 639.709C878.101 641.024 877.509 639.101 877.37 639.709ZM893.683 654.222C894.568 653.823 892.408 653.719 893.683 654.222ZM895.852 655.019C895.628 653.92 894.861 655.635 895.852 655.019ZM898.571 656.159C899.863 654.919 896.576 655.377 898.571 656.159ZM903.229 658.771C904.015 657.603 900.713 658.331 903.229 658.771ZM894.285 652.498C896.292 651.19 891.688 652.48 894.285 652.498ZM896.323 653.521C896.265 652.831 895.597 653.831 896.323 653.521ZM906.511 659.919C908.149 660.959 916.078 662.198 911.114 660.346C910.281 660.522 901.909 657.962 906.511 659.919ZM890.337 647.244C890.178 646.553 887.793 646.479 890.337 647.244ZM895.079 650.028C896.315 649.16 892.517 649.359 895.079 650.028ZM899.069 652.488C900.841 651.816 896.197 651.814 899.069 652.488ZM888.405 645.13C890.327 646.613 896.159 645.321 891.349 644.245C889.161 643.072 884.23 642.269 887.592 644.952L888.405 645.13ZM901.773 653.337C902.574 651.966 898.414 652.553 901.773 653.337ZM897.711 650.091C902.41 651.427 893.759 647.099 896.551 649.597L897.171 649.88L897.711 650.091ZM905.854 654.825C910.305 654.868 901.833 654.208 905.854 654.825ZM886.694 642.54C886.519 641.706 885.596 642.609 886.694 642.54ZM913.382 659.074C913.501 657.568 911.93 660.196 913.382 659.074ZM894.29 647.219C894.019 646.425 892.899 647.186 894.29 647.219ZM887.116 642.016C889.67 641.861 883.616 640.884 887.116 642.016ZM878.617 636.49C878.298 635.257 875.838 634.275 878.617 636.49ZM900.928 650.735C900.708 650.852 900.46 650.198 900.928 650.735ZM914.813 659.309C914.77 658.486 914.057 659.618 914.813 659.309ZM899.699 649.458C899.95 648.399 897.52 649.137 899.699 649.458ZM889.354 642.861C891.256 642.657 886.306 641.568 889.354 642.861ZM906.853 653.801C909.817 652.62 903.965 653.225 906.853 653.801ZM897.752 647.585C901.165 648.027 893.688 645.247 897.001 647.336L897.752 647.585ZM909.616 654.925C912.806 653.009 911.754 659.415 915.026 655.467C918.252 653.096 912.239 658.397 916.214 655.889C919.092 653.953 923.34 656.807 926.023 657.736C927.952 657.642 929.829 659.415 931.809 658.336C935.617 657.303 924.359 656.805 927.31 654.975C923.826 655.996 921.252 653.759 919.537 651.513C915.627 650.605 911.109 648.595 909.157 645.112C908.36 643.807 910.305 645.298 908.469 643.161C906.115 641.054 904.939 638.66 903.358 636.099C901.469 635.086 901.247 632.102 901.057 636C901.072 633.539 898.776 631.883 898.214 632.57C898.204 630.201 900.673 631.389 898.945 629.637C898.574 627.181 897.35 624.623 896.983 621.849C896.412 620.514 896.902 617.652 895.031 620.676C894.35 623.874 894.806 616.748 895.866 619.097C897.256 616.7 895.364 616.982 895.289 617.313C896.194 615.291 895.863 612.421 895.051 613.515C895.534 611.37 895.815 605.623 894.331 606.643C895.231 604.4 896.038 596.38 892.128 599.439C890.545 599.461 887.801 600.017 886.507 600.665C890.57 602.919 886.097 601.479 884.44 601.12C884.225 603.206 882.587 602.306 880.539 602.326C883.811 602.733 878.945 605.691 877.072 604.542C874.634 605.712 879.173 608.638 877.12 609.543C877.373 610.905 873.387 609.05 873.699 612.2C871.334 611.197 873.375 615.934 874.558 614.332C878.582 615.428 877.391 617.924 877.492 620.297C876.836 621.679 874.255 617.049 876.917 617.263C874.816 613.83 874.594 616.021 872.849 617.616C872.444 617.731 877.299 619.885 874.252 620.949C876.933 621.366 877.011 623.727 877.558 625.22C879.168 626.909 878.837 623.355 880.767 625.386C879.545 623.577 874.303 620.289 878.524 621.344C878.501 619.524 877.76 618.056 879.054 618.091C880.337 615.759 877.712 623.846 880.6 620.88C881.398 620.529 881.598 618.545 883.035 621.068C885.121 623.134 883.788 624.63 880.845 622.737C881.371 624.536 884.782 625.177 884.14 627.988C884.819 630.461 885.771 629.55 886.6 629.408C887.25 631.809 887.62 630.044 887.65 628.899C890.626 629.541 889.928 631.311 890.861 632.547C892.911 633.478 887.925 626.235 891.445 630.369C895.149 633.735 892.836 635.139 889.511 634.6C891.615 634.429 892.292 637.463 894.925 637.356C897.325 638.505 898.951 642.917 894.814 641.08C893.38 639.777 888.299 638.172 892.449 640.647C896.278 642.433 899.322 643.499 903.017 645.741C905.659 647.639 906.802 649.813 907.803 650.244C905.581 651.312 901.108 649.391 904.43 648.804C902.357 648.425 900.025 647.369 902.01 649.967C903.699 651.386 907.991 651.236 908.762 651.396C908.11 652.841 906.99 652.956 908.787 653.068C906.782 654.144 909.432 654.312 909.616 654.925ZM905.515 643.27C904.294 641.986 903.978 639.582 905.297 641.672C905.975 641.947 907.465 645.604 905.515 643.27ZM918.875 651.808C919.636 651.758 918.897 652.39 918.875 651.808ZM903.589 640.121C904.028 641.619 903.54 638.18 903.589 640.121ZM902.261 638.325C904.195 639.169 900.723 635.341 902.261 638.325ZM886.168 627.151C887.07 626.909 886.613 628.703 886.168 627.151ZM898.976 634.135C899.626 635.89 899.53 632.041 898.976 634.135ZM889.928 627.805C891.261 628.889 889.291 626.65 889.928 627.805ZM897.691 630.308C896.237 627.032 898.723 628.517 898.015 630.845L897.691 630.308ZM884.302 621.325C883.652 620.249 882.577 617.094 882.923 616.131C883.234 617.7 886.239 622.882 884.395 618.278C882.36 614.418 886.83 619.529 887.291 620.493C887.506 621.45 886.034 620.232 887.03 622.478C885.212 619.921 885.958 623.89 884.302 621.325ZM880.165 618.456C881.11 620.17 880.334 615.955 880.165 618.456ZM882.026 619.101C883.53 621.732 882.913 617.214 882.026 619.101ZM877.547 615.617C876.007 614.074 874.892 612.655 877.62 614.66C878.67 614.7 875.284 611.431 877.874 613.622C880.594 614.121 879.216 618.112 877.547 615.617ZM879.899 615.556C880.795 614.663 880.375 616.433 879.899 615.556ZM881.348 616.021C882.994 617.095 879.99 613.464 881.348 616.021ZM878.47 613.256C873.992 609.243 884.097 615.352 879.201 613.998L878.47 613.256ZM891.303 620.755C889.364 619.587 890.788 612.526 891.45 617.354C893.334 616.741 891.346 619.85 892.75 619.819C892.53 621.78 891.901 622.486 891.303 620.755ZM896.05 623.579C896.449 625.035 896.239 621.45 896.05 623.579ZM895.226 622.757C895.438 621.849 895.246 623.828 895.226 622.757ZM879.347 611.938C876.47 607.943 887.71 615.977 881.191 612.95C880.511 612.77 879.689 612.706 879.347 611.938ZM888.489 616.813C889.096 617.369 888.216 613.449 888.489 616.813ZM895.428 621.292C895.964 619.376 895.469 622.559 895.428 621.292ZM879.79 610.414C881.5 610.045 886.876 613.434 881.94 611.381C881.391 610.77 880.22 611.047 879.79 610.414ZM894.474 617.776C894.657 614.337 895.497 615.723 894.482 618.27L894.474 617.776ZM881.062 609.216C881.76 608.188 879.211 604.568 881.428 607.918C882.387 608.684 884.202 609.2 882.599 609.523C885.12 611.76 881.985 610.129 881.062 609.216ZM893.748 616.703C894.229 612.785 894.174 618.998 893.748 616.703ZM879.605 605.598C880.139 605.368 879.888 606.312 879.605 605.598ZM882.916 607.58C884.486 609.584 883.767 605.781 882.916 607.58ZM892.249 612.803C892.426 613.807 892.241 612.113 892.249 612.803ZM891.708 611.6C892.914 613.301 890.413 608.384 891.708 611.6ZM890.913 609.49C891.652 611.159 890.697 608.162 890.913 609.49ZM892.208 607.374C891.318 605.798 893.331 600.428 893.556 603.759C892.618 606.354 893.286 607.804 893.938 604.323C895.147 601.586 893.677 609.73 892.208 607.374ZM893.538 599.388C893.926 598.909 893.625 599.965 893.538 599.388ZM891.316 643.433C891.384 643.726 890.79 642.97 891.316 643.433ZM895.893 645.761C898.439 646.42 898.427 645.364 896.125 645.048C894.889 643.891 890.982 642.662 894.479 644.906C894.71 645.497 895.441 645.481 895.893 645.761ZM886.855 639.721C888.256 640.775 892.138 642.703 888.853 640.124C889.96 638.828 886.734 638.139 887.804 637.272C885.08 635.595 885.654 635.745 887.564 635.799C884.291 634.325 888.036 634.437 887.859 633.682C886.598 633.432 881.59 631.443 884.536 633.845C881.542 632.31 883.823 634.417 882.918 634.196C879.855 633.356 885.644 636.542 882.432 635.75C884.188 637.149 887.159 639.337 883.173 637.231C882.65 637.991 886.026 639.144 886.855 639.721ZM891.642 642.489C897.461 644.375 888.787 640.182 891.642 642.489ZM916.146 657.423C916.221 656.26 915.351 658.415 916.146 657.423ZM918.664 658.489C920.007 657.182 918.72 660.575 920.889 658.169C920.912 656.446 920.824 655.429 918.396 657.522C917.726 657.896 917.428 659.481 918.664 658.489ZM878.685 633.23C878.272 631.599 875.794 631.606 878.685 633.23ZM881.373 635.002C880.374 633.336 877.809 633.494 881.373 635.002ZM896.674 644.285C898.169 645.622 903.535 645.265 898.488 644.451C897.741 643.339 893.744 643.607 896.674 644.285ZM917.706 657.355C920.004 655.414 915.478 658.22 917.706 657.355ZM922.488 660.659C922.502 660.036 921.497 660.932 922.488 660.659ZM922.495 659.787C925.042 657.075 920.03 659.947 922.495 659.787ZM872.069 627.658C869.9 624.544 870.722 623.144 868.628 620.6C868.231 618.654 865.037 614.242 866.977 618.916C868.752 621.651 869.277 625.884 872.069 627.658ZM921.696 658.924C926.382 655.879 919.775 657.599 921.696 658.924ZM925.272 660.333C927.619 658.308 923.787 659.911 925.272 660.333ZM877.888 629.786C878.559 628.782 876.154 629.657 877.888 629.786ZM924.526 659.372C926.796 657.899 924.002 658.125 924.114 659.506L924.526 659.372ZM893.705 639.828C893.627 638.831 892.505 639.912 893.705 639.828ZM895.61 640.93C895.003 639.698 894.679 641.123 895.61 640.93ZM928.17 660.367C931.08 658.255 926.407 659.962 927.56 660.769L928.17 660.367ZM927.055 659.825C929.427 657.827 924.554 660.71 927.055 659.825ZM932.749 663.638C934.34 662.567 930.815 663.292 932.749 663.638ZM879.347 629.062C881.479 629.542 887.871 634.345 884.101 629.395C882.17 628.82 883.328 624.07 881.358 624.91C882.681 627.133 882.445 628.077 879.668 626.678C876.181 624.963 877.709 627.525 878.392 628.233C877.461 628.446 879.62 629.044 879.347 629.061L879.347 629.062ZM869.629 621.341C870.011 619.75 866.112 612.599 867.789 617.756C868.393 618.837 868.33 620.885 869.629 621.341ZM887.467 632.404C887.414 632.272 886.367 631.481 887.467 632.404ZM890.17 633.039C890.17 631.354 887.181 632.354 890.17 633.039ZM913.612 647.903C913.164 646.753 911.845 647.878 913.612 647.903ZM914.737 648.73C914.57 648.086 914.087 648.855 914.737 648.73ZM924.028 654.619C924.921 653.956 922.912 654.533 924.028 654.619ZM874.482 622.587C877.038 621.592 871.743 621.877 874.482 622.587ZM911.548 646.079C911.518 644.415 909.917 646.494 911.548 646.079ZM873.473 620.218C875.114 619.662 871.953 619.853 873.473 620.218ZM878.237 622.541C878.209 621.994 877.734 622.75 878.237 622.541ZM936.36 658.4C938.472 657.97 943.284 659.481 944.06 657.838C941.496 657.774 935.192 656.016 934.893 658.255L935.455 658.344L936.361 658.4H936.36ZM879.752 622.925C879.79 621.238 878.444 622.862 879.752 622.925ZM867.225 614.181C866.656 610.968 865.06 613.695 867.225 614.181ZM870.211 614.937C870.25 613.904 867.477 614.008 870.211 614.937ZM871.918 615.782C871.534 616.287 871.425 615.379 871.918 615.782ZM882.663 622.714C883.169 622.246 881.464 622.368 882.663 622.714ZM870.783 613.879C870.492 611.452 867.321 613.515 870.783 613.879ZM864.655 609.879C864.569 608.76 864.058 610.301 864.655 609.879ZM865.568 609.188C865.419 607.859 864.784 609.355 865.568 609.188ZM870.601 612.21C872.73 611.37 866.724 610.469 870.166 612.052L870.601 612.21ZM937.977 654.08C939.34 652.823 936.247 653.691 937.977 654.08ZM946.117 658.323C946.663 656.701 944.741 658.537 946.117 658.323ZM871.115 609.556C871.341 607.984 869.427 609.869 871.115 609.556ZM863.952 604.728C863.568 602.51 863.621 598.614 867.301 599.93C862.389 600.912 870.702 606.073 869.652 601.998C871.718 602.1 873.693 600.769 872.608 602.786C876.679 602.336 879.499 598.785 883.431 599.284C886.493 598.874 889.841 598.566 893.142 597.325C895.855 597.129 898.467 594.19 896.98 592.447C893.281 592.132 889.406 592.598 885.318 593.417C880.786 594.363 876.67 596.164 872.097 596.938C867.639 597.541 872.993 598.596 871.715 598.833C869.391 599.645 874.49 600.192 871.414 601.049C869.516 600.685 867.538 600.029 868.35 598.014C864.081 598.574 860.328 600.354 863.702 604.725L863.953 604.727L863.952 604.728ZM874.242 599.456C875.241 595.747 879.603 602.51 875.881 599.95C875.438 599.614 874.704 599.342 874.242 599.456ZM874.436 597.657C875.881 596.576 875.203 598.266 874.436 597.657ZM876.27 597.688C876.402 595.981 880.47 598.591 876.94 598.302L876.27 597.688ZM878.778 596.673C879.696 595.594 879.044 597.63 878.778 596.673ZM879.421 596.241C880.948 594.397 888.061 595.063 882.855 596.06C881.458 595.002 880.389 596.683 879.421 596.241ZM888.706 594.801C893.321 596.589 888.476 589.761 888.706 594.801ZM891.341 594.785C892.304 592.247 895.081 593.766 891.789 594.274C891.859 594.546 891.69 595.587 891.341 594.785ZM870.077 608.254C872.954 606.48 867.022 606.715 870.077 608.254ZM872.206 608.847C873.215 607.768 870.011 608.409 872.206 608.847ZM865.935 604.372C867.579 603.099 863.988 603.888 865.935 604.372ZM950.921 657.86C950.969 656.385 949.664 658.524 950.921 657.86ZM942.285 651.93C942.53 650.234 941.175 652.078 942.285 651.93ZM953.295 658.433C955.594 658.441 960.262 657.713 955.26 657.715C954.474 657.838 950.686 657.813 953.295 658.433ZM874.078 607.805C875.939 607.678 876.988 605.742 873.716 605.852C868.646 605.325 878.189 607.6 873.066 606.948C872.378 607.406 874.037 607.933 874.078 607.805ZM875.716 608.64C875.521 607.439 875.139 609.278 875.716 608.64ZM877.661 603.425C878.467 602.417 876.543 603.155 877.661 603.425ZM871.47 593.017C874.793 591.883 879.335 590.606 880.903 593.578C879.307 591.647 880.258 589.743 881.765 592.57C883.897 595.427 884.963 591.27 883.578 590.311C885.159 592.285 886.954 593.219 884.635 590.436C887.156 587.385 879.59 590.835 877.871 590.799C877.044 591.173 869.328 592.779 871.47 593.017ZM873.417 589.268C875.312 587.831 879.969 590.125 876.98 587.838C876.687 587.579 870.436 589.573 873.417 589.268ZM880.323 589.555C882.539 589.611 879.368 586.558 882.008 587.942C881.575 586.518 878.933 586.251 877.641 585.681C876.91 586.983 879.127 589.573 880.323 589.555ZM874.628 583.248C875.395 582.203 873.283 583.78 874.628 583.248ZM877.451 583.927C881.024 583.452 876.54 582.381 876.73 583.889L877.451 583.927ZM872.18 579.78C869.664 576.476 876.912 580.335 874.355 576.875C872.203 575.153 870.137 578.816 872.18 579.78ZM904.459 597.271C905.613 595.215 899.698 594.498 903.683 596.543C904.05 596.666 903.967 597.413 904.459 597.271ZM881.038 673.846C880.783 674.86 880.624 676.561 880.565 678.949C880.565 679.419 880.355 679.654 879.934 679.654C879.513 679.654 879.22 679.449 879.054 679.04C878.603 677.936 878.176 677.166 877.768 676.727C877.288 676.213 876.649 675.903 875.852 675.797C874.996 675.661 872.862 675.593 869.45 675.593C868.669 675.593 868.157 675.676 867.918 675.843C867.767 675.948 867.692 676.175 867.692 676.524V686.798C867.692 687.146 867.91 687.312 868.345 687.297C869.683 687.282 871.622 687.19 874.161 687.025C874.658 686.964 874.993 686.801 875.165 686.536C875.339 686.272 875.508 685.589 875.672 684.484C875.777 683.879 876.131 683.645 876.732 683.781C877.243 683.887 877.462 684.122 877.387 684.484C876.965 686.541 876.829 689.218 876.98 692.514C876.995 692.906 876.748 693.119 876.236 693.149C875.814 693.195 875.551 692.967 875.447 692.468C875.057 690.579 874.331 689.569 873.272 689.44C872.213 689.312 870.487 689.247 868.098 689.247C867.827 689.247 867.692 689.345 867.692 689.542V699.749C867.692 700.505 867.97 701.02 868.525 701.291C868.962 701.518 869.901 701.722 871.343 701.904C872.081 701.979 872.403 702.305 872.314 702.879C872.223 703.378 871.562 703.575 870.329 703.469C866.767 703.181 863.828 703.197 861.514 703.515C860.868 703.605 860.545 703.34 860.545 702.721C860.545 702.327 860.868 702.101 861.514 702.04C862.987 701.873 863.723 700.573 863.723 698.139V678.722C863.723 677.725 863.546 676.958 863.194 676.421C862.84 675.884 862.182 675.396 861.222 674.958C860.62 674.685 860.395 674.315 860.545 673.846C860.62 673.559 860.741 673.4 860.905 673.37C861.055 673.324 861.455 673.355 862.1 673.461C863.047 673.612 865.28 673.688 868.796 673.688C872.945 673.688 876.529 673.597 879.55 673.416C880.557 673.354 881.061 673.438 881.061 673.665C881.061 673.726 881.054 673.786 881.038 673.846ZM895.658 702.639C895.658 703.244 895.32 703.509 894.644 703.433C892.571 703.236 890 703.265 886.934 703.523C886.318 703.584 885.939 703.568 885.795 703.479C885.652 703.387 885.582 703.138 885.582 702.729C885.582 702.367 885.99 702.061 886.809 701.81C887.63 701.562 888.038 700.817 888.038 699.577V679.05C888.038 677.824 887.861 676.925 887.509 676.35C887.155 675.775 886.535 675.329 885.649 675.012C885.183 674.845 884.949 674.611 884.949 674.308C884.949 673.855 885.287 673.515 885.964 673.288C886.986 672.955 888.046 672.442 889.144 671.746C890.045 671.201 890.617 670.93 890.856 670.93C891.412 670.93 891.691 671.314 891.691 672.086C891.691 672.026 891.661 672.782 891.6 674.354C891.556 675.851 891.541 677.325 891.556 678.777L891.645 699.032C891.645 699.955 891.871 700.624 892.322 701.04C892.773 701.456 893.548 701.731 894.644 701.867C895.32 701.942 895.658 702.199 895.658 702.639V702.639ZM916.049 701.302C916.049 701.62 915.475 702.099 914.325 702.741C913.175 703.384 912.254 703.705 911.563 703.705C910.976 703.705 910.459 703.419 910.008 702.844C909.557 702.269 909.24 701.982 909.06 701.982C908.925 701.982 908.211 702.292 906.918 702.911C905.627 703.532 904.326 703.842 903.018 703.842C901.786 703.842 900.756 703.479 899.93 702.754C899.028 701.952 898.577 700.863 898.577 699.487C898.577 696.871 901.553 694.996 907.505 693.862C908.526 693.665 909.046 693.25 909.06 692.615L909.106 691.163C909.196 688.683 908.107 687.444 905.837 687.444C905.19 687.444 904.578 688.025 903.998 689.189C903.421 690.355 902.589 690.981 901.507 691.073C900.275 691.193 899.658 690.671 899.658 689.507C899.658 688.781 900.576 687.935 902.409 686.967C904.333 685.954 906.183 685.447 907.956 685.447C911.007 685.447 912.517 686.907 912.487 689.825L912.396 699.169C912.382 700.152 912.796 700.643 913.637 700.643C913.802 700.643 914.118 700.606 914.584 700.53C915.05 700.455 915.321 700.416 915.397 700.416C915.832 700.416 916.049 700.712 916.049 701.302ZM909.106 696.131C909.121 695.752 909.034 695.502 908.846 695.382C908.658 695.261 908.362 695.237 907.956 695.313C904.333 695.964 902.522 697.151 902.522 698.875C902.522 700.614 903.461 701.483 905.34 701.483C906.092 701.483 906.867 701.34 907.662 701.053C908.595 700.719 909.06 700.319 909.06 699.85L909.106 696.131ZM932.811 698.692C932.811 700.295 932.197 701.57 930.973 702.515C929.748 703.46 928.076 703.932 925.957 703.932C924.544 703.932 923.13 703.781 921.718 703.479C920.5 703.206 919.794 702.957 919.599 702.731C919.478 702.518 919.418 701.483 919.418 699.623C919.418 698.821 919.599 698.405 919.96 698.375C920.32 698.329 920.629 698.527 920.884 698.964C922.011 700.946 923.83 701.937 926.34 701.937C928.458 701.937 929.518 701.195 929.518 699.713C929.518 699.064 929.278 698.519 928.797 698.08C928.27 697.581 927.25 696.999 925.731 696.334C923.536 695.351 922.07 694.489 921.335 693.748C920.537 692.962 920.14 691.903 920.14 690.572C920.14 688.938 920.763 687.669 922.011 686.762C923.168 685.884 924.716 685.447 926.655 685.447C927.873 685.447 928.984 685.544 929.993 685.741C931.075 685.938 931.638 686.179 931.683 686.467C931.802 687.313 932.052 688.538 932.427 690.142C932.473 690.337 932.261 690.497 931.796 690.618C931.3 690.723 930.969 690.64 930.804 690.369C929.617 688.417 928.114 687.442 926.295 687.442C924.236 687.442 923.206 688.107 923.206 689.438C923.206 690.18 923.484 690.769 924.04 691.207C924.537 691.585 925.701 692.175 927.535 692.977C929.459 693.809 930.766 694.557 931.458 695.222C932.36 696.083 932.811 697.241 932.811 698.692ZM959.335 702.662C959.335 703.191 958.981 703.471 958.275 703.501C957.222 703.516 955.846 703.592 954.149 703.728C953.307 703.895 952.706 703.789 952.345 703.411C949.97 700.84 947.956 698.149 946.302 695.335C946.167 695.094 945.995 694.973 945.784 694.973C945.529 694.973 945.086 695.2 944.455 695.654C943.747 696.046 943.395 696.606 943.395 697.331C943.395 697.846 943.409 698.586 943.44 699.555C943.47 700.522 943.709 701.157 944.16 701.459C944.476 701.672 945.206 701.838 946.347 701.959C947.054 702.05 947.408 702.315 947.408 702.753C947.408 703.101 947.351 703.317 947.238 703.399C947.126 703.482 946.828 703.501 946.347 703.455C944.844 703.32 942.305 703.395 938.728 703.682C937.826 703.758 937.337 703.644 937.262 703.342C937.232 703.237 937.216 703.085 937.216 702.888C937.216 702.42 937.676 702.064 938.593 701.824C939.42 701.61 939.833 700.635 939.833 698.897V679.072C939.833 677.833 939.713 676.971 939.471 676.487C939.141 675.867 938.449 675.383 937.397 675.035C936.902 674.87 936.653 674.635 936.653 674.332C936.653 673.893 937.007 673.553 937.713 673.312C938.849 672.93 939.932 672.404 940.936 671.746C941.763 671.203 942.275 670.93 942.469 670.93C943.086 670.93 943.395 671.322 943.395 672.11C943.395 672.003 943.387 672.753 943.371 674.355C943.355 675.837 943.348 677.319 943.349 678.801L943.395 692.999C943.395 693.393 943.499 693.588 943.709 693.588C943.935 693.588 944.281 693.393 944.747 692.999C945.995 692.016 947.528 690.731 949.346 689.143C949.707 688.766 949.887 688.463 949.887 688.236C949.887 687.828 949.278 687.54 948.062 687.375C947.536 687.313 947.287 687.019 947.316 686.489C947.362 685.96 947.625 685.733 948.106 685.809C949.189 685.961 950.767 686.044 952.84 686.059C954.284 686.073 955.719 686.082 957.147 686.082C957.612 686.097 957.846 686.376 957.846 686.921C957.846 687.435 957.478 687.715 956.742 687.761C955.583 687.805 954.493 688.069 953.473 688.554C952.045 689.203 950.518 690.345 948.895 691.979C948.776 692.07 948.715 692.183 948.715 692.319C948.715 692.53 948.97 693.038 949.482 693.839C951.361 696.712 953.134 698.881 954.802 700.349C955.87 701.271 956.869 701.732 957.8 701.732C958.492 701.732 958.921 701.781 959.085 701.88C959.251 701.978 959.335 702.239 959.335 702.662Z" fill="black"/>
<path d="M1231.59 634.297L1175.7 578.414C1172.48 575.196 1167.26 575.196 1164.04 578.414L1152.44 590.019L1167.16 604.741C1170.58 603.585 1174.5 604.36 1177.23 607.087C1179.97 609.832 1180.74 613.788 1179.56 617.22L1193.74 631.408C1197.18 630.226 1201.14 630.991 1203.88 633.737C1207.71 637.567 1207.71 643.774 1203.88 647.607C1200.05 651.44 1193.84 651.44 1190 647.607C1187.12 644.722 1186.41 640.489 1187.87 636.939L1174.64 623.708L1174.64 658.526C1175.6 659 1176.47 659.627 1177.23 660.381C1181.06 664.211 1181.06 670.419 1177.23 674.255C1173.4 678.086 1167.19 678.086 1163.36 674.255C1159.53 670.419 1159.53 664.212 1163.36 660.382C1164.28 659.463 1165.37 658.735 1166.57 658.241V623.098C1165.37 622.607 1164.28 621.879 1163.36 620.958C1160.46 618.059 1159.76 613.799 1161.25 610.235L1146.74 595.721L1108.41 634.039C1105.19 637.26 1105.19 642.481 1108.41 645.7L1164.3 701.584C1167.52 704.803 1172.74 704.803 1175.96 701.584L1231.59 645.959C1234.8 642.739 1234.8 637.516 1231.59 634.297Z" fill="#DE4C36"/>
<defs>
<linearGradient id="paint0_linear_910_217" x1="12864.8" y1="62.5922" x2="67.2801" y2="12865.3" gradientUnits="userSpaceOnUse">
<stop offset="0.00344" stop-color="#E44857"/>
<stop offset="0.4689" stop-color="#C711E1"/>
<stop offset="1" stop-color="#7F52FF"/>
</linearGradient>
<linearGradient id="paint1_linear_910_217" x1="-1071.02" y1="-1853.02" x2="-5395.38" y2="-6177.38" gradientUnits="userSpaceOnUse">
<stop offset="0.296" stop-color="#6373FF"/>
<stop offset="0.694" stop-color="#5282FF"/>
<stop offset="1" stop-color="#945DFF"/>
</linearGradient>
<linearGradient id="paint2_linear_910_217" x1="-1304.92" y1="-2086.92" x2="-5393.33" y2="-6175.33" gradientUnits="userSpaceOnUse">
<stop offset="0.108" stop-color="#F26636"/>
<stop offset="0.173" stop-color="#CD5CA9"/>
<stop offset="0.492" stop-color="#E8744F"/>
<stop offset="0.716" stop-color="#F88316"/>
<stop offset="0.823" stop-color="#FF8900"/>
</linearGradient>
<linearGradient id="paint3_linear_910_217" x1="1562.24" y1="1723.05" x2="7915.23" y2="8036.89" gradientUnits="userSpaceOnUse">
<stop stop-color="#387EB8"/>
<stop offset="1" stop-color="#366994"/>
</linearGradient>
<linearGradient id="paint4_linear_910_217" x1="2184.2" y1="2568.95" x2="9007.79" y2="9044.35" gradientUnits="userSpaceOnUse">
<stop stop-color="#FFE052"/>
<stop offset="1" stop-color="#FFC331"/>
</linearGradient>
</defs>
</svg>
