<svg width="64" height="64" viewBox="0 0 64 64" fill="none" xmlns="http://www.w3.org/2000/svg">
<g clip-path="url(#clip0_1126_1952)">
<path d="M49 0H15C6.71573 0 0 6.71573 0 15V49C0 57.2843 6.71573 64 15 64H49C57.2843 64 64 57.2843 64 49V15C64 6.71573 57.2843 0 49 0Z" fill="#242938"/>
<mask id="mask0_1126_1952" style="mask-type:luminance" maskUnits="userSpaceOnUse" x="8" y="7" width="49" height="50">
<path d="M8 7H56.23V57H8V7Z" fill="white"/>
</mask>
<g mask="url(#mask0_1126_1952)">
<path d="M36.1898 55.7983C34.9246 57.3916 32.3591 56.5186 32.3286 54.4841L31.8828 24.7268H51.8916C55.5156 24.7268 57.5368 28.9128 55.2833 31.7511L36.1898 55.7983Z" fill="url(#paint0_linear_1126_1952)"/>
<path d="M36.1898 55.7983C34.9246 57.3916 32.3591 56.5186 32.3286 54.4841L31.8828 24.7268H51.8916C55.5156 24.7268 57.5368 28.9128 55.2833 31.7511L36.1898 55.7983Z" fill="url(#paint1_linear_1126_1952)" fill-opacity="0.2"/>
<path d="M28.0526 7.91657C29.3178 6.32282 31.8833 7.19607 31.9138 9.23057L32.1093 38.9878H12.3508C8.72657 38.9878 6.70532 34.8018 8.95907 31.9636L28.0526 7.91657Z" fill="#3ECF8E"/>
</g>
</g>
<defs>
<linearGradient id="paint0_linear_1126_1952" x1="31.8828" y1="31.3248" x2="49.6658" y2="38.7831" gradientUnits="userSpaceOnUse">
<stop stop-color="#249361"/>
<stop offset="1" stop-color="#3ECF8E"/>
</linearGradient>
<linearGradient id="paint1_linear_1126_1952" x1="23.9988" y1="20.5301" x2="32.1088" y2="35.7968" gradientUnits="userSpaceOnUse">
<stop/>
<stop offset="1" stop-opacity="0"/>
</linearGradient>
<clipPath id="clip0_1126_1952">
<rect width="64" height="64" fill="white"/>
</clipPath>
</defs>
</svg>
