<svg width="25" height="24" viewBox="0 0 25 24" fill="none" xmlns="http://www.w3.org/2000/svg">
<g clip-path="url(#clip0_915_11)">
<path d="M18.6562 0H5.90625C2.79965 0 0.28125 2.5184 0.28125 5.625V18.375C0.28125 21.4816 2.79965 24 5.90625 24H18.6562C21.7629 24 24.2812 21.4816 24.2812 18.375V5.625C24.2812 2.5184 21.7629 0 18.6562 0Z" fill="white"/>
<path d="M18.6562 0H5.90625C2.79965 0 0.28125 2.5184 0.28125 5.625V18.375C0.28125 21.4816 2.79965 24 5.90625 24H18.6562C21.7629 24 24.2812 21.4816 24.2812 18.375V5.625C24.2812 2.5184 21.7629 0 18.6562 0Z" fill="#1D9BF0"/>
<path d="M18.9911 8.56978C19.0014 8.71856 19.0014 8.86734 19.0014 9.01753C19.0014 13.5922 15.5188 18.8683 9.15066 18.8683V18.8655C7.26939 18.8682 5.4271 18.3294 3.84375 17.3135C4.11731 17.3464 4.39219 17.3628 4.66781 17.3634C6.22703 17.3647 7.74139 16.8417 8.96756 15.8785C8.24512 15.8649 7.54501 15.6258 6.9651 15.1947C6.38519 14.7637 5.95448 14.1622 5.73319 13.4743C6.25188 13.5743 6.78662 13.5539 7.29619 13.4147C5.68106 13.0883 4.51903 11.6692 4.51903 10.0211V9.97725C5.00052 10.2454 5.53939 10.394 6.09028 10.4106C4.56909 9.39384 4.10016 7.37006 5.01872 5.78775C5.8879 6.85734 6.97237 7.73212 8.20167 8.35528C9.43097 8.97843 10.7776 9.33602 12.1541 9.40481C12.0169 8.81403 12.0372 8.19758 12.2129 7.61709C12.3887 7.03661 12.7138 6.51245 13.1557 6.09703C14.5501 4.78621 16.7432 4.85343 18.054 6.24712C18.8293 6.09405 19.5728 5.80981 20.2525 5.40665C19.9941 6.20827 19.4532 6.88872 18.7306 7.3214C19.4169 7.24054 20.0871 7.05683 20.7188 6.77643C20.2541 7.47224 19.6691 8.07948 18.9911 8.56978Z" fill="white"/>
</g>
<defs>
<clipPath id="clip0_915_11">
<rect width="24" height="24" fill="white" transform="translate(0.28125)"/>
</clipPath>
</defs>
</svg>
